# Blender 3.5.1
# www.blender.org
mtllib kertas1.mtl
o Paper_01_GEO
v -0.105000 0.011261 0.148300
v 0.105000 0.011261 0.087568
v -0.105000 0.076019 -0.141022
v 0.105000 0.051024 -0.145377
v -0.105000 0.007853 -0.000000
v 0.105000 0.007853 -0.000000
v 0.000000 -0.000092 0.148300
v 0.000000 0.052195 -0.148538
v 0.000000 -0.000000 -0.000000
v -0.105000 0.011261 0.148300
v 0.105000 0.011261 0.087568
v -0.105000 0.076019 -0.141022
v 0.105000 0.051024 -0.145377
v -0.105000 0.007853 -0.000000
v 0.105000 0.007853 -0.000000
v 0.000000 -0.000092 0.148300
v 0.000000 0.052195 -0.148538
v 0.000000 -0.000000 -0.000000
vn -0.0349 0.9506 0.3084
vn -0.0951 0.9954 -0.0140
vn 0.1513 0.9128 0.3794
vn 0.0911 0.9958 -0.0111
vn 0.0349 -0.9506 -0.3084
vn 0.0951 -0.9954 0.0140
vn -0.1513 -0.9128 -0.3794
vn -0.0911 -0.9958 0.0111
vt 0.606332 0.846522
vt 0.288037 0.850378
vt 0.220733 0.925668
vt 0.727382 0.424863
vt 0.018207 0.919165
vt 0.484651 0.848141
vt 0.886399 0.425565
vt 0.360195 0.851676
vt 0.238789 0.975259
vt 0.606094 0.971216
vt 0.724086 0.303276
vt 0.180521 0.796875
vt 0.900282 0.303276
vt 0.360195 0.974751
vt 0.004325 0.796875
vt 0.484686 0.971216
vt 0.606332 0.846522
vt 0.288037 0.850378
vt 0.220733 0.925668
vt 0.727382 0.424863
vt 0.018207 0.919165
vt 0.484651 0.848141
vt 0.886399 0.425565
vt 0.360195 0.851676
vt 0.238789 0.975259
vt 0.606094 0.971216
vt 0.724086 0.303276
vt 0.180521 0.796875
vt 0.900282 0.303276
vt 0.360195 0.974751
vt 0.004325 0.796875
vt 0.484686 0.971216
s 1
usemtl Paper6x
f 9/13/1 6/7/1 4/4/1 8/11/1
f 2/2/2 6/8/2 9/14/2 7/9/2
f 5/5/3 9/15/3 8/12/3 3/3/3
f 1/1/4 7/10/4 9/16/4 5/6/4
f 18/29/5 17/27/5 13/20/5 15/23/5
f 11/18/6 16/25/6 18/30/6 15/24/6
f 14/21/7 12/19/7 17/28/7 18/31/7
f 10/17/8 14/22/8 18/32/8 16/26/8
