# Blender 3.5.1
# www.blender.org
mtllib kertas3.mtl
o Paper_03_GEO
v 0.082467 0.014162 0.060955
v -0.115383 0.010755 -0.067407
v 0.094617 0.010755 -0.064704
v 0.042117 0.014162 0.080538
v -0.062883 0.014162 0.054287
v 0.042117 0.010755 -0.061228
v -0.010383 -0.001704 -0.067407
v -0.062883 0.010755 -0.061614
v -0.010383 0.001704 0.067407
v -0.094708 0.021709 0.017837
v -0.115383 0.014162 0.021277
v -0.031058 0.009088 0.057110
v -0.062883 0.014967 0.041327
v 0.082467 0.014162 0.060955
v -0.115383 0.010755 -0.067407
v 0.094617 0.010755 -0.064704
v 0.042117 0.014162 0.080538
v -0.062883 0.014162 0.054287
v 0.042117 0.010755 -0.061228
v -0.010383 -0.001704 -0.067407
v -0.062883 0.010755 -0.061614
v -0.010383 0.001704 0.067407
v -0.094708 0.021709 0.017837
v -0.115383 0.014162 0.021277
v -0.031058 0.009088 0.057110
v -0.062883 0.014967 0.041327
vn -0.1266 0.9916 -0.0250
vn -0.0064 0.9996 -0.0258
vn -0.1190 0.9926 -0.0250
vn 0.0123 0.9994 -0.0333
vn 0.1544 0.9876 -0.0291
vn 0.1233 0.9919 -0.0300
vn 0.2326 0.9722 -0.0264
vn -0.2266 0.9737 -0.0240
vn -0.0394 -0.9661 -0.2553
vn 0.1333 -0.9410 -0.3111
vn 0.0443 -0.9580 -0.2835
vn -0.1345 -0.9661 -0.2206
vn 0.1266 -0.9916 0.0250
vn 0.1190 -0.9926 0.0250
vn 0.0064 -0.9996 0.0258
vn -0.0123 -0.9994 0.0333
vn -0.1233 -0.9919 0.0300
vn -0.1544 -0.9876 0.0291
vn -0.2326 -0.9722 0.0264
vn 0.2266 -0.9737 0.0240
vn 0.0394 0.9661 0.2553
vn -0.0443 0.9580 0.2835
vn -0.1333 0.9410 0.3111
vn 0.1345 0.9661 0.2206
vt 0.741658 0.444746
vt 0.855864 0.434662
vt 0.845286 0.434214
vt 0.724086 0.490906
vt 0.956194 0.494897
vt 0.223425 0.417443
vt 0.840374 0.494867
vt 0.853935 0.563202
vt 0.845286 0.562857
vt 0.860948 0.495419
vt 0.964615 0.563202
vt 0.734676 0.558910
vt 0.224735 0.348633
vt 0.202171 0.463663
vt 0.928940 0.434214
vt 0.224735 0.483952
vt 0.217587 0.378938
vt 0.213017 0.420291
vt 0.741658 0.444746
vt 0.855864 0.434662
vt 0.845286 0.434214
vt 0.724086 0.490906
vt 0.956194 0.494897
vt 0.223425 0.417443
vt 0.840374 0.494867
vt 0.853935 0.563202
vt 0.845286 0.562857
vt 0.860948 0.495419
vt 0.964615 0.563202
vt 0.734676 0.558910
vt 0.224735 0.348633
vt 0.202171 0.463663
vt 0.928940 0.434214
vt 0.224735 0.483952
vt 0.217587 0.378938
vt 0.213017 0.420291
s 1
usemtl Paper6x
f 4/4/1 1/1/2 3/3/2 6/7/3
f 11/15/4 5/5/5 8/10/6 2/2/4
f 5/5/5 9/11/7 7/8/7 8/10/6
f 9/12/8 4/4/1 6/7/3 7/9/8
f 5/6/9 11/16/10 10/14/10 13/18/11
f 9/13/12 5/6/9 13/18/11 12/17/12
f 17/22/13 19/25/14 16/21/15 14/19/15
f 24/33/16 15/20/16 21/28/17 18/23/18
f 18/23/18 21/28/17 20/26/19 22/29/19
f 22/30/20 20/27/20 19/25/14 17/22/13
f 18/24/21 26/36/22 23/32/23 24/34/23
f 22/31/24 25/35/24 26/36/22 18/24/21
