# Blender 3.5.1
# www.blender.org
mtllib kertas.mtl
o Paper_06_GEO
v 1.761777 0.003805 0.142649
v 1.974488 0.002371 0.130764
v 1.763988 0.000609 -0.085918
v 1.972772 0.001920 -0.137416
v 1.739391 0.004743 0.003326
v 1.989602 -0.000022 -0.003326
v 1.903167 0.070532 0.053968
v 1.801025 0.096481 -0.135997
v 1.806388 0.105015 0.003326
v 1.914182 0.044226 0.136706
v 1.906527 0.032046 -0.136706
v 1.907486 0.033571 -0.000000
v 1.863002 0.007906 0.136706
v 1.863190 0.004203 -0.136706
v 1.862911 0.000000 -0.000000
v 1.923333 0.045177 0.064644
v 1.927726 0.053707 0.086064
v 1.779681 0.016957 -0.060934
v 1.761777 0.003805 0.142649
v 1.974488 0.002371 0.130764
v 1.763988 0.000609 -0.085918
v 1.972772 0.001920 -0.137416
v 1.739391 0.004743 0.003326
v 1.989602 -0.000022 -0.003326
v 1.903167 0.070532 0.053968
v 1.801025 0.096481 -0.135997
v 1.806388 0.105015 0.003326
v 1.914182 0.044226 0.136706
v 1.906527 0.032046 -0.136706
v 1.907486 0.033571 -0.000000
v 1.863002 0.007906 0.136706
v 1.863190 0.004203 -0.136706
v 1.862911 0.000000 -0.000000
v 1.923333 0.045177 0.064644
v 1.927726 0.053707 0.086064
v 1.779681 0.016957 -0.060934
vn -0.0115 -0.9995 0.0309
vn -0.0018 -0.9997 0.0254
vn -0.0035 -0.9999 0.0130
vn -0.0099 -0.9999 0.0099
vn 0.4975 0.8662 -0.0468
vn 0.4298 0.9026 -0.0263
vn 0.3939 0.9188 -0.0245
vn 0.4727 0.8806 -0.0338
vn 0.5032 0.8628 -0.0495
vn 0.5573 0.8281 -0.0603
vn -0.0082 -0.9999 -0.0134
vn -0.0101 -0.9997 -0.0221
vn -0.0159 -0.9998 0.0070
vn 0.4665 0.8841 -0.0281
vn 0.5484 0.8351 -0.0430
vn -0.0054 -1.0000 -0.0009
vn -0.0219 -0.9991 0.0368
vn -0.7985 -0.4848 0.3568
vn -0.2128 -0.9390 -0.2702
vn -0.2457 0.8746 -0.4180
vn 0.0115 0.9995 -0.0309
vn 0.0099 0.9999 -0.0099
vn 0.0035 0.9999 -0.0130
vn 0.0018 0.9997 -0.0254
vn -0.4975 -0.8662 0.0468
vn -0.4727 -0.8806 0.0338
vn -0.3940 -0.9188 0.0245
vn -0.4298 -0.9026 0.0263
vn -0.5032 -0.8628 0.0495
vn -0.5573 -0.8281 0.0603
vn 0.0159 0.9998 -0.0070
vn 0.0101 0.9997 0.0221
vn 0.0082 0.9999 0.0134
vn -0.4665 -0.8841 0.0281
vn -0.5484 -0.8351 0.0430
vn 0.0054 1.0000 0.0009
vn 0.0219 0.9991 -0.0368
vn 0.7985 0.4848 -0.3568
vn 0.2128 0.9390 0.2702
vn 0.2457 -0.8746 0.4180
vt 0.461625 0.274598
vt 0.009569 0.022808
vt 0.464637 0.027254
vt 0.274691 0.261802
vt 0.957340 0.421272
vt 0.229813 0.020882
vt 0.245252 0.018080
vt 0.346508 0.294626
vt 0.119398 0.004325
vt 0.355851 0.004325
vt 0.638108 0.846522
vt 0.951512 0.087572
vt 0.230140 0.326525
vt 0.114740 0.339984
vt 0.995675 0.226929
vt 0.004325 0.146667
vt 0.995675 0.004325
vt 0.230140 0.127231
vt 0.118230 0.129907
vt 0.464637 0.157020
vt 0.238789 0.144802
vt 0.924555 0.303276
vt 0.351110 0.151078
vt 0.638108 0.913292
vt 0.614981 0.898035
vt 0.953460 0.031139
vt 0.908932 0.421272
vt 0.461625 0.274598
vt 0.009569 0.022808
vt 0.464637 0.027254
vt 0.274691 0.261802
vt 0.957340 0.421272
vt 0.229813 0.020882
vt 0.245252 0.018080
vt 0.346508 0.294626
vt 0.119398 0.004325
vt 0.355851 0.004325
vt 0.638108 0.846522
vt 0.951512 0.087572
vt 0.230140 0.326525
vt 0.114740 0.339984
vt 0.995675 0.226929
vt 0.004325 0.146667
vt 0.995675 0.004325
vt 0.230140 0.127231
vt 0.118230 0.129907
vt 0.464637 0.157020
vt 0.238789 0.144802
vt 0.924555 0.303276
vt 0.351110 0.151078
vt 0.638108 0.913292
vt 0.614981 0.898035
vt 0.953460 0.031139
vt 0.908932 0.421272
s 1
usemtl Paper6x
f 13/20/1 1/1/2 5/8/3 15/23/4
f 12/19/5 6/9/6 4/6/7 11/18/8
f 10/16/9 12/19/5 9/14/10
f 15/23/4 14/21/11 4/7/12 6/10/13
f 2/2/14 6/9/6 12/19/5 10/16/9
f 9/14/10 12/19/5 11/18/8 8/13/15
f 5/8/3 3/4/16 14/21/11 15/23/4
f 2/3/17 13/20/1 15/23/4 6/10/13
f 17/25/18 7/11/18 16/24/18
f 10/17/19 9/15/19 7/12/19 17/26/19
f 14/22/20 3/5/20 18/27/20
f 31/47/21 33/50/22 23/35/23 19/28/24
f 30/46/25 29/45/26 22/33/27 24/36/28
f 28/43/29 27/41/30 30/46/25
f 33/50/22 24/37/31 22/34/32 32/48/33
f 20/29/34 28/43/29 30/46/25 24/36/28
f 27/41/30 26/40/35 29/45/26 30/46/25
f 23/35/23 33/50/22 32/48/33 21/31/36
f 20/30/37 24/37/31 33/50/22 31/47/21
f 35/52/38 34/51/38 25/38/38
f 28/44/39 35/53/39 25/39/39 27/42/39
f 32/49/40 36/54/40 21/32/40
o Paper_05_GEO
v 1.464730 0.010503 0.161821
v 1.674730 0.010503 0.101089
v 1.464730 0.070426 0.108059
v 1.674730 0.082223 0.085597
v 1.464730 0.000000 -0.000000
v 1.674730 0.000000 -0.000000
v 1.569730 -0.000849 0.161821
v 1.569730 0.045003 0.104362
v 1.569730 0.002404 -0.007476
v 1.464730 0.010503 0.161821
v 1.674730 0.010503 0.101089
v 1.464730 0.070426 0.108059
v 1.674730 0.082223 0.085597
v 1.464730 0.000000 -0.000000
v 1.674730 0.000000 -0.000000
v 1.569730 -0.000849 0.161821
v 1.569730 0.045003 0.104362
v 1.569730 0.002404 -0.007476
vn 0.1665 -0.8334 0.5269
vn -0.0493 0.9984 -0.0268
vn -0.0730 -0.8870 0.4559
vn 0.0418 0.9989 -0.0219
vn -0.1665 0.8334 -0.5269
vn 0.0493 -0.9984 0.0268
vn 0.0730 0.8870 -0.4559
vn -0.0418 -0.9989 0.0219
vt 0.722963 0.780885
vt 0.856280 0.868484
vt 0.848022 0.578799
vt 0.004325 0.575787
vt 0.845245 0.772236
vt 0.725936 0.915790
vt 0.015579 0.788226
vt 0.858501 0.781869
vt 0.980363 0.919709
vt 0.847631 0.783413
vt 0.137861 0.649617
vt 0.722963 0.633627
vt 0.137445 0.788226
vt 0.980363 0.780885
vt 0.723379 0.772236
vt 0.847631 0.922237
vt 0.722963 0.780885
vt 0.856280 0.868484
vt 0.848022 0.578799
vt 0.004325 0.575787
vt 0.845245 0.772236
vt 0.725936 0.915790
vt 0.015579 0.788226
vt 0.858501 0.781869
vt 0.980363 0.919709
vt 0.847631 0.783413
vt 0.137861 0.649617
vt 0.722963 0.633627
vt 0.137445 0.788226
vt 0.980363 0.780885
vt 0.723379 0.772236
vt 0.847631 0.922237
s 1
usemtl Paper6x
f 45/67/41 42/61/41 40/58/41 44/65/41
f 38/56/42 42/62/42 45/68/42 43/63/42
f 41/59/43 45/69/43 44/66/43 39/57/43
f 37/55/44 43/64/44 45/70/44 41/60/44
f 54/83/45 53/81/45 49/74/45 51/77/45
f 47/72/46 52/79/46 54/84/46 51/78/46
f 50/75/47 48/73/47 53/82/47 54/85/47
f 46/71/48 50/76/48 54/86/48 52/80/48
