# Blender 3.5.1
# www.blender.org
mtllib sampah1.mtl
o bag_15
v 7.011463 2.458534 0.103908
v 6.906651 2.458534 0.103908
v 6.959056 2.499467 0.260178
v 6.927791 2.327945 0.166949
v 6.990323 2.327945 0.166949
v 7.109240 1.826349 -0.187653
v 6.808873 1.826349 -0.187653
v 6.766627 1.520789 -0.313631
v 7.041890 2.327945 0.186061
v 7.097901 2.458534 0.135944
v 7.151488 1.520789 -0.313631
v 7.133706 2.458534 0.213286
v 7.356949 1.826349 -0.095846
v 7.063251 2.327945 0.232202
v 7.206322 1.288169 -0.477140
v 6.711793 1.288169 -0.477140
v 7.468879 1.520789 -0.195998
v 7.459553 1.826349 0.125796
v 7.600345 1.520789 0.087993
v 7.614153 1.288168 -0.325987
v 7.783083 1.288168 0.038929
v 7.224313 0.881146 -0.530790
v 6.693801 0.881146 -0.530790
v 7.661820 0.881146 -0.368638
v 7.176237 0.512132 -0.387430
v 6.741877 0.512132 -0.387430
v 7.534446 0.512132 -0.254668
v 6.959056 0.688833 0.260174
v 7.843042 0.881145 0.022830
v 7.682821 0.512131 0.065847
v 7.682821 0.512130 0.454500
v 7.783083 1.288167 0.481422
v 7.843042 0.881144 0.497519
v 7.534446 0.512130 0.775016
v 7.600345 1.520788 0.432358
v 7.614153 1.288166 0.846338
v 7.459553 1.826348 0.394557
v 7.468879 1.520787 0.716349
v 7.356949 1.826348 0.616199
v 7.063251 2.327945 0.288153
v 7.661820 0.881143 0.888987
v 7.224313 0.881143 1.051139
v 7.206322 1.288166 0.997491
v 7.176237 0.512130 0.907777
v 6.693801 0.881143 1.051139
v 6.741877 0.512130 0.907777
v 7.151488 1.520787 0.833983
v 6.711793 1.288166 0.997491
v 6.383668 0.512130 0.775016
v 6.256294 0.881143 0.888987
v 6.303960 1.288166 0.846338
v 6.075073 0.881144 0.497519
v 6.235293 0.512130 0.454500
v 6.235293 0.512131 0.065847
v 6.075073 0.881145 0.022830
v 6.383668 0.512132 -0.254668
v 6.256294 0.881146 -0.368638
v 6.303960 1.288168 -0.325987
v 6.135030 1.288167 0.481422
v 6.135030 1.288168 0.038929
v 6.449235 1.520789 -0.195998
v 6.449235 1.520787 0.716349
v 6.561165 1.826349 -0.095846
v 6.317770 1.520789 0.087993
v 6.317770 1.520788 0.432358
v 6.458560 1.826349 0.125796
v 6.766627 1.520787 0.833983
v 6.561165 1.826348 0.616199
v 6.458560 1.826348 0.394557
v 6.808873 1.826348 0.708006
v 7.109240 1.826348 0.708006
v 6.876224 2.327945 0.334294
v 6.927791 2.327945 0.353406
v 7.041890 2.327945 0.334294
v 6.990323 2.327945 0.353406
v 7.011463 2.458534 0.416447
v 6.906651 2.458534 0.416447
v 7.097901 2.458534 0.384411
v 7.133706 2.458534 0.307069
v 6.820214 2.458534 0.384411
v 6.784409 2.458534 0.307069
v 6.854864 2.327945 0.288153
v 6.854864 2.327945 0.232202
v 6.784409 2.458534 0.213286
v 6.820214 2.458534 0.135944
v 6.876224 2.327945 0.186061
vn 0.1729 0.1886 -0.9667
vn -0.1729 0.1886 -0.9667
vn -0.0000 1.0000 -0.0000
vn -0.1340 0.5202 -0.8434
vn 0.1340 0.5202 -0.8434
vn 0.1421 0.4894 -0.8604
vn -0.1421 0.4894 -0.8604
vn -0.1419 0.5046 -0.8516
vn 0.5424 0.5659 -0.6209
vn 0.6685 0.1654 -0.7251
vn 0.1419 0.5046 -0.8516
vn 0.9575 0.2040 -0.2041
vn 0.5655 0.5341 -0.6284
vn 0.8120 0.5597 -0.1656
vn 0.1577 0.3075 -0.9384
vn -0.1577 0.3075 -0.9384
vn 0.5530 0.5609 -0.6162
vn 0.8326 0.5263 -0.1728
vn 0.8171 0.5500 -0.1728
vn 0.6308 0.3312 -0.7017
vn 0.9227 0.3313 -0.1972
vn 0.1659 -0.1106 -0.9799
vn -0.1659 -0.1106 -0.9799
vn 0.6699 -0.1182 -0.7330
vn 0.0944 -0.8021 -0.5897
vn -0.0944 -0.8020 -0.5898
vn 0.4022 -0.7886 -0.4652
vn -0.0000 -1.0000 -0.0000
vn 0.9715 -0.1185 -0.2054
vn 0.5568 -0.8234 -0.1098
vn 0.5568 -0.8234 0.1098
vn 0.9227 0.3312 0.1972
vn 0.9715 -0.1185 0.2054
vn 0.4022 -0.7886 0.4652
vn 0.8171 0.5500 0.1728
vn 0.6308 0.3312 0.7017
vn 0.8326 0.5263 0.1728
vn 0.5530 0.5609 0.6162
vn 0.5655 0.5341 0.6284
vn 0.8120 0.5597 0.1656
vn 0.6699 -0.1182 0.7330
vn 0.1659 -0.1106 0.9799
vn 0.1577 0.3075 0.9384
vn 0.0944 -0.8021 0.5897
vn -0.1659 -0.1106 0.9799
vn -0.0944 -0.8020 0.5898
vn 0.1419 0.5046 0.8516
vn -0.1577 0.3075 0.9384
vn -0.4022 -0.7886 0.4652
vn -0.6699 -0.1182 0.7330
vn -0.6308 0.3312 0.7017
vn -0.9715 -0.1185 0.2054
vn -0.5568 -0.8234 0.1098
vn -0.5568 -0.8234 -0.1098
vn -0.9715 -0.1185 -0.2054
vn -0.4022 -0.7886 -0.4652
vn -0.6699 -0.1182 -0.7330
vn -0.6308 0.3312 -0.7017
vn -0.9227 0.3312 0.1972
vn -0.9227 0.3313 -0.1972
vn -0.5530 0.5609 -0.6162
vn -0.5530 0.5609 0.6162
vn -0.5655 0.5341 -0.6284
vn -0.8171 0.5500 -0.1728
vn -0.8171 0.5500 0.1728
vn -0.8326 0.5263 -0.1728
vn -0.1419 0.5046 0.8516
vn -0.5655 0.5341 0.6284
vn -0.8326 0.5263 0.1728
vn -0.1421 0.4894 0.8604
vn 0.1421 0.4894 0.8604
vn -0.5424 0.5659 0.6209
vn -0.1340 0.5202 0.8434
vn 0.5423 0.5659 0.6210
vn 0.1340 0.5202 0.8434
vn 0.1729 0.1886 0.9667
vn -0.1729 0.1886 0.9667
vn 0.6693 0.1654 0.7244
vn 0.9575 0.2041 0.2041
vn -0.6685 0.1654 0.7251
vn -0.9575 0.2041 0.2041
vn -0.8120 0.5597 0.1656
vn -0.8120 0.5597 -0.1656
vn -0.9575 0.2040 -0.2040
vn -0.6693 0.1654 -0.7244
vn -0.5423 0.5659 -0.6210
vt 0.875977 0.469727
vt 0.885742 0.473145
vt 0.813477 0.473145
vt 0.880859 0.486328
vt 0.843262 0.468750
vt 0.894043 0.457520
vt 0.800293 0.457520
vt 0.886230 0.451660
vt 0.932617 0.398438
vt 0.963379 0.415527
vt 0.730957 0.415527
vt 0.977051 0.375000
vt 0.715820 0.375488
vt 0.878906 0.446777
vt 0.869629 0.461426
vt 0.939453 0.369141
vt 0.863281 0.456543
vt 0.912109 0.388672
vt 0.871094 0.443359
vt 0.937988 0.347168
vt 0.983887 0.341309
vt 0.710938 0.340332
vt 0.914062 0.365723
vt 0.893555 0.385742
vt 0.895020 0.366211
vt 0.912109 0.349609
vt 0.893555 0.352051
vt 0.929199 0.320312
vt 0.973145 0.295898
vt 0.721680 0.295410
vt 0.906738 0.331543
vt 0.910645 0.299316
vt 0.931152 0.265625
vt 0.766113 0.266113
vt 0.898438 0.315918
vt 0.847168 0.285645
vt 0.890137 0.336426
vt 0.883789 0.322266
vt 0.870117 0.327148
vt 0.875977 0.354004
vt 0.873535 0.339844
vt 0.859375 0.330078
vt 0.876953 0.366211
vt 0.862305 0.354492
vt 0.875977 0.383789
vt 0.862305 0.365723
vt 0.861816 0.382324
vt 0.862793 0.440430
vt 0.861328 0.341797
vt 0.847656 0.341309
vt 0.847168 0.355469
vt 0.847656 0.327637
vt 0.830566 0.340332
vt 0.833496 0.326172
vt 0.846680 0.367188
vt 0.829102 0.354980
vt 0.819824 0.326660
vt 0.815430 0.338867
vt 0.812988 0.352539
vt 0.800781 0.334961
vt 0.807617 0.320801
vt 0.791992 0.311035
vt 0.780762 0.328125
vt 0.775391 0.296387
vt 0.758301 0.317383
vt 0.749512 0.343262
vt 0.796875 0.351074
vt 0.774414 0.348145
vt 0.748535 0.366211
vt 0.812012 0.365234
vt 0.754883 0.396973
vt 0.772949 0.365723
vt 0.794922 0.365234
vt 0.776367 0.390137
vt 0.828613 0.366699
vt 0.812500 0.383301
vt 0.796875 0.385742
vt 0.829102 0.384766
vt 0.846680 0.384277
vt 0.828125 0.440430
vt 0.836914 0.439453
vt 0.854980 0.438965
vt 0.846191 0.438965
vt 0.846191 0.451660
vt 0.838867 0.452148
vt 0.852051 0.451660
vt 0.856934 0.453125
vt 0.833008 0.452637
vt 0.828613 0.455078
vt 0.820801 0.443359
vt 0.812988 0.446777
vt 0.822754 0.458984
vt 0.817871 0.464355
vt 0.806152 0.451172
s 1
usemtl Vendy
f 1/1/1 2/2/2 3/4/3
f 1/1/1 4/6/4 2/2/2
f 4/6/4 1/1/1 5/8/5
f 6/9/6 4/6/4 5/8/5
f 7/10/7 4/6/4 6/9/6
f 6/9/6 8/12/8 7/10/7
f 5/8/5 1/1/1 9/14/9
f 9/14/9 6/9/6 5/8/5
f 1/1/1 10/15/10 9/14/9
f 10/15/10 1/1/1 3/5/3
f 8/12/8 6/9/6 11/16/11
f 12/17/12 9/14/9 10/15/10
f 12/17/12 10/15/10 3/5/3
f 6/9/6 9/14/9 13/18/13
f 13/18/13 11/16/11 6/9/6
f 9/14/9 12/17/12 14/19/14
f 15/20/15 8/12/8 11/16/11
f 15/20/15 16/21/16 8/12/8
f 11/16/11 13/18/13 17/23/17
f 17/23/17 15/20/15 11/16/11
f 13/18/13 9/14/9 18/24/18
f 18/24/18 9/14/9 14/19/14
f 13/18/13 19/25/19 17/23/17
f 19/25/19 13/18/13 18/24/18
f 15/20/15 17/23/17 20/26/20
f 21/27/21 17/23/17 19/25/19
f 21/27/21 20/26/20 17/23/17
f 22/28/22 16/21/16 15/20/15
f 20/26/20 22/28/22 15/20/15
f 23/29/23 16/21/16 22/28/22
f 22/28/22 20/26/20 24/31/24
f 25/32/25 23/29/23 22/28/22
f 23/29/23 25/32/25 26/33/26
f 22/28/22 24/31/24 27/35/27
f 27/35/27 25/32/25 22/28/22
f 26/33/26 25/32/25 28/36/28
f 25/32/25 27/35/27 28/36/28
f 20/26/20 29/37/29 24/31/24
f 29/37/29 27/35/27 24/31/24
f 29/37/29 20/26/20 21/27/21
f 27/35/27 29/37/29 30/38/30
f 27/35/27 30/38/30 28/36/28
f 29/37/29 31/39/31 30/38/30
f 30/38/30 31/39/31 28/36/28
f 32/40/32 29/37/29 21/27/21
f 31/39/31 29/37/29 33/41/33
f 29/37/29 32/40/32 33/41/33
f 34/42/34 31/39/31 33/41/33
f 31/39/31 34/42/34 28/36/28
f 21/27/21 35/43/35 32/40/32
f 35/43/35 21/27/21 19/25/19
f 18/24/18 35/43/35 19/25/19
f 36/44/36 33/41/33 32/40/32
f 35/43/35 18/24/18 37/45/37
f 14/19/14 37/45/37 18/24/18
f 38/46/38 32/40/32 35/43/35
f 32/40/32 38/46/38 36/44/36
f 39/47/39 35/43/35 37/45/37
f 35/43/35 39/47/39 38/46/38
f 37/45/37 14/19/14 40/48/40
f 33/41/33 36/44/36 41/49/41
f 41/49/41 34/42/34 33/41/33
f 36/44/36 42/50/42 41/49/41
f 42/50/42 34/42/34 41/49/41
f 43/51/43 36/44/36 38/46/38
f 36/44/36 43/51/43 42/50/42
f 34/42/34 42/50/42 44/52/44
f 34/42/34 44/52/44 28/36/28
f 45/53/45 44/52/44 42/50/42
f 43/51/43 45/53/45 42/50/42
f 44/52/44 46/54/46 28/36/28
f 44/52/44 45/53/45 46/54/46
f 38/46/38 47/55/47 43/51/43
f 47/55/47 38/46/38 39/47/39
f 48/56/48 45/53/45 43/51/43
f 47/55/47 48/56/48 43/51/43
f 45/53/45 49/57/49 46/54/46
f 46/54/46 49/57/49 28/36/28
f 45/53/45 50/58/50 49/57/49
f 45/53/45 51/59/51 50/58/50
f 51/59/51 45/53/45 48/56/48
f 52/60/52 49/57/49 50/58/50
f 51/59/51 52/60/52 50/58/50
f 49/57/49 53/61/53 28/36/28
f 49/57/49 52/60/52 53/61/53
f 53/61/53 54/62/54 28/36/28
f 55/63/55 53/61/53 52/60/52
f 53/61/53 55/63/55 54/62/54
f 54/62/54 56/64/56 28/36/28
f 54/62/54 55/63/55 56/64/56
f 56/64/56 26/34/26 28/36/28
f 56/64/56 23/30/23 26/34/26
f 23/30/23 56/64/56 57/65/57
f 55/63/55 57/65/57 56/64/56
f 23/30/23 57/65/57 58/66/58
f 55/63/55 58/66/58 57/65/57
f 23/30/23 58/66/58 16/22/16
f 52/60/52 59/67/59 55/63/55
f 52/60/52 51/59/51 59/67/59
f 58/66/58 55/63/55 60/68/60
f 59/67/59 60/68/60 55/63/55
f 16/22/16 58/66/58 61/69/61
f 60/68/60 61/69/61 58/66/58
f 61/69/61 8/13/8 16/22/16
f 62/70/62 59/67/59 51/59/51
f 48/56/48 62/70/62 51/59/51
f 8/13/8 61/69/61 63/71/63
f 8/13/8 63/71/63 7/11/7
f 61/69/61 60/68/60 64/72/64
f 64/72/64 63/71/63 61/69/61
f 60/68/60 59/67/59 65/73/65
f 65/73/65 64/72/64 60/68/60
f 59/67/59 62/70/62 65/73/65
f 63/71/63 64/72/64 66/74/66
f 62/70/62 48/56/48 67/75/67
f 47/55/47 67/75/67 48/56/48
f 68/76/68 65/73/65 62/70/62
f 67/75/67 68/76/68 62/70/62
f 65/73/65 69/77/69 64/72/64
f 65/73/65 68/76/68 69/77/69
f 69/77/69 66/74/66 64/72/64
f 68/76/68 67/75/67 70/78/70
f 71/79/71 67/75/67 47/55/47
f 70/78/70 67/75/67 71/79/71
f 39/47/39 71/79/71 47/55/47
f 70/78/70 72/80/72 68/76/68
f 72/80/72 69/77/69 68/76/68
f 71/79/71 73/81/73 70/78/70
f 72/80/72 70/78/70 73/81/73
f 39/47/39 74/82/74 71/79/71
f 37/45/37 74/82/74 39/47/39
f 74/82/74 37/45/37 40/48/40
f 73/81/73 71/79/71 75/83/75
f 75/83/75 71/79/71 74/82/74
f 76/84/76 73/81/73 75/83/75
f 74/82/74 76/84/76 75/83/75
f 73/81/73 76/84/76 77/85/77
f 72/80/72 73/81/73 77/85/77
f 76/84/76 74/82/74 78/86/78
f 40/48/40 79/87/79 74/82/74
f 78/86/78 74/82/74 79/87/79
f 14/19/14 79/87/79 40/48/40
f 79/87/79 14/19/14 12/17/12
f 79/87/79 12/17/12 3/5/3
f 78/86/78 79/87/79 3/5/3
f 76/84/76 78/86/78 3/5/3
f 77/85/77 76/84/76 3/5/3
f 80/88/80 72/80/72 77/85/77
f 80/88/80 77/85/77 3/5/3
f 81/89/81 72/80/72 80/88/80
f 81/89/81 80/88/80 3/5/3
f 72/80/72 81/89/81 82/90/82
f 82/90/82 69/77/69 72/80/72
f 83/91/83 69/77/69 82/90/82
f 81/89/81 83/91/83 82/90/82
f 69/77/69 83/91/83 66/74/66
f 84/92/84 81/89/81 3/5/3
f 83/91/83 81/89/81 84/92/84
f 85/93/85 84/92/84 3/5/3
f 2/3/2 85/93/85 3/5/3
f 83/91/83 84/92/84 86/94/86
f 85/93/85 86/94/86 84/92/84
f 86/94/86 66/74/66 83/91/83
f 2/3/2 86/94/86 85/93/85
f 66/74/66 86/94/86 63/71/63
f 86/94/86 2/3/2 4/7/4
f 63/71/63 86/94/86 7/11/7
f 4/7/4 7/11/7 86/94/86
