# Blender 3.5.1
# www.blender.org
mtllib tong_sampah_besar.mtl
o Dumpster_21
v 6.504780 0.577790 -0.464062
v 6.504780 0.577801 -5.796094
v 9.424598 0.577790 -0.464062
v 9.424598 0.577801 -5.796094
v 9.424598 2.631754 -0.216195
v 6.504780 2.631754 -0.216195
v 6.504780 2.185880 -0.216196
v 9.424598 2.185880 -0.216196
v 9.424598 2.185892 -6.043955
v 6.504780 2.185892 -6.043955
v 6.504780 2.631766 -6.043954
v 9.424598 2.631766 -6.043954
v 9.424598 2.185881 -0.464059
v 6.504780 2.185881 -0.464059
v 6.504780 2.185891 -5.796091
v 9.424598 2.185891 -5.796091
v 9.424598 2.631754 -0.464058
v 6.504780 2.631754 -0.464058
v 6.504780 2.631766 -5.796090
v 9.424598 2.631766 -5.796090
v 9.522236 3.480714 -0.388512
v 6.573517 3.906612 -0.554885
v 6.407143 3.931077 -0.388511
v 9.355863 3.508666 -0.554886
v 9.522236 3.480725 -5.871633
v 9.355863 3.508676 -5.705259
v 6.407143 3.931087 -5.871632
v 6.573517 3.906622 -5.705258
v 6.407143 3.612133 -0.388511
v 9.522236 3.161770 -0.388512
v 6.504780 3.579350 -0.464056
v 9.424598 3.128987 -0.464057
v 6.629326 4.077034 -5.649448
v 9.300053 3.679087 -5.649449
v 6.573517 4.006455 -5.705258
v 9.355863 3.608508 -5.705259
v 6.573517 4.006445 -0.554885
v 9.300053 3.679077 -0.610696
v 6.629326 4.077024 -0.610695
v 9.355863 3.608498 -0.554886
v 6.407143 3.612144 -5.871633
v 9.522236 3.161781 -5.871634
v 9.424598 3.128998 -5.796089
v 6.504780 3.579361 -5.796088
v 6.838626 4.088697 -0.745432
v 9.165316 3.708313 -0.745433
v 9.165316 3.708322 -5.514712
v 6.838626 4.088706 -5.514711
vn -0.0000 -1.0000 -0.0000
vn -0.0000 -0.0000 1.0000
vn -0.0000 -0.0000 -1.0000
vn -0.0000 1.0000 -0.0000
vn 0.1580 0.9874 -0.0000
vn 0.1414 0.9900 -0.0000
vn 0.1415 0.9899 -0.0000
vn -0.0157 -0.0863 0.9961
vn -0.0158 -0.1182 0.9929
vn -0.0236 -0.1733 0.9846
vn -0.0236 -0.1414 0.9897
vn 0.0869 0.6165 -0.7825
vn 0.0393 0.2684 -0.9625
vn 0.0316 0.2051 -0.9782
vn 0.0394 0.2683 0.9625
vn 0.0869 0.6165 0.7825
vn 0.0316 0.2051 0.9782
vn -0.9715 0.2370 -0.0000
vn -1.0000 -0.0000 -0.0000
vn -0.7844 0.6202 -0.0000
vn -0.7847 0.6199 -0.0000
vn -0.0157 -0.0863 -0.9961
vn -0.0158 -0.1182 -0.9929
vn -0.0236 -0.1414 -0.9897
vn -0.0236 -0.1733 -0.9846
vn 1.0000 -0.0000 -0.0000
vn 0.9862 -0.1657 -0.0000
vn 0.9697 -0.2444 -0.0000
vn -0.9862 -0.1657 -0.0000
vn -0.9899 -0.1414 -0.0000
vn -0.9900 -0.1414 -0.0000
vn 0.9715 0.2370 -0.0000
vn 0.7846 0.6200 -0.0000
vn 0.7848 0.6197 -0.0000
vn 0.1499 0.9704 0.1894
vn 0.1499 0.9704 0.1893
vn 0.1414 0.9899 0.0078
vn 0.1657 0.9862 0.0079
vn 0.1657 0.9862 -0.0079
vn 0.2127 0.9771 -0.0000
vn 0.2128 0.9771 -0.0000
vn 0.1414 0.9899 -0.0079
vn -0.0550 0.9985 -0.0000
vn 0.1499 0.9704 -0.1893
vn 0.1499 0.9704 -0.1894
vt 0.451172 0.066406
vt 0.766602 0.255859
vt 0.433838 0.017090
vt 0.451172 0.033691
vt 0.766602 0.255371
vt 0.025528 0.017090
vt 0.472168 0.066406
vt 0.791016 0.011719
vt 0.027130 0.015137
vt 0.472168 0.033691
vt 0.791016 0.011719
vt 0.435303 0.015137
vt 0.600098 0.012207
vt 0.008156 0.172363
vt 0.573242 0.255371
vt 0.452881 0.174316
vt 0.610840 0.255859
vt 0.452881 0.140625
vt 0.637207 0.012207
vt 0.008156 0.138184
vt 0.637207 0.012207
vt 0.454346 0.138184
vt 0.610840 0.255859
vt 0.006546 0.140625
vt 0.573242 0.255371
vt 0.006546 0.174316
vt 0.600098 0.012207
vt 0.454346 0.172363
vt 0.657715 0.012207
vt 0.027130 0.138184
vt 0.631348 0.255859
vt 0.433838 0.140625
vt 0.631348 0.255859
vt 0.025528 0.140625
vt 0.657715 0.012207
vt 0.435303 0.138184
vt 0.579102 0.012207
vt 0.027130 0.172363
vt 0.552734 0.255371
vt 0.433838 0.174316
vt 0.552734 0.255371
vt 0.025528 0.174316
vt 0.579102 0.011719
vt 0.435303 0.172363
vt 0.503906 0.002930
vt 0.021347 0.242676
vt 0.454590 0.247070
vt 0.426758 0.252930
vt 0.022949 0.436523
vt 0.466309 0.263184
vt 0.439697 0.239746
vt 0.488281 0.015137
vt 0.034088 0.255859
vt 0.022369 0.266113
vt 0.503906 0.002930
vt 0.441162 0.242676
vt 0.428467 0.255859
vt 0.488281 0.015137
vt 0.313965 0.266113
vt 0.466309 0.263184
vt 0.019745 0.239746
vt 0.454590 0.247070
vt 0.032471 0.252930
vt 0.313477 0.436523
vt 0.492676 0.263184
vt 0.439697 0.215332
vt 0.530762 0.003418
vt 0.021347 0.218262
vt 0.500488 0.255859
vt 0.433838 0.207520
vt 0.537109 0.011719
vt 0.027130 0.210449
vt 0.307617 0.428711
vt 0.308350 0.274902
vt 0.311279 0.433105
vt 0.312012 0.270508
vt 0.024994 0.433105
vt 0.028122 0.274902
vt 0.028839 0.428711
vt 0.024429 0.270508
vt 0.492920 0.263184
vt 0.019745 0.215332
vt 0.530762 0.002930
vt 0.441162 0.218262
vt 0.537109 0.011719
vt 0.435303 0.210449
vt 0.500488 0.255859
vt 0.025528 0.207520
vt 0.036407 0.416992
vt 0.035645 0.282715
vt 0.300781 0.282715
vt 0.300049 0.416992
s 1
usemtl Vendy
f 1/1/1 2/4/1 3/7/1
f 3/7/1 2/4/1 4/10/1
f 5/13/2 6/15/2 7/17/2
f 5/13/2 7/17/2 8/19/2
f 9/21/3 10/23/3 11/25/3
f 9/21/3 11/25/3 12/27/3
f 13/29/2 14/31/2 1/2/2
f 13/29/2 1/2/2 3/8/2
f 4/11/3 2/5/3 15/33/3
f 4/11/3 15/33/3 16/35/3
f 8/19/1 7/17/1 14/31/1
f 8/19/1 14/31/1 13/29/1
f 6/15/4 5/13/4 17/37/4
f 6/15/4 17/37/4 18/39/4
f 19/41/4 20/43/4 12/27/4
f 19/41/4 12/27/4 11/25/4
f 10/23/1 16/35/1 15/33/1
f 16/35/1 10/23/1 9/21/1
f 21/45/5 22/47/6 23/50/7
f 22/47/6 21/45/5 24/52/5
f 25/56/5 24/53/5 21/46/5
f 24/53/5 25/56/5 26/57/5
f 25/55/5 27/60/6 28/62/6
f 25/55/5 28/62/6 26/58/5
f 27/61/6 23/51/7 22/48/6
f 27/61/6 22/48/6 28/63/6
f 21/45/2 23/50/2 29/65/8
f 21/45/2 29/65/8 30/67/9
f 30/67/9 29/65/8 31/69/10
f 30/67/9 31/69/10 32/71/11
f 32/71/11 31/69/10 18/39/2
f 32/71/11 18/39/2 17/37/2
f 33/73/12 34/74/12 35/75/13
f 36/76/14 35/75/13 34/74/12
f 36/76/14 28/64/3 35/75/13
f 28/64/3 36/76/14 26/59/3
f 37/77/15 38/78/16 39/79/16
f 38/78/16 37/77/15 40/80/17
f 40/80/17 37/77/15 22/49/2
f 40/80/17 22/49/2 24/54/2
f 37/77/18 28/64/19 22/49/19
f 28/64/19 37/77/18 35/75/18
f 39/79/20 35/75/18 37/77/18
f 35/75/18 39/79/20 33/73/21
f 25/55/3 41/81/22 27/60/3
f 41/81/22 25/55/3 42/83/23
f 41/81/22 42/83/23 43/85/24
f 41/81/22 43/85/24 44/87/25
f 43/85/24 19/41/3 44/87/25
f 19/41/3 43/85/24 20/43/3
f 21/46/26 42/84/27 25/56/26
f 42/84/27 21/46/26 30/68/27
f 42/84/27 30/68/27 32/72/28
f 42/84/27 32/72/28 43/86/28
f 32/72/28 20/44/26 43/86/28
f 20/44/26 32/72/28 17/38/26
f 20/44/26 9/22/26 12/28/26
f 9/22/26 20/44/26 16/36/26
f 17/38/26 16/36/26 20/44/26
f 3/9/26 4/12/26 16/36/26
f 16/36/26 13/30/26 3/9/26
f 16/36/26 17/38/26 13/30/26
f 5/14/26 13/30/26 17/38/26
f 5/14/26 8/20/26 13/30/26
f 41/82/29 23/51/19 27/61/19
f 23/51/19 41/82/29 29/66/29
f 41/82/29 31/70/30 29/66/29
f 31/70/30 41/82/29 44/88/31
f 19/42/19 31/70/30 44/88/31
f 31/70/30 19/42/19 18/40/19
f 7/18/19 6/16/19 18/40/19
f 7/18/19 18/40/19 14/32/19
f 15/34/19 18/40/19 19/42/19
f 18/40/19 15/34/19 14/32/19
f 15/34/19 19/42/19 11/26/19
f 15/34/19 11/26/19 10/24/19
f 2/6/19 14/32/19 15/34/19
f 14/32/19 2/6/19 1/3/19
f 24/54/26 26/59/26 36/76/32
f 36/76/32 40/80/32 24/54/26
f 40/80/32 36/76/32 38/78/33
f 38/78/33 36/76/32 34/74/34
f 39/79/35 38/78/36 45/89/37
f 45/89/37 38/78/36 46/90/38
f 46/90/38 47/91/39 45/89/37
f 38/78/40 47/91/39 46/90/38
f 47/91/39 38/78/40 34/74/41
f 45/89/37 47/91/39 48/92/42
f 48/92/42 39/79/43 45/89/37
f 33/73/43 39/79/43 48/92/42
f 34/74/44 48/92/42 47/91/39
f 48/92/42 34/74/44 33/73/45
