# Blender 3.5.1
# www.blender.org
mtllib belakang1.mtl
o Shop_Low_5
v 6.237809 0.506163 -6.884442
v 6.191947 0.524839 -6.884696
v 6.270644 0.515500 -6.863315
v 6.328188 0.508670 -6.805530
v -4.176758 6.259741 3.495660
v -4.176758 2.092792 -3.497093
v -4.176758 2.092778 3.495652
v -4.176758 6.259755 -3.497085
v 5.825191 0.568130 -7.003229
v 2.934152 6.504773 -7.024804
v 5.825193 6.504769 -7.026672
v 2.934154 0.567770 -7.020715
v -2.788572 0.701466 1.322095
v -2.788572 7.309665 1.322108
v 4.680171 7.309665 1.322108
v 4.680171 0.701466 1.322095
v 5.824877 6.505040 -6.909673
v 5.824875 0.568401 -6.886230
v 2.933837 0.568042 -6.903716
v 2.933836 6.505044 -6.907804
v 0.961550 7.309665 1.322108
v 0.961550 0.701466 1.322095
v -4.347168 6.259755 -3.497085
v -4.347168 2.092792 -3.497093
v -4.427487 6.293024 -3.530354
v -4.427487 2.059522 -3.530363
v 6.349241 0.505561 3.801771
v 0.963123 0.505564 1.844513
v 6.349241 0.506166 -3.748158
v 0.963123 0.505869 -1.831529
v -4.460757 0.505561 3.764649
v -4.460757 0.505575 -3.766096
v 0.963123 0.505730 -6.903469
v -4.303073 0.505586 -6.909809
v -4.460757 0.505581 -6.752315
v 6.349241 0.506172 -6.726743
v -4.381900 0.505583 -6.888772
v -4.439625 0.505582 -6.831117
v -4.347168 2.092778 3.495652
v -4.427487 2.059509 3.528921
v -4.347168 6.259741 3.495660
v -4.427487 6.293010 3.528929
v -4.381962 7.505581 -6.888873
v -4.303168 7.505581 -6.909985
v 0.963123 7.505581 -6.909985
v 6.191652 7.505580 -6.909985
v 6.270447 7.505581 -6.888873
v -4.439644 7.505581 -6.831191
v -4.460757 7.505581 -6.752397
v -4.460757 7.505575 -3.766083
v -4.460757 7.505561 3.764662
v -4.460757 1.979203 -3.610682
v -4.460757 6.373343 -3.610673
v -4.460757 1.979189 3.609240
v -4.460757 6.373329 3.609248
v 6.328128 7.505581 -6.831191
v 6.349241 7.505581 -6.752396
v 6.349241 7.505576 -3.801395
v 6.349241 7.505560 3.801785
vn 0.2675 0.6532 -0.7083
vn 0.2676 0.6532 -0.7083
vn 0.5581 -0.5503 -0.6210
vn -1.0000 -0.0000 -0.0000
vn -0.0000 -0.0000 -1.0000
vn 1.0000 -0.0000 -0.0000
vn -0.0000 -1.0000 0.0009
vn -0.0000 -1.0000 -0.0000
vn -1.0000 -0.0000 0.0003
vn -0.0000 1.0000 -0.0000
vn -0.0000 -0.0000 1.0000
vn -0.1491 -0.0000 0.9888
vn -0.3863 -0.0000 0.9224
vn -0.0000 -1.0000 -0.0001
vn 0.0001 -1.0000 -0.0000
vn 0.0706 -0.9964 -0.0471
vn -0.1491 0.9888 -0.0000
vn -0.3863 0.9224 -0.0000
vn -0.1491 -0.0000 -0.9888
vn -0.3863 -0.0000 -0.9224
vn -0.1491 -0.9888 -0.0000
vn -0.3863 -0.9224 -0.0000
vn -0.2591 -0.0000 -0.9659
vn -0.2588 -0.0000 -0.9659
vn -0.0000 -0.0003 -1.0000
vn -0.0000 -0.0001 -1.0000
vn 0.0079 -0.0707 -0.9975
vn 0.0079 -0.0158 -0.9998
vn 0.0550 -0.0157 -0.9984
vn 0.0236 -0.0000 -0.9997
vn 0.5028 -0.0001 -0.8644
vn 0.5180 -0.0000 -0.8554
vn -0.7071 -0.0000 -0.7071
vn -0.8643 -0.0000 -0.5029
vn -0.7070 -0.0000 -0.7072
vn -0.9659 -0.0000 -0.2590
vn -1.0000 -0.0000 -0.0079
vn -0.9999 0.0079 0.0079
vn -0.9224 -0.0000 0.3863
vn -0.9999 -0.0079 0.0079
vn -0.9999 0.0078 -0.0079
vn -0.9224 0.3863 -0.0000
vn -0.9224 -0.0000 -0.3863
vn -0.9999 -0.0078 -0.0079
vn -0.9224 -0.3863 -0.0000
vn -0.9224 -0.3862 -0.0000
vn 0.8677 -0.0000 -0.4970
vn 0.8730 -0.0000 -0.4876
vn 1.0000 -0.0005 -0.0079
vn 1.0000 -0.0000 -0.0079
vt 0.464355 0.574463
vt 0.008316 0.222656
vt 0.009552 0.223145
vt 0.464355 0.574463
vt 0.007355 0.222656
vt 0.668457 0.228516
vt 0.464355 0.574463
vt 0.666016 0.228027
vt 0.579102 0.163574
vt 0.400635 0.057129
vt 0.579102 0.057129
vt 0.400391 0.163574
vt 0.029190 0.231445
vt 0.091309 0.372070
vt 0.029190 0.372070
vt 0.091309 0.231445
vt 0.075745 0.032227
vt 0.075745 0.184082
vt 0.227295 0.184082
vt 0.227295 0.032227
vt 0.027466 0.373047
vt 0.019363 0.384766
vt 0.027466 0.230469
vt 0.019470 0.224121
vt 0.093018 0.230469
vt 0.097534 0.224121
vt 0.093018 0.373047
vt 0.097412 0.384766
vt 0.151855 0.184082
vt 0.151855 0.032227
vt 0.398682 0.166504
vt 0.398926 0.054688
vt 0.397217 0.167969
vt 0.397461 0.052734
vt 0.464355 0.588379
vt 0.387695 0.227539
vt 0.457275 0.585938
vt 0.464355 0.578613
vt 0.585938 0.228027
vt 0.457275 0.581055
vt 0.450195 0.588379
vt 0.588867 0.010254
vt 0.450195 0.578369
vt 0.391113 0.010254
vt 0.457275 0.574463
vt 0.150757 0.222656
vt 0.450439 0.574219
vt 0.292969 0.222656
vt 0.450195 0.574463
vt 0.309814 0.010742
vt 0.464355 0.574463
vt 0.664062 0.228027
vt 0.450195 0.574219
vt 0.295166 0.222656
vt 0.305420 0.010742
vt 0.450195 0.574463
vt 0.307617 0.010742
vt 0.581055 0.054688
vt 0.582031 0.052734
vt 0.581055 0.166016
vt 0.582520 0.167969
vt 0.294922 0.412109
vt 0.305420 0.201172
vt 0.292725 0.412109
vt 0.150513 0.411621
vt 0.009438 0.411621
vt 0.007233 0.411621
vt 0.668945 0.411621
vt 0.307617 0.201172
vt 0.309814 0.201172
vt 0.390625 0.201172
vt 0.588867 0.201172
vt 0.395264 0.050293
vt 0.395020 0.170410
vt 0.584473 0.050293
vt 0.584473 0.170410
vt 0.666504 0.411621
vt 0.664551 0.411621
vt 0.587402 0.411621
vt 0.387695 0.411621
s 1
usemtl Shop.001
f 1/2/1 2/3/2 3/5/2
f 1/1/3 3/4/3 4/7/3
f 5/9/4 6/10/4 7/11/4
f 6/10/4 5/9/4 8/12/4
f 9/13/5 10/14/5 11/15/5
f 10/14/5 9/13/5 12/16/5
f 17/21/6 18/23/6 9/13/6
f 17/21/6 9/13/6 11/15/6
f 19/25/7 9/13/7 18/23/8
f 9/13/7 19/25/7 12/16/8
f 10/14/9 19/25/4 20/27/4
f 19/25/4 10/14/9 12/16/4
f 17/21/10 10/14/10 20/27/10
f 10/14/10 17/21/10 11/15/10
f 16/20/11 15/19/11 21/29/11
f 21/29/11 22/30/11 16/20/11
f 14/18/11 22/30/11 21/29/11
f 22/30/11 14/18/11 13/17/11
f 6/10/11 8/12/11 23/31/12
f 23/31/12 24/32/12 6/10/11
f 25/33/13 24/32/12 23/31/12
f 24/32/12 25/33/13 26/34/13
f 27/35/14 28/37/14 29/38/15
f 28/37/14 30/40/8 29/38/15
f 31/41/8 30/40/8 28/37/14
f 30/40/8 31/41/8 32/43/8
f 30/40/8 32/43/8 33/45/15
f 33/45/15 29/38/15 30/40/8
f 32/43/8 34/47/8 33/45/15
f 1/1/8 29/38/15 33/45/15
f 35/49/8 34/47/8 32/43/8
f 29/38/15 1/1/8 36/51/8
f 1/1/8 4/7/16 36/51/8
f 35/49/8 37/53/8 34/47/8
f 37/53/8 35/49/8 38/56/8
f 24/32/17 7/11/10 6/10/10
f 7/11/10 24/32/17 39/58/17
f 24/32/17 40/59/18 39/58/17
f 26/34/18 40/59/18 24/32/17
f 5/9/5 7/11/5 39/58/19
f 39/58/19 41/60/19 5/9/5
f 39/58/19 42/61/20 41/60/19
f 40/59/20 42/61/20 39/58/19
f 8/12/8 5/9/8 41/60/21
f 41/60/21 23/31/21 8/12/8
f 41/60/21 25/33/22 23/31/21
f 42/61/22 25/33/22 41/60/21
f 37/54/23 43/62/24 34/48/5
f 34/48/5 43/62/24 44/64/25
f 44/64/25 33/46/5 34/48/5
f 33/46/5 44/64/25 45/65/26
f 33/46/5 45/65/26 20/28/5
f 20/28/5 19/26/5 33/46/5
f 19/26/5 1/2/27 33/46/5
f 1/2/27 19/26/5 18/24/28
f 1/2/27 18/24/28 2/3/29
f 17/22/5 2/3/29 18/24/28
f 46/66/30 20/28/5 45/65/26
f 20/28/5 46/66/30 17/22/5
f 46/66/30 2/3/29 17/22/5
f 47/67/31 2/3/29 46/66/30
f 2/3/29 47/67/31 3/5/32
f 37/55/33 48/69/34 43/63/33
f 38/57/35 48/69/34 37/55/33
f 38/57/36 49/70/37 48/69/34
f 49/70/37 38/57/36 35/50/37
f 35/50/37 50/71/4 49/70/37
f 50/71/4 35/50/37 32/44/4
f 52/73/38 50/71/4 32/44/4
f 25/33/39 52/73/38 26/34/39
f 52/73/38 25/33/39 53/74/40
f 50/71/4 52/73/38 53/74/40
f 32/44/4 54/75/41 52/73/38
f 52/73/38 54/75/41 26/34/42
f 26/34/42 54/75/41 40/59/42
f 54/75/41 32/44/4 31/42/4
f 51/72/4 54/75/41 31/42/4
f 54/75/41 42/61/43 40/59/43
f 42/61/43 54/75/41 55/76/44
f 54/75/41 51/72/4 55/76/44
f 55/76/44 50/71/4 53/74/40
f 50/71/4 55/76/44 51/72/4
f 25/33/45 55/76/44 53/74/40
f 55/76/44 25/33/45 42/61/46
f 56/77/47 3/6/32 47/68/31
f 3/6/32 56/77/47 4/8/48
f 57/78/49 4/8/48 56/77/47
f 4/8/48 57/78/49 36/52/50
f 58/79/6 36/52/50 57/78/49
f 58/79/6 29/39/6 36/52/50
f 59/80/6 29/39/6 58/79/6
f 29/39/6 59/80/6 27/36/6
