# Blender 3.5.1
# www.blender.org
mtllib kerangka.mtl
o Signsplus_2
v -4.880207 8.793062 -6.980398
v -3.555678 8.959055 -3.953378
v -3.450945 8.848349 -4.001570
v -4.984937 8.903769 -6.932198
v -3.741966 8.841846 -3.861814
v -5.021619 8.628415 -6.909486
v -3.592352 8.683701 -3.930662
v -5.171230 8.786560 -6.840632
v -3.642974 8.957107 -3.911449
v -5.072244 8.901819 -6.890274
v 5.483140 8.945735 -3.913313
v 7.046873 8.810250 -6.825566
v 6.942004 8.918812 -6.878150
v 5.588005 8.837174 -3.860734
v 6.907110 8.642679 -6.892810
v 5.298440 8.824683 -4.003103
v 6.757307 8.797760 -6.967933
v 5.448240 8.669602 -3.927984
v 5.396276 8.941990 -3.956025
v 6.855144 8.915066 -6.920853
v 7.030497 8.801225 6.842107
v 5.630986 8.848642 3.849049
v 5.524626 8.956293 3.900489
v 6.924136 8.908875 6.893545
v 6.738212 8.786263 6.978541
v 5.338701 8.833680 3.985484
v 6.890148 8.632482 6.905059
v 5.490638 8.679899 3.912003
v 5.436947 8.951807 3.941416
v 6.836459 8.904389 6.934473
v -4.920055 8.801225 7.003647
v -3.548494 8.956293 3.997060
v -5.026402 8.908875 6.952189
v -3.442143 8.848642 4.048519
v -3.578619 8.679899 3.977560
v -5.056527 8.632482 6.932690
v -3.730546 8.833680 3.904049
v -5.208452 8.786263 6.859179
v -5.112917 8.904389 6.908853
v -3.635010 8.951807 3.953721
v 5.660338 12.114021 4.117802
v 5.660338 8.809593 4.117795
v 5.660338 8.809593 3.957958
v 5.660338 12.114021 3.957964
v 5.432010 12.114021 3.957964
v 5.432010 8.809593 3.957958
v 5.432010 12.114020 4.186294
v 5.432010 8.809592 4.186287
v 5.591847 12.114020 4.186294
v 5.591847 8.809592 4.186287
v 5.750924 9.856214 1.140441
v 5.644353 9.856217 -1.151867
v 5.644353 9.856214 1.140441
v 5.750924 9.856217 -1.151867
v 5.750924 11.015907 -1.151865
v 5.644353 11.015907 -1.151865
v 5.750924 11.015903 1.140444
v 5.644353 11.015903 1.140444
v 5.730917 9.753372 1.214345
v 5.730918 9.753377 -1.225770
v 5.752653 9.774450 1.190945
v 5.752653 9.774453 -1.202372
v 5.730917 11.118751 -1.225767
v 5.752653 11.097672 -1.202368
v 5.752653 11.097669 1.190949
v 5.730918 11.118746 1.214347
v 5.642179 9.753377 -1.225770
v 5.642179 11.118751 -1.225767
v 5.642179 11.118746 1.214347
v 5.642179 9.753372 1.214345
v -3.878097 9.856217 -1.151866
v -3.878097 9.856214 1.140442
v -3.771527 9.856214 1.140442
v -3.771527 9.856217 -1.151866
v -3.771527 11.015903 1.140444
v -3.878097 11.015903 1.140444
v -3.771527 11.015907 -1.151864
v -3.878097 11.015907 -1.151864
v -3.879825 9.774454 -1.202370
v -3.858091 9.753372 1.214345
v -3.879825 9.774449 1.190947
v -3.858090 9.753377 -1.225770
v -3.858090 11.118746 1.214347
v -3.879825 11.097668 1.190948
v -3.858091 11.118751 -1.225767
v -3.879825 11.097672 -1.202369
v -3.769352 9.753372 1.214345
v -3.769352 11.118746 1.214347
v -3.769352 11.118751 -1.225767
v -3.769352 9.753377 -1.225770
v -4.532098 2.012538 -3.578777
v -4.532098 2.012524 3.567323
v -4.173825 2.012524 3.567323
v -4.173825 2.012538 -3.578777
v -4.173825 6.385223 3.567332
v -4.532098 6.385223 3.567332
v -4.173825 6.385237 -3.578768
v -4.532098 6.385237 -3.578768
v -4.537910 1.704243 -3.736219
v -4.464842 1.624752 3.797709
v -4.537910 1.704224 3.724769
v -4.464839 1.624767 -3.809165
v -4.537910 6.693519 3.724774
v -4.464839 6.772995 3.797719
v -4.537910 6.693539 -3.736213
v -4.464842 6.773010 -3.809155
v -4.166514 1.624752 3.797709
v -4.166514 6.772995 3.797719
v -4.166514 6.773010 -3.809155
v -4.166514 1.624767 -3.809165
v 5.449416 8.803940 -4.217043
v 5.609253 12.164882 -4.217037
v 5.609253 8.803940 -4.217043
v 5.449416 12.164882 -4.217037
v 5.449416 12.164881 -3.988708
v 5.449416 8.803939 -3.988715
v 5.677744 12.164881 -3.988708
v 5.677744 8.803939 -3.988715
v 5.677744 8.803939 -4.148552
v 5.677744 12.164881 -4.148545
v -3.797598 8.759295 -3.968475
v -3.797598 12.182212 -3.968468
v -3.797598 12.182212 -4.128305
v -3.797598 8.759295 -4.128312
v -3.569269 8.759295 -3.968475
v -3.569269 12.182213 -4.196797
v -3.569269 12.182212 -3.968468
v -3.569269 8.759296 -4.196804
v -3.729106 8.759296 -4.196804
v -3.729106 12.182213 -4.196797
v -3.568893 8.732894 4.195752
v -3.568893 12.120995 4.195758
v -3.728730 12.120995 4.195758
v -3.728730 8.732894 4.195752
v -3.797222 8.732895 3.967422
v -3.797222 12.120996 3.967429
v -3.568893 8.732895 3.967422
v -3.568893 12.120996 3.967429
v -3.797222 12.120996 4.127266
v -3.797222 8.732895 4.127260
v 6.454305 0.524084 6.774486
v 6.454305 8.702362 6.934340
v 6.454305 0.524084 6.934323
v 6.454305 8.702362 6.774502
v 6.225976 8.702362 6.774502
v 6.225976 0.524084 6.774486
v 6.225976 8.702362 7.002831
v 6.225976 0.524084 7.002815
v 6.385813 8.702362 7.002831
v 6.385813 0.524084 7.002815
v 6.225976 0.524111 -6.952946
v 6.385813 8.702389 -6.952929
v 6.385813 0.524111 -6.952946
v 6.225976 8.702389 -6.952929
v 6.225976 0.524111 -6.724617
v 6.454305 8.702389 -6.724601
v 6.225976 8.702389 -6.724601
v 6.454305 0.524111 -6.724617
v 6.454305 0.524111 -6.884454
v 6.454305 8.702389 -6.884438
v -4.536336 8.702389 -6.731235
v -4.536336 8.702389 -6.891072
v -4.308007 8.702389 -6.959564
v -4.308007 8.702389 -6.731235
v -4.467844 8.702389 -6.959564
v -4.467844 0.524111 -6.959580
v -4.313228 0.524084 7.002815
v -4.313228 8.702362 7.002831
v -4.473065 8.702362 7.002831
v -4.473065 0.524084 7.002815
v -4.541557 0.524084 6.774486
v -4.541557 8.702362 6.774502
v -4.313228 0.524084 6.774486
v -4.313228 8.702362 6.774502
v -4.541557 8.702362 6.934340
v -4.541557 0.524084 6.934323
v 6.352459 3.026341 6.919984
vn 0.6202 0.7222 -0.3062
vn -0.6202 -0.7222 0.3062
vn -0.6202 -0.7222 0.3063
vn 0.6546 -0.6940 -0.2997
vn 0.6552 -0.6926 -0.3015
vn -0.6546 0.6939 0.2998
vn -0.6546 0.6940 0.2997
vn -0.6546 0.6940 0.2998
vn -0.0236 0.9997 -0.0079
vn 0.6147 0.7329 0.2915
vn 0.6146 0.7329 0.2916
vn 0.6147 0.7329 0.2916
vn -0.6147 -0.7329 -0.2916
vn 0.6551 -0.6788 0.3316
vn 0.6558 -0.6791 0.3296
vn 0.6552 -0.6788 0.3315
vn 0.6552 -0.6789 0.3315
vn -0.6552 0.6789 -0.3315
vn -0.6552 0.6788 -0.3315
vn -0.0314 0.9992 -0.0238
vn -0.0315 0.9992 -0.0236
vn -0.0311 0.9992 -0.0244
vn -0.0314 0.9992 -0.0237
vn 0.6139 0.7398 -0.2755
vn 0.6139 0.7397 -0.2755
vn 0.6147 0.7390 -0.2757
vn -0.6139 -0.7397 0.2755
vn -0.6138 -0.7399 0.2754
vn -0.6138 -0.7398 0.2754
vn 0.6657 -0.6736 -0.3211
vn 0.6654 -0.6735 -0.3218
vn 0.6658 -0.6736 -0.3210
vn -0.6658 0.6736 0.3210
vn -0.6657 0.6736 0.3212
vn -0.6654 0.6735 0.3218
vn -0.0393 0.9987 0.0314
vn -0.0393 0.9987 0.0315
vn 0.5984 0.7401 0.3070
vn 0.5983 0.7401 0.3071
vn -0.5984 -0.7401 -0.3070
vn 0.6657 -0.6736 0.3211
vn 0.6658 -0.6736 0.3209
vn 0.6657 -0.6736 0.3212
vn -0.6657 0.6736 -0.3212
vn -0.6657 0.6736 -0.3211
vn -0.0478 0.9988 -0.0079
vn -0.0474 0.9988 -0.0079
vn 1.0000 -0.0000 -0.0000
vn -1.0000 -0.0000 -0.0000
vn -0.0000 -0.0000 -1.0000
vn -0.0000 -0.0000 1.0000
vn 0.7071 -0.0000 0.7071
vn -0.0000 1.0000 -0.0000
vn -0.0000 -1.0000 -0.0000
vn 0.6952 -0.7188 -0.0000
vn 0.6953 -0.7187 -0.0000
vn 0.6951 -0.7189 -0.0000
vn 0.7342 -0.0000 -0.6789
vn 0.7343 -0.0000 -0.6789
vn 0.6954 0.7186 -0.0000
vn 0.6952 0.7188 -0.0000
vn 0.7342 -0.0000 0.6790
vn 0.7342 -0.0000 0.6789
vn -0.6952 -0.7188 -0.0000
vn -0.6952 -0.7189 -0.0000
vn -0.6945 -0.7195 -0.0000
vn -0.7342 -0.0000 0.6789
vn -0.6944 0.7195 -0.0000
vn -0.6954 0.7186 -0.0000
vn -0.6952 0.7189 -0.0000
vn -0.7342 -0.0000 -0.6789
vn -0.7342 -0.0000 -0.6790
vn -0.7340 -0.0000 -0.6791
vn -0.7342 -0.6789 -0.0000
vn -0.7343 -0.6788 -0.0000
vn -0.7342 -0.6790 -0.0000
vn -0.7070 -0.0000 0.7072
vn -0.7071 -0.0000 0.7071
vn -0.7065 -0.0000 0.7077
vn -0.7342 0.6789 -0.0000
vn -0.7069 -0.0000 -0.7073
vn -0.7071 -0.0000 -0.7071
vn -0.7073 -0.0000 -0.7069
vn -0.7072 -0.0000 -0.7070
vn 0.7071 -0.0000 -0.7071
vn 0.4344 0.0158 0.9006
vn 0.4345 0.0158 0.9006
vn 0.4345 0.0158 0.9005
vn -0.4341 -0.0160 -0.9007
vn -0.4345 -0.0158 -0.9005
vn -0.4344 -0.0158 -0.9006
vn -0.4343 -0.0159 -0.9006
vn -0.4415 0.0081 0.8972
vn -0.4409 0.0079 0.8975
vn -0.4408 0.0078 0.8976
vn -0.4412 0.0080 0.8974
vn -0.4411 0.0079 0.8974
vn 0.4415 -0.0081 -0.8972
vn 0.4411 -0.0080 -0.8974
vn 0.4412 -0.0080 -0.8974
vn 0.4407 -0.0078 -0.8976
vn 0.4250 -0.0157 0.9051
vn 0.4249 -0.0156 0.9051
vn -0.4249 0.0156 -0.9051
vn -0.4250 0.0158 -0.9050
vn -0.4249 0.0157 -0.9051
vn -0.4250 0.0157 -0.9051
vn -0.4472 -0.0154 0.8943
vn -0.4472 -0.0156 0.8943
vn -0.4472 -0.0143 0.8943
vn 0.4472 0.0157 -0.8943
vn 0.4472 0.0156 -0.8943
vn 0.4471 0.0158 -0.8943
vn -0.9998 0.0157 0.0079
vn -0.9998 0.0157 -0.0079
vn -0.9998 -0.0157 0.0079
vn -0.9998 -0.0157 -0.0079
vn 0.9998 0.0157 0.0079
vn 0.9998 0.0157 -0.0079
vn 0.9998 -0.0157 -0.0079
vn 0.9998 -0.0157 0.0079
vn 0.9998 -0.0158 0.0078
vn 0.9998 -0.0158 0.0079
vn -0.9998 0.0157 -0.0080
vn -0.9998 0.0157 0.0080
vn -0.9998 -0.0156 -0.0081
vt 0.115173 0.988808
vt 0.052246 0.089355
vt 0.484863 0.970932
vt 0.052246 0.446777
vt 0.484863 0.988808
vt 0.052246 0.446777
vt 0.115173 0.970932
vt 0.052246 0.089355
vt 0.484863 0.942230
vt 0.043274 0.446777
vt 0.043274 0.089355
vt 0.043274 0.446777
vt 0.115173 0.942230
vt 0.043274 0.089355
vt 0.484863 0.960083
vt 0.049561 0.446777
vt 0.115173 0.960114
vt 0.049561 0.089355
vt 0.484863 0.970932
vt 0.052246 0.446777
vt 0.115173 0.988808
vt 0.052246 0.089355
vt 0.115173 0.970932
vt 0.052246 0.089355
vt 0.484863 0.988808
vt 0.052246 0.446777
vt 0.043274 0.089355
vt 0.484863 0.942230
vt 0.043274 0.446777
vt 0.115173 0.942230
vt 0.043274 0.089355
vt 0.043274 0.446777
vt 0.484863 0.960083
vt 0.049561 0.446777
vt 0.115173 0.960114
vt 0.049561 0.089355
vt 0.484863 0.988808
vt 0.052246 0.446777
vt 0.115173 0.988808
vt 0.052246 0.089355
vt 0.115173 0.970932
vt 0.052246 0.089355
vt 0.484863 0.970932
vt 0.052246 0.446777
vt 0.484863 0.942230
vt 0.043274 0.446777
vt 0.115173 0.942230
vt 0.043274 0.089355
vt 0.043274 0.446777
vt 0.043274 0.089355
vt 0.115173 0.960114
vt 0.049561 0.089355
vt 0.484863 0.960083
vt 0.049561 0.446777
vt 0.484863 0.988808
vt 0.052246 0.446777
vt 0.115173 0.970932
vt 0.052246 0.089355
vt 0.484863 0.970932
vt 0.052246 0.446777
vt 0.115173 0.988808
vt 0.052246 0.089355
vt 0.043274 0.089355
vt 0.043274 0.446777
vt 0.115173 0.942230
vt 0.043274 0.089355
vt 0.484863 0.942230
vt 0.043274 0.446777
vt 0.484863 0.960083
vt 0.049561 0.446777
vt 0.115173 0.960114
vt 0.049561 0.089355
vt 0.115173 0.970932
vt 0.052246 0.089355
vt 0.484863 0.970932
vt 0.052246 0.446777
vt 0.484863 0.988808
vt 0.052246 0.446777
vt 0.115173 0.988808
vt 0.052246 0.089355
vt 0.043274 0.089355
vt 0.043274 0.446777
vt 0.115173 0.942230
vt 0.043274 0.089355
vt 0.484863 0.942230
vt 0.043274 0.446777
vt 0.115173 0.960114
vt 0.049561 0.089355
vt 0.484863 0.960083
vt 0.049561 0.446777
vt 0.881836 0.859863
vt 0.693359 0.851074
vt 0.048340 0.100586
vt 0.880371 0.851074
vt 0.048340 0.436523
vt 0.691895 0.859863
vt 0.691895 0.799927
vt 0.693359 0.808716
vt 0.042297 0.101562
vt 0.881836 0.799927
vt 0.880371 0.808716
vt 0.042297 0.437988
vt 0.887207 0.870117
vt 0.686523 0.870117
vt 0.885254 0.867310
vt 0.688477 0.867310
vt 0.686523 0.789673
vt 0.688477 0.792480
vt 0.885254 0.792480
vt 0.887207 0.789673
vt 0.684570 0.876892
vt 0.048889 0.089355
vt 0.684570 0.782837
vt 0.041779 0.091309
vt 0.889160 0.782837
vt 0.041779 0.448730
vt 0.889160 0.876892
vt 0.048889 0.447266
vt 0.881836 0.860107
vt 0.691895 0.860107
vt 0.693359 0.851318
vt 0.159180 0.441406
vt 0.880371 0.851318
vt 0.159180 0.105469
vt 0.693359 0.808960
vt 0.153198 0.442871
vt 0.691895 0.800171
vt 0.880371 0.808960
vt 0.153198 0.106445
vt 0.881836 0.800171
vt 0.885254 0.867554
vt 0.686523 0.870361
vt 0.688477 0.867554
vt 0.887207 0.870361
vt 0.686523 0.789917
vt 0.688477 0.792725
vt 0.887207 0.789917
vt 0.885254 0.792725
vt 0.684570 0.877136
vt 0.159668 0.452148
vt 0.684570 0.783081
vt 0.152588 0.453613
vt 0.889160 0.783081
vt 0.152588 0.095703
vt 0.889160 0.877136
vt 0.159668 0.094238
vt 0.907715 0.891296
vt 0.665527 0.891296
vt 0.668945 0.880676
vt 0.150879 0.102051
vt 0.903809 0.880676
vt 0.150879 0.443848
vt 0.668945 0.777466
vt 0.050659 0.102051
vt 0.665527 0.766846
vt 0.903809 0.777466
vt 0.050659 0.443848
vt 0.907715 0.766846
vt 0.912598 0.902832
vt 0.657715 0.906738
vt 0.159668 0.090820
vt 0.660645 0.902832
vt 0.915527 0.906738
vt 0.159668 0.455078
vt 0.660645 0.755371
vt 0.657715 0.751343
vt 0.041779 0.090820
vt 0.912598 0.755371
vt 0.915039 0.751343
vt 0.041779 0.455078
vt 0.159668 0.090820
vt 0.041779 0.090820
vt 0.041779 0.455078
vt 0.159668 0.455078
vt 0.484619 0.986977
vt 0.043945 0.447266
vt 0.115051 0.969406
vt 0.050232 0.083984
vt 0.484619 0.969406
vt 0.050232 0.447266
vt 0.115051 0.986977
vt 0.043945 0.083984
vt 0.043945 0.083984
vt 0.043945 0.447266
vt 0.115051 0.941162
vt 0.052948 0.083984
vt 0.484619 0.941162
vt 0.052948 0.447266
vt 0.484619 0.958740
vt 0.052948 0.447266
vt 0.115051 0.958740
vt 0.052948 0.083984
vt 0.485596 0.987419
vt 0.042786 0.452148
vt 0.116089 0.987419
vt 0.042786 0.082031
vt 0.116089 0.970154
vt 0.042786 0.082031
vt 0.485596 0.970154
vt 0.042786 0.452148
vt 0.051758 0.452148
vt 0.116089 0.942444
vt 0.051758 0.082031
vt 0.051758 0.082031
vt 0.485596 0.942444
vt 0.051758 0.452148
vt 0.485596 0.959717
vt 0.045471 0.452148
vt 0.116089 0.959717
vt 0.045471 0.082031
vt 0.485596 0.987740
vt 0.051788 0.455078
vt 0.116089 0.987740
vt 0.051788 0.088867
vt 0.116089 0.970306
vt 0.045471 0.088867
vt 0.485596 0.970306
vt 0.045471 0.455078
vt 0.485596 0.942291
vt 0.042786 0.455078
vt 0.116089 0.942291
vt 0.042786 0.088867
vt 0.051788 0.455078
vt 0.051788 0.088867
vt 0.116089 0.959747
vt 0.042786 0.088867
vt 0.485596 0.959747
vt 0.042786 0.455078
vt 0.550293 0.779663
vt 0.043365 0.452148
vt 0.051361 0.769897
vt 0.043365 0.079102
vt 0.550293 0.769897
vt 0.043365 0.452148
vt 0.051361 0.779663
vt 0.043365 0.079102
vt 0.051117 0.079102
vt 0.051117 0.452148
vt 0.051361 0.754272
vt 0.051117 0.079102
vt 0.550293 0.754272
vt 0.051117 0.452148
vt 0.051361 0.764038
vt 0.045685 0.079102
vt 0.550293 0.764038
vt 0.045685 0.452148
vt 0.549805 0.780518
vt 0.051117 0.452148
vt 0.051025 0.770752
vt 0.045685 0.079102
vt 0.549805 0.770752
vt 0.045685 0.452148
vt 0.051025 0.780518
vt 0.051117 0.079102
vt 0.051117 0.452148
vt 0.051025 0.755127
vt 0.043365 0.079102
vt 0.051117 0.079102
vt 0.549805 0.755127
vt 0.043365 0.452148
vt 0.549805 0.764893
vt 0.043365 0.452148
vt 0.051025 0.764893
vt 0.043365 0.079102
vt 0.050690 0.079102
vt 0.051025 0.769531
vt 0.050690 0.079102
vt 0.042938 0.079102
vt 0.042938 0.079102
vt 0.051025 0.763672
vt 0.048340 0.079102
vt 0.549805 0.763672
vt 0.549805 0.778809
vt 0.043121 0.452148
vt 0.051025 0.778809
vt 0.043121 0.079102
vt 0.051025 0.769043
vt 0.048523 0.079102
vt 0.549805 0.769043
vt 0.048523 0.452148
vt 0.549805 0.753418
vt 0.050842 0.452148
vt 0.051025 0.753418
vt 0.050842 0.079102
vt 0.043121 0.452148
vt 0.043121 0.079102
vt 0.051025 0.763184
vt 0.050842 0.079102
vt 0.549805 0.763184
vt 0.050842 0.452148
s 1
usemtl Sign
f 1/1/1 2/3/1 3/5/1
f 2/3/1 1/1/1 4/7/1
f 5/10/2 6/11/2 7/12/2
f 6/11/2 5/10/2 8/14/3
f 7/12/4 6/11/4 3/6/5
f 1/2/4 3/6/5 6/11/4
f 9/15/6 8/13/6 5/9/7
f 8/13/6 9/15/6 10/17/8
f 2/3/9 10/17/9 9/15/9
f 10/17/9 2/3/9 4/7/9
f 11/19/10 12/21/11 13/23/12
f 12/21/11 11/19/10 14/25/12
f 15/27/13 16/29/13 17/31/13
f 16/29/13 15/27/13 18/32/13
f 15/27/14 14/26/15 18/32/16
f 14/26/15 15/27/14 12/22/17
f 19/33/18 17/30/19 16/28/19
f 17/30/19 19/33/18 20/35/19
f 11/19/20 20/35/21 19/33/22
f 20/35/21 11/19/20 13/23/23
f 21/37/24 22/39/25 23/41/25
f 21/37/24 23/41/25 24/43/26
f 25/46/27 26/48/28 27/49/29
f 27/49/29 26/48/28 28/50/28
f 27/49/30 22/40/31 21/38/30
f 22/40/31 27/49/30 28/50/32
f 29/51/33 25/45/34 30/53/35
f 25/45/34 29/51/33 26/47/34
f 23/41/36 30/53/37 24/43/37
f 30/53/37 23/41/36 29/51/37
f 31/55/38 32/57/39 33/59/39
f 32/57/39 31/55/38 34/61/38
f 35/63/40 36/64/40 37/66/40
f 38/68/40 37/66/40 36/64/40
f 36/64/41 34/62/41 31/56/42
f 34/62/41 36/64/41 35/63/43
f 39/69/44 40/71/44 38/67/44
f 37/65/45 38/67/44 40/71/44
f 33/59/46 32/57/46 39/69/47
f 40/71/46 39/69/47 32/57/46
f 41/73/48 42/75/48 43/77/48
f 41/73/48 43/77/48 44/79/48
f 45/81/49 46/82/49 47/84/49
f 48/86/49 47/84/49 46/82/49
f 46/82/50 45/81/50 43/78/50
f 43/78/50 45/81/50 44/80/50
f 47/83/51 48/85/51 49/87/51
f 49/87/51 48/85/51 50/89/51
f 49/87/52 50/89/52 41/73/52
f 41/73/52 50/89/52 42/75/52
f 51/91/53 52/92/53 53/94/53
f 52/92/53 51/91/53 54/96/53
f 54/96/51 55/97/51 56/98/51
f 56/98/51 52/92/51 54/96/51
f 55/97/54 57/100/54 58/101/54
f 58/101/54 56/98/54 55/97/54
f 57/100/50 51/91/50 53/94/50
f 53/94/50 58/101/50 57/100/50
f 59/103/55 60/104/56 61/105/55
f 61/105/55 60/104/56 62/106/57
f 60/104/58 63/107/59 62/106/58
f 62/106/58 63/107/59 64/108/58
f 63/107/60 65/109/61 64/108/61
f 65/109/61 63/107/60 66/110/61
f 66/110/62 59/103/63 65/109/63
f 65/109/63 59/103/63 61/105/63
f 67/111/50 63/107/50 60/104/50
f 63/107/50 67/111/50 68/113/50
f 66/110/53 63/107/53 69/115/53
f 69/115/53 63/107/53 68/113/53
f 69/115/51 59/103/51 66/110/51
f 59/103/51 69/115/51 70/117/51
f 70/117/54 67/111/54 59/103/54
f 59/103/54 67/111/54 60/104/54
f 71/119/53 72/120/53 73/121/53
f 73/121/53 74/123/53 71/119/53
f 72/120/50 75/125/50 73/121/50
f 75/125/50 72/120/50 76/127/50
f 76/127/54 77/128/54 75/125/54
f 77/128/54 76/127/54 78/130/54
f 78/130/51 74/123/51 77/128/51
f 74/123/51 78/130/51 71/119/51
f 79/131/64 80/132/64 81/133/65
f 82/134/66 80/132/64 79/131/64
f 80/132/67 83/135/67 81/133/67
f 81/133/67 83/135/67 84/136/67
f 83/135/68 85/137/69 84/136/69
f 84/136/69 85/137/69 86/138/70
f 85/137/71 82/134/72 86/138/73
f 86/138/73 82/134/72 79/131/72
f 83/135/51 87/139/51 88/141/51
f 87/139/51 83/135/51 80/132/51
f 88/141/53 89/143/53 83/135/53
f 83/135/53 89/143/53 85/137/53
f 82/134/50 89/143/50 90/145/50
f 89/143/50 82/134/50 85/137/50
f 80/132/54 82/134/54 87/139/54
f 87/139/54 82/134/54 90/145/54
f 91/147/53 92/148/53 93/149/53
f 93/149/53 94/151/53 91/147/53
f 92/148/50 95/153/50 93/149/50
f 95/153/50 92/148/50 96/155/50
f 96/155/54 97/156/54 95/153/54
f 97/156/54 96/155/54 98/158/54
f 98/158/51 94/151/51 97/156/51
f 94/151/51 98/158/51 91/147/51
f 99/159/74 100/160/74 101/162/75
f 102/163/76 100/160/74 99/159/74
f 100/160/77 103/165/78 101/162/78
f 103/165/78 100/160/77 104/166/79
f 104/166/80 105/168/80 103/165/80
f 105/168/80 104/166/80 106/169/80
f 106/169/81 99/159/82 105/168/83
f 99/159/82 106/169/81 102/163/84
f 104/167/51 107/171/51 108/172/51
f 107/171/51 104/167/51 100/161/51
f 108/172/53 109/173/53 104/167/53
f 104/167/53 109/173/53 106/170/53
f 102/164/50 109/173/50 110/174/50
f 109/173/50 102/164/50 106/170/50
f 100/161/54 102/164/54 107/171/54
f 107/171/54 102/164/54 110/174/54
f 111/175/50 112/177/50 113/179/50
f 112/177/50 111/175/50 114/181/50
f 115/183/51 116/184/51 117/186/51
f 117/186/51 116/184/51 118/188/51
f 115/183/49 111/176/49 116/184/49
f 111/176/49 115/183/49 114/182/49
f 119/189/48 120/191/48 118/187/48
f 117/185/48 118/187/48 120/191/48
f 112/177/85 119/189/85 113/179/85
f 119/189/85 112/177/85 120/191/85
f 121/193/49 122/195/49 123/197/49
f 121/193/49 123/197/49 124/199/49
f 125/201/48 126/203/48 127/204/48
f 126/203/48 125/201/48 128/206/48
f 122/196/51 121/194/51 127/204/51
f 127/204/51 121/194/51 125/201/51
f 129/207/50 130/209/50 128/205/50
f 128/205/50 130/209/50 126/202/50
f 124/199/82 123/197/82 129/207/82
f 129/207/82 123/197/82 130/209/82
f 131/211/51 132/213/51 133/215/51
f 133/215/51 134/217/51 131/211/51
f 135/220/50 136/222/50 137/223/50
f 137/223/50 136/222/50 138/224/50
f 137/223/48 138/224/48 131/212/48
f 132/214/48 131/212/48 138/224/48
f 139/225/49 135/219/49 140/227/49
f 135/219/49 139/225/49 136/221/49
f 133/215/78 140/227/78 134/217/78
f 140/227/78 133/215/78 139/225/78
f 141/229/48 142/231/48 143/233/48
f 142/231/48 141/229/48 144/235/48
f 145/237/49 146/238/49 147/240/49
f 148/242/49 147/240/49 146/238/49
f 145/237/50 141/230/50 146/238/50
f 141/230/50 145/237/50 144/236/50
f 147/239/51 148/241/51 149/243/51
f 149/243/51 148/241/51 150/245/51
f 143/233/52 142/231/52 150/245/52
f 149/243/52 150/245/52 142/231/52
f 151/247/50 152/249/50 153/251/50
f 152/249/50 151/247/50 154/253/50
f 155/255/51 156/257/51 157/258/51
f 156/257/51 155/255/51 158/260/51
f 157/258/49 151/248/49 155/255/49
f 151/248/49 157/258/49 154/254/49
f 159/261/48 160/263/48 158/259/48
f 156/256/48 158/259/48 160/263/48
f 153/251/85 152/249/85 159/261/85
f 160/263/85 159/261/85 152/249/85
f 166/272/82 162/266/82 165/270/82
f 167/273/51 168/275/51 169/277/51
f 169/277/51 170/279/51 167/273/51
f 171/282/50 172/284/50 173/285/50
f 173/285/50 172/284/50 174/286/50
f 173/285/48 174/286/48 167/274/48
f 168/276/48 167/274/48 174/286/48
f 175/287/49 171/281/49 176/289/49
f 171/281/49 175/287/49 172/283/49
f 169/277/78 176/289/78 170/279/78
f 176/289/78 169/277/78 175/287/78
f 47/84/53 49/88/53 45/81/53
f 41/74/53 45/81/53 49/88/53
f 45/81/53 41/74/53 44/80/53
f 147/240/53 149/244/53 145/237/53
f 142/232/53 145/237/53 149/244/53
f 145/237/53 142/232/53 144/236/53
f 7/12/86 9/16/87 5/10/88
f 9/16/87 7/12/86 2/4/87
f 2/4/87 7/12/86 3/6/87
f 6/11/89 4/8/90 1/2/91
f 4/8/90 6/11/89 10/18/92
f 10/18/92 6/11/89 8/14/90
f 18/32/93 19/34/94 16/29/95
f 19/34/94 18/32/93 11/20/96
f 11/20/96 18/32/93 14/26/97
f 15/27/98 13/24/99 12/22/100
f 13/24/99 15/27/98 20/36/98
f 20/36/98 15/27/98 17/31/101
f 27/49/102 30/54/102 25/46/102
f 30/54/102 27/49/102 24/44/102
f 24/44/102 27/49/102 21/38/103
f 28/50/104 23/42/105 22/40/106
f 23/42/105 28/50/104 29/52/105
f 29/52/105 28/50/104 26/48/107
f 36/64/108 39/70/109 38/68/109
f 39/70/109 36/64/108 33/60/108
f 33/60/108 36/64/108 31/56/110
f 35/63/111 32/58/112 34/62/113
f 32/58/112 35/63/111 40/72/111
f 40/72/111 35/63/111 37/66/112
f 42/76/54 46/82/54 43/78/54
f 50/90/54 46/82/54 42/76/54
f 46/82/54 50/90/54 48/86/54
f 116/184/54 119/190/54 118/188/54
f 119/190/54 116/184/54 113/180/54
f 113/180/54 116/184/54 111/176/54
f 115/183/53 117/186/53 120/192/53
f 112/178/53 115/183/53 120/192/53
f 115/183/53 112/178/53 114/182/53
f 125/201/54 129/208/54 128/206/54
f 129/208/54 125/201/54 124/200/54
f 124/200/54 125/201/54 121/194/54
f 127/204/53 123/198/53 122/196/53
f 123/198/53 127/204/53 130/210/53
f 130/210/53 127/204/53 126/203/53
f 134/218/54 137/223/54 131/212/54
f 140/228/54 137/223/54 134/218/54
f 137/223/54 140/228/54 135/220/54
f 138/224/53 133/216/53 132/214/53
f 133/216/53 138/224/53 139/226/53
f 139/226/53 138/224/53 136/222/53
f 143/234/54 146/238/54 141/230/54
f 150/246/54 146/238/54 143/234/54
f 146/238/54 150/246/54 148/242/54
f 155/255/54 159/262/54 158/260/54
f 159/262/54 155/255/54 153/252/54
f 153/252/54 155/255/54 151/248/54
f 157/258/53 156/257/53 160/264/53
f 152/250/53 157/258/53 160/264/53
f 157/258/53 152/250/53 154/254/53
f 164/269/53 162/267/53 161/265/53
f 162/267/53 164/269/53 165/271/53
f 165/271/53 164/269/53 163/268/53
f 170/280/54 173/285/54 167/274/54
f 176/290/54 173/285/54 170/280/54
f 173/285/54 176/290/54 171/282/54
f 174/286/53 169/278/53 168/276/53
f 169/278/53 174/286/53 175/288/53
f 175/288/53 174/286/53 172/284/53
f 67/112/114 53/95/115 52/93/114
f 56/99/116 67/112/114 52/93/114
f 53/95/115 67/112/114 70/118/115
f 67/112/114 56/99/116 68/114/116
f 70/118/115 58/102/117 53/95/115
f 58/102/117 68/114/116 56/99/116
f 58/102/117 70/118/115 69/116/117
f 68/114/116 58/102/117 69/116/117
f 74/124/118 73/122/119 87/140/119
f 75/126/120 87/140/119 73/122/119
f 87/140/119 90/146/118 74/124/118
f 87/140/119 75/126/120 88/142/120
f 90/146/118 77/129/121 74/124/118
f 77/129/121 88/142/120 75/126/120
f 90/146/118 89/144/122 77/129/121
f 88/142/120 77/129/121 89/144/122
f 94/152/118 93/150/119 107/171/119
f 95/154/120 107/171/119 93/150/119
f 107/171/119 110/174/118 94/152/118
f 107/171/119 95/154/120 108/172/120
f 110/174/118 97/157/123 94/152/118
f 97/157/123 108/172/120 95/154/120
f 110/174/118 109/173/121 97/157/123
f 108/172/120 97/157/123 109/173/121
f 54/96/118 51/91/119 61/105/119
f 61/105/119 62/106/118 54/96/118
f 51/91/119 65/109/120 61/105/119
f 62/106/118 55/97/121 54/96/118
f 65/109/120 51/91/119 57/100/120
f 62/106/118 64/108/121 55/97/121
f 57/100/120 64/108/121 65/109/120
f 64/108/121 57/100/120 55/97/121
f 72/120/115 79/131/114 81/133/124
f 81/133/124 76/127/117 72/120/115
f 79/131/114 72/120/115 71/119/114
f 76/127/117 81/133/124 84/136/117
f 86/138/116 79/131/114 71/119/114
f 78/130/116 76/127/117 84/136/117
f 86/138/116 71/119/114 78/130/116
f 84/136/117 86/138/116 78/130/116
f 92/148/115 99/159/125 101/162/115
f 101/162/115 96/155/117 92/148/115
f 99/159/125 92/148/115 91/147/114
f 96/155/117 101/162/115 103/165/126
f 105/168/116 99/159/125 91/147/114
f 98/158/116 96/155/117 103/165/126
f 105/168/116 91/147/114 98/158/116
f 103/165/126 105/168/116 98/158/116
