# Blender 3.5.1
# www.blender.org
mtllib lampionkanantengah.mtl
o StallMesh
v 0.068667 0.159902 0.106963
v 0.067500 0.159902 0.106479
v 0.066333 0.159902 0.106963
v 0.065850 0.159902 0.108130
v 0.066333 0.159902 0.109297
v 0.067500 0.159902 0.109780
v 0.068667 0.159902 0.109297
v 0.069150 0.159902 0.108130
v 0.072500 0.155722 0.103130
v 0.067500 0.155722 0.101059
v 0.062500 0.155722 0.103130
v 0.060429 0.155722 0.108130
v 0.062500 0.155722 0.113130
v 0.067500 0.155722 0.115201
v 0.072500 0.155722 0.113130
v 0.074571 0.155722 0.108130
v 0.072500 0.157031 0.103130
v 0.071498 0.158340 0.104132
v 0.067500 0.158340 0.102475
v 0.067500 0.157031 0.101059
v 0.063502 0.158340 0.104132
v 0.062500 0.157031 0.103130
v 0.061846 0.158340 0.108130
v 0.060429 0.157031 0.108130
v 0.063502 0.158340 0.112128
v 0.062500 0.157031 0.113130
v 0.067500 0.158340 0.113784
v 0.067500 0.157031 0.115201
v 0.071498 0.158340 0.112128
v 0.072500 0.157031 0.113130
v 0.073154 0.158340 0.108130
v 0.074571 0.157031 0.108130
v 0.072500 0.141580 0.103130
v 0.067500 0.141580 0.101059
v 0.062500 0.141580 0.103130
v 0.060429 0.141580 0.108130
v 0.062500 0.141580 0.113130
v 0.067500 0.141580 0.115201
v 0.072500 0.141580 0.113130
v 0.074571 0.141580 0.108130
v 0.074571 0.148651 0.101059
v 0.067500 0.148651 0.098130
v 0.060429 0.148651 0.101059
v 0.057500 0.148651 0.108130
v 0.060429 0.148651 0.115201
v 0.067500 0.148651 0.118130
v 0.074571 0.148651 0.115201
v 0.077500 0.148651 0.108130
v 0.067500 0.138651 0.108130
vn 0.6533 0.7071 -0.2706
vn 0.2706 0.7071 -0.6533
vn -0.2706 0.7071 -0.6533
vn -0.6533 0.7071 -0.2706
vn -0.6533 0.7071 0.2706
vn -0.2706 0.7071 0.6533
vn 0.2706 0.7071 0.6533
vn 0.6533 0.7071 0.2706
vn 0.3827 -0.0000 -0.9239
vn -0.3827 -0.0000 -0.9239
vn -0.9239 -0.0000 -0.3827
vn -0.9239 -0.0000 0.3827
vn -0.3827 -0.0000 0.9239
vn 0.3827 -0.0000 0.9239
vn 0.9239 -0.0000 0.3827
vn 0.9239 -0.0000 -0.3827
vn 0.1488 0.9213 -0.3593
vn -0.1488 0.9213 -0.3593
vn -0.3593 0.9213 -0.1488
vn -0.3593 0.9213 0.1488
vn -0.1488 0.9213 0.3593
vn 0.1488 0.9213 0.3593
vn 0.3593 0.9213 0.1488
vn 0.3593 0.9213 -0.1488
vn 0.3574 -0.3574 -0.8629
vn -0.3574 -0.3574 -0.8629
vn -0.8629 -0.3574 -0.3574
vn -0.8629 -0.3574 0.3574
vn -0.3574 -0.3574 0.8629
vn 0.3574 -0.3574 0.8629
vn 0.8629 -0.3574 0.3574
vn 0.8629 -0.3574 -0.3574
vn 0.3574 0.3574 -0.8629
vn -0.3574 0.3574 -0.8629
vn -0.8629 0.3574 -0.3574
vn -0.8629 0.3574 0.3574
vn -0.3574 0.3574 0.8629
vn 0.3574 0.3574 0.8629
vn 0.8629 0.3574 0.3574
vn 0.8629 0.3574 -0.3574
vn 0.1566 -0.9125 -0.3780
vn -0.1566 -0.9125 -0.3780
vn -0.3780 -0.9125 -0.1566
vn -0.3780 -0.9125 0.1566
vn -0.1566 -0.9125 0.3780
vn 0.1566 -0.9125 0.3780
vn 0.3780 -0.9125 0.1566
vn 0.3780 -0.9125 -0.1566
vt 0.790045 0.158860
vt 0.772060 0.160948
vt 0.757870 0.149707
vt 0.755780 0.131722
vt 0.767020 0.117529
vt 0.785003 0.115441
vt 0.799194 0.126683
vt 0.801285 0.144668
vt 0.844921 0.254264
vt 0.579241 0.177124
vt 0.743400 0.267210
vt 0.618876 0.182296
vt 0.271747 0.179474
vt 0.662465 0.204583
vt 0.314073 0.177331
vt 0.649514 0.103073
vt 0.358465 0.177613
vt 0.712133 0.022132
vt 0.403229 0.177830
vt 0.813649 0.009175
vt 0.447862 0.177670
vt 0.894594 0.071798
vt 0.492226 0.177237
vt 0.907549 0.173317
vt 0.536182 0.176776
vt 0.835189 0.237683
vt 0.821307 0.212364
vt 0.756333 0.220886
vt 0.748245 0.248604
vt 0.704364 0.180969
vt 0.679046 0.194851
vt 0.695840 0.115999
vt 0.668121 0.107914
vt 0.735752 0.064028
vt 0.721867 0.038712
vt 0.800725 0.055501
vt 0.808808 0.027781
vt 0.852697 0.095417
vt 0.878014 0.081532
vt 0.861223 0.160391
vt 0.888943 0.168476
vt 0.581238 0.067426
vt 0.622795 0.064588
vt 0.278980 0.061975
vt 0.318752 0.067870
vt 0.361455 0.068728
vt 0.405125 0.068512
vt 0.449227 0.068149
vt 0.493501 0.067892
vt 0.537686 0.067781
vt 0.585912 0.123411
vt 0.637812 0.125948
vt 0.258610 0.118593
vt 0.310734 0.121503
vt 0.358051 0.122838
vt 0.403583 0.123077
vt 0.448521 0.122865
vt 0.493412 0.122565
vt 0.538807 0.122525
vt 0.596751 0.013869
vt 0.308039 0.013328
vt 0.342139 0.015935
vt 0.383244 0.016217
vt 0.426470 0.015932
vt 0.470381 0.015626
vt 0.514301 0.015449
vt 0.557300 0.015245
s 1
usemtl Platform_Texture
f 17/26/1 18/27/1 31/40/1 32/41/1
f 18/27/2 17/26/2 20/29/2 19/28/2
f 19/28/3 20/29/3 22/31/3 21/30/3
f 21/30/4 22/31/4 24/33/4 23/32/4
f 23/32/5 24/33/5 26/35/5 25/34/5
f 25/34/6 26/35/6 28/37/6 27/36/6
f 27/36/7 28/37/7 30/39/7 29/38/7
f 29/38/8 30/39/8 32/41/8 31/40/8
f 9/9/9 10/11/9 20/29/9 17/26/9
f 10/11/10 11/14/10 22/31/10 20/29/10
f 11/14/11 12/16/11 24/33/11 22/31/11
f 12/16/12 13/18/12 26/35/12 24/33/12
f 13/18/13 14/20/13 28/37/13 26/35/13
f 14/20/14 15/22/14 30/39/14 28/37/14
f 15/22/15 16/24/15 32/41/15 30/39/15
f 16/24/16 9/9/16 17/26/16 32/41/16
f 18/27/17 19/28/17 2/2/17 1/1/17
f 19/28/18 21/30/18 3/3/18 2/2/18
f 21/30/19 23/32/19 4/4/19 3/3/19
f 23/32/20 25/34/20 5/5/20 4/4/20
f 25/34/21 27/36/21 6/6/21 5/5/21
f 27/36/22 29/38/22 7/7/22 6/6/22
f 29/38/23 31/40/23 8/8/23 7/7/23
f 31/40/24 18/27/24 1/1/24 8/8/24
f 33/42/25 34/43/25 42/52/25 41/51/25
f 34/44/26 35/45/26 43/54/26 42/53/26
f 35/45/27 36/46/27 44/55/27 43/54/27
f 36/46/28 37/47/28 45/56/28 44/55/28
f 37/47/29 38/48/29 46/57/29 45/56/29
f 38/48/30 39/49/30 47/58/30 46/57/30
f 39/49/31 40/50/31 48/59/31 47/58/31
f 40/50/32 33/42/32 41/51/32 48/59/32
f 41/51/33 42/52/33 10/12/33 9/10/33
f 42/53/34 43/54/34 11/15/34 10/13/34
f 43/54/35 44/55/35 12/17/35 11/15/35
f 44/55/36 45/56/36 13/19/36 12/17/36
f 45/56/37 46/57/37 14/21/37 13/19/37
f 46/57/38 47/58/38 15/23/38 14/21/38
f 47/58/39 48/59/39 16/25/39 15/23/39
f 48/59/40 41/51/40 9/10/40 16/25/40
f 34/43/41 33/42/41 49/60/41
f 35/45/42 34/44/42 49/61/42
f 36/46/43 35/45/43 49/62/43
f 37/47/44 36/46/44 49/63/44
f 38/48/45 37/47/45 49/64/45
f 39/49/46 38/48/46 49/65/46
f 40/50/47 39/49/47 49/66/47
f 33/42/48 40/50/48 49/67/48
