# Blender 3.5.1
# www.blender.org
mtllib listrik_tong.mtl
o Signsplus_2
v 6.605268 1.709468 7.592979
v 7.355869 1.607046 7.592979
v 7.355869 1.709469 7.592979
v 6.605268 1.607046 7.592979
v 6.605268 1.607048 6.510383
v 7.355869 1.709470 6.510383
v 7.355869 1.607048 6.510383
v 6.605268 1.709471 6.510383
v 0.993813 11.812192 6.062564
v 1.002638 11.809686 6.061031
v 7.335653 1.722151 7.561049
v 7.303953 1.717726 7.559708
v 7.259897 1.717726 7.578767
v 6.701241 1.717726 7.578767
v 6.625484 1.722150 7.561049
v 6.657186 1.717725 7.559708
v 7.335653 1.722152 6.542310
v 7.303953 1.717727 6.543652
v 7.322203 1.717727 6.589664
v 7.322203 1.717726 7.513693
v 6.638937 1.717725 7.513696
v 6.638937 1.717728 6.589666
v 6.625484 1.722153 6.542310
v 6.657186 1.717728 6.543652
v 6.623494 1.596193 7.549928
v 6.650163 1.588959 7.508162
v 6.685215 1.588959 7.521230
v 7.275922 1.588959 7.521230
v 7.337644 1.596193 7.549928
v 7.310977 1.588959 7.508162
v 7.325496 1.588960 7.476613
v 7.325496 1.588961 6.626749
v 7.337644 1.596195 6.553434
v 7.310977 1.588961 6.595201
v 7.275922 1.588961 6.582131
v 6.685215 1.588961 6.582131
v 6.623494 1.596195 6.553434
v 6.650163 1.588961 6.595201
v 0.980923 11.919025 5.666903
v 0.979170 11.909413 5.665514
v 7.259897 1.717728 6.524593
v 6.701241 1.717728 6.524593
v 6.635643 1.588960 7.476613
v 6.635643 1.588961 6.626749
v 1.064326 11.809686 6.061031
v 6.686686 0.561754 7.431544
v 6.733393 0.561754 7.476178
v 6.700366 0.561754 7.463106
v 7.227745 0.561754 7.476178
v 7.274452 0.561754 7.431544
v 7.260772 0.561754 7.463106
v 6.686686 0.561756 6.671810
v 7.274452 0.561756 6.671810
v 6.700366 0.561756 6.640251
v 6.733393 0.561756 6.627175
v 7.227745 0.561756 6.627175
v 7.260772 0.561756 6.640251
v 6.657194 2.067278 7.410141
v 6.701785 2.071884 7.427383
v 6.665485 2.095739 7.392849
v 6.702081 2.104062 7.399129
v 7.303943 2.067278 7.410141
v 7.259354 2.071884 7.427383
v 7.259348 2.104062 7.399253
v 7.295785 2.095728 7.392952
v 6.638937 2.062729 7.367990
v 6.657373 2.100012 7.357254
v 6.657194 2.067280 6.693223
v 6.638937 2.062730 6.735373
v 6.657201 2.099994 6.745849
v 6.665354 2.095729 6.710408
v 7.303943 2.067280 6.693220
v 7.322203 2.062730 6.735370
v 7.295655 2.095740 6.710513
v 7.303764 2.100013 6.746108
v 7.322203 2.062729 7.367990
v 7.303939 2.099993 7.357512
v 7.259352 2.071885 6.675978
v 7.259057 2.104064 6.704230
v 6.701785 2.071886 6.675978
v 6.701789 2.104063 6.704108
v 6.650161 1.538716 7.508162
v 6.685210 1.538415 7.521229
v 7.275922 1.539095 7.521229
v 7.310974 1.538916 7.508162
v 7.310977 1.538718 6.595201
v 7.275922 1.538417 6.582130
v 6.685215 1.539096 6.582130
v 6.650164 1.538917 6.595201
v 6.635643 1.539443 7.476616
v 6.635643 1.539445 6.626748
v 7.325496 1.539443 7.476613
v 7.325496 1.539445 6.626748
v 0.983007 11.808024 6.060013
v 6.702328 2.116205 7.355517
v 7.259354 2.116205 7.355971
v 6.701785 2.116206 6.747392
v 7.258810 2.116206 6.747845
vn -0.0000 -0.0000 1.0000
vn -0.0000 -0.0000 -1.0000
vn 0.2042 0.9736 0.1020
vn -0.1262 0.9781 -0.1656
vn -0.0000 0.8815 0.4722
vn -0.2041 0.9736 0.1021
vn 0.1262 0.9781 -0.1656
vn 0.2041 0.9736 -0.1021
vn -0.1262 0.9781 0.1657
vn 0.2518 0.9678 -0.0000
vn 0.9930 0.1182 -0.0000
vn 1.0000 -0.0000 -0.0000
vn -0.2518 0.9678 -0.0000
vn -0.9930 0.1182 -0.0000
vn -0.2042 0.9736 -0.1021
vn 0.1262 0.9781 0.1656
vn -1.0000 -0.0000 -0.0000
vn -0.2364 -0.9613 0.1418
vn -0.1021 -0.9895 0.1021
vn -0.0000 -0.9697 0.2444
vn 0.2364 -0.9613 0.1418
vn 0.1021 -0.9895 0.1021
vn 0.5122 -0.8589 -0.0000
vn 0.5117 -0.8592 -0.0000
vn 0.2364 -0.9613 -0.1418
vn 0.1021 -0.9895 -0.1021
vn -0.0000 -0.9697 -0.2444
vn -0.2364 -0.9613 -0.1418
vn -0.1021 -0.9895 -0.1021
vn -0.0000 0.8815 -0.4722
vn -0.5122 -0.8589 -0.0000
vn -0.5116 -0.8592 -0.0000
vn -0.0000 -1.0000 -0.0000
vn -0.0236 0.3931 0.9192
vn -0.3616 0.3852 0.8490
vn -0.3692 0.3613 0.8562
vn -0.0316 0.4183 0.9077
vn -0.3071 0.5983 0.7401
vn 0.0236 0.3929 0.9193
vn -0.0158 0.6539 0.7564
vn 0.3616 0.3852 0.8490
vn 0.3692 0.3613 0.8562
vn 0.0316 0.4183 0.9077
vn 0.0158 0.6539 0.7564
vn 0.3071 0.5983 0.7401
vn -0.9152 0.1578 0.3708
vn -0.9128 0.1731 0.3698
vn -0.9991 0.0157 0.0393
vn -0.9994 0.0315 0.0157
vn -0.8400 0.4632 0.2826
vn -0.9991 0.0157 -0.0393
vn -0.8975 0.4409 0.0079
vn -0.9128 0.1731 -0.3698
vn -0.9152 0.1578 -0.3708
vn -0.9994 0.0315 -0.0158
vn -0.8975 0.4409 -0.0079
vn -0.8430 0.4570 -0.2837
vn 0.9152 0.1578 -0.3708
vn 0.9128 0.1731 -0.3699
vn 0.9991 0.0157 -0.0393
vn 0.9994 0.0315 -0.0157
vn 0.8400 0.4632 -0.2826
vn 0.9991 0.0158 0.0394
vn 0.8975 0.4409 -0.0079
vn 0.9128 0.1731 0.3699
vn 0.9152 0.1578 0.3708
vn 0.9994 0.0315 0.0157
vn 0.8975 0.4409 0.0079
vn 0.8430 0.4570 0.2837
vn 0.0236 0.3931 -0.9192
vn 0.3616 0.3852 -0.8490
vn 0.3692 0.3613 -0.8562
vn 0.0316 0.4183 -0.9077
vn 0.3070 0.5984 -0.7401
vn -0.0236 0.3929 -0.9193
vn 0.0158 0.6540 -0.7564
vn -0.3692 0.3613 -0.8562
vn -0.3616 0.3852 -0.8490
vn -0.0316 0.4183 -0.9077
vn -0.0158 0.6540 -0.7564
vn -0.3071 0.5983 -0.7401
vn -0.0236 -0.0000 0.9997
vn -0.3467 -0.0000 0.9380
vn -0.3558 -0.0553 0.9329
vn -0.0236 -0.0472 0.9986
vn -0.3556 -0.0632 0.9325
vn 0.0236 -0.0472 0.9986
vn 0.0236 -0.0000 0.9997
vn 0.3556 -0.0632 0.9325
vn 0.3469 -0.0000 0.9379
vn 0.3558 -0.0553 0.9329
vn 0.3558 -0.0553 -0.9329
vn 0.0236 -0.0001 -0.9997
vn 0.3468 -0.0000 -0.9379
vn 0.0236 -0.0472 -0.9986
vn 0.3556 -0.0632 -0.9325
vn -0.0236 -0.0472 -0.9986
vn -0.0236 -0.0000 -0.9997
vn -0.3556 -0.0632 -0.9325
vn -0.3468 -0.0000 -0.9380
vn -0.3558 -0.0553 -0.9329
vn -0.9084 -0.0000 0.4181
vn -0.9988 -0.0472 0.0157
vn -0.9107 -0.0628 0.4082
vn -0.9999 -0.0000 0.0157
vn -0.9984 -0.0550 0.0157
vn -0.9988 -0.0472 -0.0157
vn -0.9999 -0.0000 -0.0157
vn -0.9984 -0.0550 -0.0157
vn -0.9082 -0.0000 -0.4185
vn -0.9107 -0.0628 -0.4082
vn -0.9107 -0.0628 -0.4083
vn 0.9107 -0.0628 0.4083
vn 0.9988 -0.0472 0.0157
vn 0.9082 -0.0000 0.4186
vn 0.9999 -0.0000 0.0158
vn 0.9984 -0.0550 0.0157
vn 0.9999 -0.0000 -0.0158
vn 0.9988 -0.0472 -0.0157
vn 0.9984 -0.0550 -0.0157
vn 0.9083 -0.0000 -0.4184
vn 0.9107 -0.0628 -0.4083
vn 0.9107 -0.0628 -0.4082
vn -0.0000 0.5232 -0.8522
vn -0.0000 0.5219 -0.8530
vn -0.0000 0.5215 -0.8533
vn -0.0000 0.5218 -0.8530
vn -0.0236 0.9996 0.0158
vn -0.2919 0.9306 0.2208
vn -0.0158 0.9634 0.2675
vn -0.3373 0.9413 0.0157
vn 0.0158 0.9632 0.2684
vn -0.3388 0.9408 -0.0079
vn 0.0236 0.9996 0.0157
vn 0.2918 0.9306 0.2208
vn 0.3389 0.9408 0.0079
vn -0.0236 0.9996 -0.0157
vn -0.2918 0.9306 -0.2208
vn -0.0158 0.9632 -0.2684
vn 0.0236 0.9996 -0.0158
vn 0.3373 0.9413 -0.0157
vn 0.0158 0.9634 -0.2675
vn 0.2919 0.9306 -0.2208
vt 0.534668 0.357910
vt 0.989746 0.356934
vt 0.708984 0.335449
vt 0.720215 0.331543
vt 0.710449 0.358887
vt 0.720215 0.356934
vt 0.536133 0.333984
vt 0.989746 0.331543
vt 0.708984 0.335449
vt 0.720215 0.331543
vt 0.989746 0.356934
vt 0.534180 0.358398
vt 0.989746 0.331543
vt 0.535645 0.334473
vt 0.720215 0.356934
vt 0.709961 0.359375
vt 0.860352 0.566650
vt 0.860352 0.568604
vt 0.706055 0.365234
vt 0.728516 0.362793
vt 0.699707 0.365234
vt 0.728027 0.367676
vt 0.687988 0.362793
vt 0.556641 0.362305
vt 0.538574 0.364258
vt 0.981445 0.362793
vt 0.545410 0.364258
vt 0.981934 0.367676
vt 0.981934 0.362793
vt 0.538574 0.364746
vt 0.982422 0.367676
vt 0.544922 0.364746
vt 0.970215 0.366699
vt 0.740234 0.366699
vt 0.969727 0.366699
vt 0.739746 0.366699
vt 0.728027 0.362793
vt 0.706055 0.365723
vt 0.727539 0.367676
vt 0.699219 0.365723
vt 0.540527 0.323730
vt 0.979004 0.326172
vt 0.546875 0.315918
vt 0.968750 0.320312
vt 0.554199 0.317383
vt 0.691406 0.317871
vt 0.704590 0.325195
vt 0.730957 0.326172
vt 0.698730 0.316895
vt 0.741211 0.320312
vt 0.749512 0.322266
vt 0.960938 0.322266
vt 0.979004 0.326172
vt 0.540527 0.324219
vt 0.546387 0.316406
vt 0.969238 0.319824
vt 0.553711 0.317871
vt 0.690918 0.318359
vt 0.704590 0.325684
vt 0.730957 0.326172
vt 0.698730 0.317383
vt 0.740723 0.320312
vt 0.556641 0.362793
vt 0.687988 0.363281
vt 0.960449 0.322266
vt 0.749023 0.322266
vt 0.860352 0.580811
vt 0.709473 0.119141
vt 0.949219 0.066895
vt 0.711426 0.121094
vt 0.560059 0.064453
vt 0.709961 0.120605
vt 0.551270 0.064453
vt 0.957520 0.066895
vt 0.734863 0.121094
vt 0.686523 0.064453
vt 0.737305 0.119141
vt 0.760742 0.066895
vt 0.736816 0.120605
vt 0.695312 0.064453
vt 0.752441 0.066895
vt 0.709473 0.083008
vt 0.760254 0.066895
vt 0.737305 0.083008
vt 0.949707 0.066895
vt 0.709961 0.081543
vt 0.695312 0.064941
vt 0.751953 0.066895
vt 0.711426 0.080566
vt 0.686035 0.064941
vt 0.734863 0.080566
vt 0.560059 0.064941
vt 0.736816 0.081543
vt 0.550781 0.064941
vt 0.958008 0.066895
vt 0.541016 0.456055
vt 0.944336 0.453613
vt 0.553223 0.455566
vt 0.542969 0.465332
vt 0.940430 0.461426
vt 0.559570 0.718994
vt 0.553223 0.466309
vt 0.557617 0.705566
vt 0.703125 0.456543
vt 0.765625 0.453613
vt 0.690918 0.456055
vt 0.691406 0.466309
vt 0.557617 0.513672
vt 0.701172 0.465332
vt 0.769531 0.461426
vt 0.559570 0.500244
vt 0.933105 0.452148
vt 0.930664 0.462402
vt 0.572266 0.721924
vt 0.765137 0.453613
vt 0.703125 0.457031
vt 0.776367 0.452148
vt 0.778809 0.462402
vt 0.783203 0.721924
vt 0.769531 0.461426
vt 0.701172 0.465820
vt 0.795898 0.718994
vt 0.944824 0.453613
vt 0.540527 0.456543
vt 0.933594 0.452148
vt 0.940430 0.461426
vt 0.542969 0.465820
vt 0.795410 0.500244
vt 0.931152 0.462402
vt 0.783203 0.497559
vt 0.776855 0.452148
vt 0.779297 0.462402
vt 0.571777 0.497559
vt 0.553223 0.456055
vt 0.553223 0.466797
vt 0.797852 0.513672
vt 0.690918 0.456543
vt 0.690918 0.466797
vt 0.797852 0.705566
vt 0.542969 0.305664
vt 0.968750 0.309570
vt 0.552734 0.305176
vt 0.692871 0.306152
vt 0.702637 0.306152
vt 0.741211 0.309570
vt 0.542969 0.306152
vt 0.969238 0.309570
vt 0.552246 0.305664
vt 0.692871 0.306641
vt 0.702148 0.306641
vt 0.740723 0.309570
vt 0.960449 0.310059
vt 0.749023 0.310059
vt 0.749512 0.310059
vt 0.960938 0.310059
vt 0.860352 0.565186
vt 0.572754 0.705322
vt 0.572266 0.513672
vt 0.782715 0.705566
vt 0.782715 0.513916
s 1
usemtl Sign
f 1/1/1 2/3/1 3/5/1
f 2/3/1 1/1/1 4/7/1
f 5/9/2 6/12/2 7/14/2
f 6/12/2 5/9/2 8/16/2
f 11/19/3 12/21/4 13/23/5
f 13/23/5 3/5/5 11/19/3
f 14/24/5 3/5/5 13/23/5
f 3/5/5 14/24/5 1/1/5
f 1/1/5 14/24/5 15/25/6
f 15/25/6 14/24/5 16/27/7
f 17/29/8 18/31/9 19/33/10
f 19/33/10 6/11/11 17/29/8
f 20/34/10 6/11/11 19/33/10
f 2/4/12 7/13/12 6/11/11
f 6/11/11 3/6/11 2/4/12
f 6/11/11 20/34/10 3/6/11
f 3/6/11 20/34/10 11/20/3
f 11/20/3 20/34/10 12/22/4
f 15/26/6 16/28/7 21/35/13
f 21/35/13 1/2/14 15/26/6
f 22/36/13 1/2/14 21/35/13
f 23/37/15 22/36/13 24/39/16
f 8/15/14 22/36/13 23/37/15
f 1/2/14 22/36/13 8/15/14
f 5/10/17 1/2/14 8/15/14
f 1/2/14 5/10/17 4/8/17
f 25/41/18 26/43/19 27/45/20
f 27/45/20 4/7/20 25/41/18
f 28/46/20 4/7/20 27/45/20
f 28/46/20 2/3/20 4/7/20
f 2/3/20 28/46/20 29/47/21
f 29/47/21 28/46/20 30/49/22
f 29/48/21 30/50/22 31/51/23
f 31/51/23 2/4/24 29/48/21
f 32/52/23 2/4/24 31/51/23
f 2/4/24 32/52/23 7/13/24
f 7/13/24 32/52/23 33/53/25
f 33/53/25 32/52/23 34/56/26
f 33/54/25 34/55/26 35/57/27
f 35/57/27 7/14/27 33/54/25
f 36/58/27 7/14/27 35/57/27
f 36/58/27 5/9/27 7/14/27
f 5/9/27 36/58/27 37/59/28
f 37/59/28 36/58/27 38/61/29
f 17/30/8 41/63/30 18/32/9
f 6/12/30 41/63/30 17/30/8
f 6/12/30 42/64/30 41/63/30
f 42/64/30 6/12/30 8/16/30
f 8/16/30 23/38/15 42/64/30
f 23/38/15 24/40/16 42/64/30
f 25/42/18 43/65/31 26/44/19
f 4/8/32 43/65/31 25/42/18
f 4/8/32 44/66/31 43/65/31
f 44/66/31 4/8/32 5/10/31
f 44/66/31 5/10/31 37/60/28
f 37/60/28 38/62/29 44/66/31
f 46/68/33 47/70/33 48/72/33
f 46/68/33 49/75/33 47/70/33
f 49/75/33 46/68/33 50/77/33
f 49/75/33 50/77/33 51/79/33
f 52/82/33 50/77/33 46/68/33
f 52/82/33 53/84/33 50/77/33
f 54/86/33 55/89/33 52/82/33
f 56/91/33 52/82/33 55/89/33
f 53/84/33 52/82/33 56/91/33
f 53/84/33 56/91/33 57/93/33
f 14/24/34 58/96/35 16/27/36
f 58/96/35 14/24/34 59/98/37
f 59/98/37 60/99/38 58/96/35
f 59/98/37 14/24/34 13/23/39
f 60/99/38 59/98/37 61/102/40
f 62/104/41 13/23/39 12/21/42
f 59/98/37 63/106/43 61/102/40
f 63/106/43 59/98/37 13/23/39
f 63/106/43 13/23/39 62/104/41
f 64/107/44 61/102/40 63/106/43
f 65/109/45 63/106/43 62/104/41
f 63/106/43 65/109/45 64/107/44
f 16/28/46 58/97/47 21/35/48
f 66/112/49 21/35/48 58/97/47
f 60/100/50 66/112/49 58/97/47
f 66/112/49 22/36/51 21/35/48
f 66/112/49 60/100/50 67/113/52
f 22/36/51 68/115/53 24/39/54
f 67/113/52 69/117/55 66/112/49
f 22/36/51 66/112/49 69/117/55
f 68/115/53 22/36/51 69/117/55
f 69/117/55 67/113/52 70/118/56
f 69/117/55 71/120/57 68/115/53
f 71/120/57 69/117/55 70/118/56
f 18/31/58 72/123/59 19/33/60
f 19/33/60 72/123/59 73/125/61
f 74/126/62 73/125/61 72/123/59
f 73/125/61 20/34/63 19/33/60
f 73/125/61 74/126/62 75/129/64
f 20/34/63 62/105/65 12/22/66
f 75/129/64 76/131/67 73/125/61
f 20/34/63 73/125/61 76/131/67
f 62/105/65 20/34/63 76/131/67
f 76/131/67 75/129/64 77/132/68
f 76/131/67 65/110/69 62/105/65
f 65/110/69 76/131/67 77/132/68
f 41/63/70 72/124/71 18/32/72
f 72/124/71 41/63/70 78/134/73
f 78/134/73 74/127/74 72/124/71
f 42/64/75 78/134/73 41/63/70
f 74/127/74 78/134/73 79/135/76
f 24/40/77 68/116/78 42/64/75
f 80/137/79 79/135/76 78/134/73
f 78/134/73 42/64/75 80/137/79
f 42/64/75 68/116/78 80/137/79
f 79/135/76 80/137/79 81/138/80
f 71/121/81 80/137/79 68/116/78
f 80/137/79 71/121/81 81/138/80
f 27/45/82 26/43/83 82/140/84
f 27/45/82 82/140/84 83/142/85
f 82/140/84 48/73/86 83/142/85
f 47/71/85 83/142/85 48/73/86
f 83/142/85 47/71/85 49/76/87
f 84/143/87 27/45/82 83/142/85
f 49/76/87 84/143/87 83/142/85
f 27/45/82 84/143/87 28/46/88
f 51/80/89 84/143/87 49/76/87
f 30/49/90 28/46/88 84/143/87
f 84/143/87 51/80/89 85/144/91
f 30/49/90 84/143/87 85/144/91
f 86/146/92 35/57/93 34/55/94
f 87/148/95 35/57/93 86/146/92
f 57/94/96 87/148/95 86/146/92
f 56/92/95 87/148/95 57/94/96
f 55/90/97 87/148/95 56/92/95
f 87/148/95 88/149/97 35/57/93
f 87/148/95 55/90/97 88/149/97
f 36/58/98 35/57/93 88/149/97
f 54/87/99 88/149/97 55/90/97
f 88/149/97 38/61/100 36/58/98
f 88/149/97 54/87/99 89/150/101
f 89/150/101 38/61/100 88/149/97
f 26/44/102 90/152/103 82/141/104
f 90/152/103 48/74/104 82/141/104
f 90/152/103 26/44/102 43/65/105
f 48/74/104 90/152/103 46/69/106
f 43/65/105 91/153/107 90/152/103
f 46/69/106 90/152/103 91/153/107
f 91/153/107 43/65/105 44/66/108
f 46/69/106 91/153/107 52/83/109
f 38/62/110 91/153/107 44/66/108
f 91/153/107 54/88/111 52/83/109
f 91/153/107 38/62/110 89/151/112
f 89/151/112 54/88/111 91/153/107
f 85/145/113 51/81/113 92/154/114
f 92/154/114 30/50/115 85/145/113
f 30/50/115 92/154/114 31/51/116
f 50/78/117 92/154/114 51/81/113
f 32/52/118 31/51/116 92/154/114
f 50/78/117 93/155/119 92/154/114
f 92/154/114 93/155/119 32/52/118
f 93/155/119 50/78/117 53/85/120
f 32/52/118 93/155/119 34/56/121
f 57/95/122 93/155/119 53/85/120
f 93/155/119 86/147/123 34/56/121
f 93/155/119 57/95/122 86/147/123
f 45/67/124 94/156/125 10/18/126
f 94/156/125 9/17/127 10/18/126
f 95/157/128 60/101/129 61/103/130
f 60/101/129 95/157/128 67/114/131
f 64/108/132 95/157/128 61/103/130
f 95/157/128 70/119/133 67/114/131
f 95/157/128 64/108/132 96/158/134
f 65/111/135 96/158/134 64/108/132
f 96/158/134 65/111/135 77/133/136
f 70/119/133 95/157/128 97/159/137
f 97/159/137 71/122/138 70/119/133
f 71/122/138 97/159/137 81/139/139
f 96/158/134 98/160/140 95/157/128
f 95/157/128 98/160/140 97/159/137
f 77/133/136 98/160/140 96/158/134
f 97/159/137 98/160/140 81/139/139
f 98/160/140 77/133/136 75/130/141
f 79/136/142 81/139/139 98/160/140
f 74/128/143 98/160/140 75/130/141
f 98/160/140 74/128/143 79/136/142
l 39 40
o Fenceandother_polySurface37_pCube122_6
v -1.509468 3.941520 -6.865345
v -3.001621 3.941520 -6.865345
v -3.001621 2.810678 -6.865346
v -1.509468 2.810678 -6.865346
v -2.219812 8.270308 -7.011237
v -2.291281 8.270308 -6.922845
v -2.219812 8.270308 -6.922845
v -2.291281 8.270308 -7.011237
v -2.291281 3.941520 -6.922854
v -2.219812 3.941520 -6.922854
v -2.219812 3.941520 -7.011246
v -2.291281 3.941520 -7.011246
v -3.001621 3.941521 -7.348107
v -1.525178 3.925812 -7.386025
v -2.985912 3.925812 -7.386025
v -1.509468 3.941521 -7.348107
v -3.001621 2.810679 -7.348109
v -1.509468 2.810679 -7.348109
v -1.525178 2.826387 -7.386027
v -2.985912 2.826387 -7.386027
v -2.947986 3.887887 -7.401741
v -1.563102 3.887887 -7.401741
v -1.563102 2.864313 -7.401743
v -2.947986 2.864313 -7.401743
vn -0.0000 -0.0000 1.0000
vn -0.0000 1.0000 -0.0000
vn 1.0000 -0.0000 -0.0000
vn -0.0000 -0.0000 -1.0000
vn -1.0000 -0.0000 -0.0000
vn -0.0000 0.9975 -0.0707
vn -0.0000 0.9224 -0.3863
vn -0.0000 -1.0000 -0.0000
vn -0.0000 -0.9997 -0.0236
vn -0.0000 -0.9224 -0.3863
vn 0.9997 -0.0000 -0.0236
vn 0.9224 -0.0000 -0.3863
vn -0.9997 -0.0000 -0.0236
vn -0.9224 -0.0000 -0.3863
vn -0.0000 0.3863 -0.9224
vn -0.0157 0.0236 -0.9996
vn 0.0157 0.0236 -0.9996
vn 0.0157 -0.0236 -0.9996
vn 0.3863 -0.0000 -0.9224
vn -0.0157 -0.0236 -0.9996
vn -0.0000 -0.3863 -0.9224
vn -0.3863 -0.0000 -0.9224
vt 0.083740 0.295898
vt 0.503906 0.011230
vt 0.503906 0.430664
vt 0.083740 0.128906
vt 0.503906 0.430664
vt 0.503906 0.011230
vt 0.210327 0.128906
vt 0.503418 0.430664
vt 0.503906 0.011230
vt 0.210327 0.295898
vt 0.503418 0.011230
vt 0.503906 0.430664
vt 0.982422 0.319336
vt 0.959473 0.971954
vt 0.961914 0.300293
vt 0.988770 0.971954
vt 0.982422 0.300293
vt 0.942871 0.971954
vt 0.961914 0.319336
vt 0.972656 0.971954
vt 0.961914 0.300293
vt 0.988770 0.234375
vt 0.488037 0.210938
vt 0.982422 0.300293
vt 0.942871 0.234375
vt 0.488037 0.230957
vt 0.959473 0.234375
vt 0.463135 0.230957
vt 0.972656 0.234375
vt 0.463135 0.210938
vt 0.368164 0.430664
vt 0.018448 0.435547
vt 0.368408 0.011230
vt 0.026077 0.016602
vt 0.027130 0.428223
vt 0.368164 0.011230
vt 0.017349 0.008789
vt 0.368408 0.430664
vt 0.367920 0.430664
vt 0.368164 0.011230
vt 0.349609 0.435547
vt 0.367920 0.011230
vt 0.368164 0.430664
vt 0.348389 0.008789
vt 0.339600 0.016113
vt 0.340820 0.427734
vt 0.038422 0.416992
vt 0.037415 0.027832
vt 0.328369 0.027344
vt 0.329346 0.416504
s 1
usemtl Fence
f 99/161/144 100/164/144 101/167/144
f 99/161/144 101/167/144 102/170/144
f 103/173/145 104/175/145 105/177/145
f 104/175/145 103/173/145 106/179/145
f 104/175/144 107/181/144 105/177/144
f 105/177/144 107/181/144 108/184/144
f 109/187/146 103/174/146 108/185/146
f 105/178/146 108/185/146 103/174/146
f 110/189/147 106/180/147 109/187/147
f 109/187/147 106/180/147 103/174/147
f 104/176/148 110/189/148 107/182/148
f 110/189/148 104/176/148 106/180/148
f 111/192/149 112/194/150 113/195/150
f 112/194/150 111/192/149 114/197/149
f 102/171/151 101/168/151 115/199/152
f 102/171/151 115/199/152 116/202/152
f 117/205/153 115/201/152 118/206/153
f 116/204/152 115/201/152 117/205/153
f 116/203/154 114/196/154 102/172/146
f 99/162/146 102/172/146 114/196/154
f 114/197/154 116/204/154 112/194/155
f 112/194/155 116/204/154 117/205/155
f 100/165/148 115/200/156 101/169/148
f 115/200/156 100/165/148 111/191/156
f 113/195/157 115/201/156 111/192/156
f 115/201/156 113/195/157 118/206/157
f 113/195/158 112/194/158 119/207/159
f 119/207/159 112/194/158 120/208/160
f 121/209/161 119/207/159 120/208/160
f 112/194/162 121/209/161 120/208/160
f 121/209/161 112/194/162 117/205/162
f 121/209/161 122/210/163 119/207/159
f 117/205/164 122/210/163 121/209/161
f 122/210/163 117/205/164 118/206/164
f 122/210/163 113/195/165 119/207/159
f 118/206/165 113/195/165 122/210/163
f 114/198/149 109/188/145 99/163/145
f 111/193/149 109/188/145 114/198/149
f 108/186/145 99/163/145 109/188/145
f 109/188/145 111/193/149 110/190/145
f 108/186/145 100/166/145 99/163/145
f 100/166/145 110/190/145 111/193/149
f 100/166/145 108/186/145 107/183/145
f 110/190/145 100/166/145 107/183/145
