# Blender 3.5.1
# www.blender.org
mtllib lt2badan.mtl
o Shop_Low_5
v 5.738409 11.057489 -1.173944
v 5.738409 11.057486 1.174347
v -3.849927 9.838132 -1.161180
v -3.849927 11.057489 -1.161178
v 5.616767 9.838128 1.174345
v 5.616767 9.838132 -1.173946
v 5.616767 11.057489 -1.173944
v 5.616767 11.057486 1.174347
v -3.728286 9.838132 -1.161180
v -3.728286 9.838128 1.160924
v -3.728286 11.057486 1.160926
v -3.728286 11.057489 -1.161178
v 2.627858 10.832768 -3.977247
v 4.885966 10.832768 -3.977247
v 2.657144 10.803485 -3.906543
v 4.856679 10.803485 -3.906543
v 4.885966 9.218929 -3.977250
v 2.627858 9.218929 -3.977250
v 2.657144 9.248217 -3.906546
v 4.856679 9.248217 -3.906546
v -2.629216 8.789617 -4.054143
v 5.648436 8.822073 4.204965
v 5.616767 8.822074 4.038383
v 5.586928 8.822074 4.110422
v 5.616767 8.822078 1.853516
v 5.616767 8.822085 -1.853121
v 5.616767 8.822089 -4.038349
v 5.586928 8.822089 -4.110387
v -3.759954 8.822090 -4.204931
v -3.728286 8.822089 -4.038349
v -3.698447 8.822089 -4.110387
v -3.728286 8.822085 -1.835907
v -3.728286 8.822078 1.835418
v -3.728286 8.822074 4.038383
v -3.759954 8.822073 4.204965
v -3.698447 8.822074 4.110422
v 5.586928 12.073528 4.110428
v 5.616767 12.073528 4.038389
v 5.616767 12.073532 1.853522
v 5.616767 12.073540 -1.853115
v 5.616767 12.073544 -4.038342
v 5.586928 12.073544 -4.110381
v 0.963636 12.188862 -4.327401
v -3.930023 12.091875 -4.327402
v -3.930023 12.188862 -4.327401
v 0.963636 12.091875 -4.327402
v 5.818504 12.188862 -4.327401
v 5.818504 12.091875 -4.327402
v 5.514889 12.073544 -4.140220
v 5.514889 8.822089 -4.140226
v 0.963120 12.073544 -4.140220
v 0.963120 8.822089 -4.140226
v -3.626408 8.822089 -4.140226
v -3.626408 12.073544 -4.140220
v -3.698447 12.073544 -4.110381
v -3.728286 12.073544 -4.038342
v -3.728286 12.073540 -1.835900
v -3.728286 12.073532 1.835425
v -3.728286 12.073528 4.038389
v -3.698447 12.073528 4.110428
v -3.706972 12.207176 4.102514
v -3.655516 12.207176 4.140267
v -3.706972 12.207191 -4.102469
v -3.655516 12.207191 -4.140220
v 0.963120 12.207191 -4.140220
v 5.543998 12.207191 -4.140220
v 5.595454 12.207191 -4.102565
v -3.930023 12.188845 4.327449
v -3.930023 12.091858 4.327448
v 0.963636 12.091858 4.327448
v 5.818504 12.091858 4.327448
v -3.930023 12.188849 1.885613
v -3.930023 12.091863 1.885613
v -3.930023 12.091870 -1.886103
v -3.930023 12.188857 -1.886102
v 5.818504 12.091863 1.904205
v 5.818504 12.188849 1.904205
v 5.818504 12.188857 -1.903788
v 5.818504 12.091870 -1.903788
v 2.727848 10.732780 -3.877257
v 2.727848 9.318920 -3.877260
v 4.785976 9.318920 -3.877260
v 4.785976 10.732780 -3.877257
v -3.626408 8.822074 4.140261
v 0.963120 8.822074 4.140261
v 5.514889 8.822074 4.140261
v -3.626408 12.073528 4.140267
v 0.963120 12.073528 4.140267
v 5.514889 12.073528 4.140267
v -3.764282 12.199677 4.176264
v -3.728286 12.207176 4.011369
v -3.728286 12.207180 1.835425
v -3.728286 12.207184 0.009473
v -3.728286 12.207188 -1.835900
v -3.728286 12.207191 -4.011331
v -3.764282 12.199694 -4.176216
v 5.652764 12.199694 -4.176216
v 5.616767 12.207180 1.853522
v 5.616767 12.207184 0.009741
v 5.616767 12.207188 -1.853114
v 5.616767 12.207191 -4.011660
v -3.778681 12.084026 4.190662
v -3.778681 12.084044 -4.190615
v 5.667162 12.084026 4.190662
v 5.667162 12.084044 -4.190615
vn -0.0000 -0.0000 -1.0000
vn -0.0000 1.0000 -0.0000
vn -0.0000 0.9997 0.0236
vn -0.0000 0.9224 0.3862
vn -0.0000 0.9224 0.3863
vn -0.0000 -0.9997 0.0236
vn -0.0000 -0.9224 0.3863
vn 0.9997 -0.0000 0.0236
vn 0.9224 -0.0000 0.3863
vn -0.9997 -0.0000 0.0236
vn -0.9224 -0.0000 0.3863
vn 0.9999 -0.0001 0.0158
vn 0.9999 -0.0000 0.0157
vn 1.0000 -0.0000 -0.0000
vn 0.9999 0.0001 -0.0158
vn 0.9999 -0.0000 -0.0157
vn 0.9224 -0.0000 -0.3863
vn 0.3863 -0.0000 -0.9224
vn 0.0079 -0.0002 -1.0000
vn 0.0079 -0.0000 -1.0000
vn -0.0079 -0.0000 -1.0000
vn -0.3863 -0.0000 -0.9224
vn -0.9224 -0.0000 -0.3863
vn -0.9999 -0.0001 -0.0158
vn -0.9999 -0.0000 -0.0158
vn -1.0000 -0.0000 -0.0000
vn -0.9999 -0.0000 0.0157
vn -0.3863 -0.0000 0.9224
vn -0.0157 0.0315 0.9994
vn -0.0158 -0.0315 0.9994
vn -0.0000 -0.3863 0.9224
vn 0.0158 -0.0315 0.9994
vn 0.0157 0.0315 0.9994
vn -0.0000 0.3863 0.9224
vn 0.3863 -0.0000 0.9224
vn -0.0079 -0.0000 1.0000
vn -0.0000 -0.0000 1.0000
vn 0.0079 0.0001 1.0000
vn 0.0079 -0.0000 1.0000
vn -0.0314 0.9975 0.0629
vn -0.0000 0.9463 0.3233
vn -0.0791 0.9961 0.0395
vn -0.0314 0.9975 0.0628
vn -0.0870 0.9962 -0.0000
vn -0.0314 0.9975 -0.0628
vn -0.0791 0.9961 -0.0395
vn -0.0000 0.9463 -0.3233
vn -0.0000 0.9955 -0.0953
vn -0.0000 0.9405 -0.3398
vn -0.0000 0.9439 -0.3303
vn 0.0314 0.9975 -0.0628
vn 0.0790 0.9961 -0.0396
vn 0.0870 0.9962 -0.0000
vn -0.0314 -0.9975 0.0628
vn -0.0870 -0.9962 -0.0000
vn -0.0634 -0.9960 0.0634
vn -0.0314 -0.9975 -0.0628
vn -0.0634 -0.9960 -0.0634
vn -0.0000 -0.9955 0.0948
vn 0.0314 -0.9975 0.0628
vn 0.0633 -0.9960 0.0633
vn -0.0000 -0.9955 -0.0948
vn -0.0000 -0.9955 -0.0949
vn 0.0314 -0.9975 -0.0628
vn 0.0633 -0.9960 -0.0633
vn 0.0870 -0.9962 -0.0000
vt 0.252441 0.833496
vt 0.252441 0.716797
vt 0.122559 0.717529
vt 0.063965 0.717529
vt 0.315186 0.714600
vt 0.315186 0.835815
vt 0.248413 0.835815
vt 0.248413 0.714600
vt 0.126587 0.715332
vt 0.126587 0.835083
vt 0.059906 0.835083
vt 0.059937 0.715332
vt 0.817383 0.438477
vt 0.813965 0.547119
vt 0.820312 0.439941
vt 0.816406 0.545898
vt 0.892090 0.549805
vt 0.895508 0.440918
vt 0.893066 0.442383
vt 0.889160 0.548340
vt 0.901367 0.664795
vt 0.922363 0.555908
vt 0.900391 0.669678
vt 0.369873 0.559082
vt 0.899902 0.667725
vt 0.369873 0.554932
vt 0.919922 0.554443
vt 0.778809 0.702881
vt 0.370361 0.677979
vt 0.370361 0.872437
vt 0.369873 0.991188
vt 0.369873 0.995415
vt 0.766113 0.704102
vt 0.986816 0.911194
vt 0.987793 0.037109
vt 0.987793 0.906311
vt 0.181396 0.559082
vt 0.988770 0.908447
vt 0.766113 0.997730
vt 0.181396 0.554932
vt 0.990234 0.039062
vt 0.181763 0.678955
vt 0.181763 0.871582
vt 0.987793 0.670654
vt 0.181396 0.991196
vt 0.986816 0.665771
vt 0.922363 0.317383
vt 0.988770 0.668457
vt 0.181396 0.995422
vt 0.919922 0.319336
vt 0.778809 0.996490
vt 0.193604 0.554932
vt 0.881348 0.702881
vt 0.512207 0.452637
vt 0.013374 0.530273
vt 0.193604 0.559082
vt 0.017776 0.530273
vt 0.193237 0.677979
vt 0.151001 0.530273
vt 0.193237 0.872437
vt 0.376953 0.530273
vt 0.193604 0.991188
vt 0.510254 0.530273
vt 0.193604 0.995415
vt 0.663574 0.704102
vt 0.513672 0.516846
vt 0.514648 0.530273
vt 0.263184 0.507812
vt 0.518066 0.488770
vt 0.005657 0.513428
vt 0.518066 0.482422
vt 0.005657 0.507812
vt 0.263184 0.513428
vt 0.518555 0.507812
vt 0.519531 0.540283
vt 0.518555 0.513428
vt 0.519531 0.533936
vt 0.663574 0.706787
vt 0.509766 0.516846
vt 0.766113 0.706787
vt 0.663574 0.850342
vt 0.263184 0.516846
vt 0.766113 0.850342
vt 0.766113 0.995270
vt 0.989258 0.040527
vt 0.663574 0.995274
vt 0.014473 0.516846
vt 0.663574 0.997730
vt 0.005108 0.554932
vt 0.513184 0.492188
vt 0.010559 0.516846
vt 0.005100 0.559082
vt 0.508789 0.492188
vt 0.004787 0.678955
vt 0.374512 0.492188
vt 0.004810 0.871582
vt 0.150513 0.492188
vt 0.005108 0.991196
vt 0.016190 0.492188
vt 0.005116 0.995422
vt 0.881348 0.996490
vt 0.011772 0.492188
vt 0.009361 0.452637
vt 0.008980 0.468750
vt 0.012344 0.478027
vt 0.011772 0.465332
vt 0.512695 0.478027
vt 0.010178 0.500488
vt 0.012962 0.504883
vt 0.263184 0.504883
vt 0.511230 0.504883
vt 0.514160 0.502930
vt 0.514160 0.544434
vt 0.004463 0.461426
vt 0.006710 0.482422
vt 0.006710 0.488770
vt 0.004463 0.456055
vt 0.261963 0.456055
vt 0.517090 0.456055
vt 0.008308 0.533936
vt 0.150513 0.482422
vt 0.150513 0.488770
vt 0.374512 0.488770
vt 0.374512 0.482422
vt 0.151001 0.533936
vt 0.151001 0.540283
vt 0.376953 0.540283
vt 0.376953 0.533936
vt 0.823730 0.443359
vt 0.889648 0.445801
vt 0.885742 0.544678
vt 0.820312 0.542480
vt 0.920410 0.320801
vt 0.778809 0.994030
vt 0.778809 0.849121
vt 0.920898 0.552490
vt 0.778809 0.705322
vt 0.881348 0.994030
vt 0.013275 0.452637
vt 0.881348 0.849121
vt 0.261963 0.452637
vt 0.881348 0.705322
vt 0.508301 0.452637
vt 0.005867 0.465332
vt 0.006710 0.478027
vt 0.017868 0.478027
vt 0.150513 0.478027
vt 0.261963 0.478027
vt 0.374512 0.478027
vt 0.506836 0.478027
vt 0.518066 0.478027
vt 0.007061 0.504883
vt 0.517090 0.504883
vt 0.519531 0.544434
vt 0.151001 0.544434
vt 0.263428 0.544434
vt 0.376953 0.544434
vt 0.508789 0.544434
vt 0.006714 0.492188
vt 0.004463 0.452637
vt 0.518066 0.492188
vt 0.005657 0.516846
vt 0.517090 0.452637
vt 0.008308 0.530273
vt 0.518555 0.516846
vt 0.519531 0.530273
s 1
usemtl Shop
f 6/6/1 7/7/1 1/1/1
f 2/2/2 7/7/2 8/8/2
f 7/7/2 2/2/2 1/1/2
f 11/11/2 12/12/2 4/4/2
f 3/3/1 12/12/1 9/9/1
f 12/12/1 3/3/1 4/4/1
f 14/14/3 15/15/4 16/16/5
f 15/15/4 14/14/3 13/13/3
f 18/18/6 17/17/6 19/19/7
f 19/19/7 17/17/6 20/20/7
f 17/17/8 14/14/8 20/20/9
f 20/20/9 14/14/8 16/16/9
f 13/13/10 19/19/11 15/15/11
f 19/19/11 13/13/10 18/18/10
f 22/21/2 23/23/2 24/25/2
f 29/34/2 30/36/2 31/38/2
f 35/46/2 36/48/2 34/44/2
f 37/52/9 24/26/9 38/56/12
f 23/24/13 38/56/12 24/26/9
f 23/24/13 39/58/14 38/56/12
f 39/58/14 23/24/13 25/29/14
f 25/29/14 8/8/14 39/58/14
f 8/8/14 40/60/14 39/58/14
f 8/8/14 25/29/14 5/5/14
f 40/60/14 8/8/14 7/7/14
f 26/30/14 5/5/14 25/29/14
f 26/30/14 40/60/14 7/7/14
f 5/5/14 26/30/14 6/6/14
f 26/30/14 7/7/14 6/6/14
f 40/60/14 26/30/14 27/31/15
f 40/60/14 27/31/15 41/62/16
f 41/62/16 27/31/15 42/64/17
f 28/32/17 42/64/17 27/31/15
f 43/68/1 44/70/1 45/72/1
f 44/70/1 43/68/1 46/73/1
f 47/74/1 46/73/1 43/68/1
f 46/73/1 47/74/1 48/76/1
f 28/33/18 49/78/19 42/65/18
f 50/80/20 49/78/19 28/33/18
f 50/80/20 51/81/1 49/78/19
f 50/80/20 52/83/1 51/81/1
f 52/83/1 53/84/21 51/81/1
f 53/84/21 54/86/21 51/81/1
f 53/84/21 55/88/22 54/86/21
f 31/39/22 55/88/22 53/84/21
f 31/40/23 56/92/24 55/89/23
f 56/92/24 31/40/23 30/37/25
f 57/94/26 56/92/24 30/37/25
f 32/42/26 57/94/26 30/37/25
f 32/42/26 12/12/26 57/94/26
f 58/96/26 57/94/26 12/12/26
f 12/12/26 32/42/26 9/9/26
f 12/12/26 11/11/26 58/96/26
f 33/43/26 9/9/26 32/42/26
f 11/11/26 33/43/26 58/96/26
f 9/9/26 33/43/26 10/10/26
f 33/43/26 11/11/26 10/10/26
f 34/45/27 58/96/26 33/43/26
f 58/96/26 34/45/27 59/98/27
f 34/45/27 60/100/11 59/98/27
f 60/100/11 34/45/27 36/49/11
f 68/115/26 72/121/26 69/116/26
f 69/116/26 72/121/26 73/122/26
f 72/121/26 74/123/26 73/122/26
f 74/123/26 72/121/26 75/124/26
f 75/124/26 45/71/26 74/123/26
f 74/123/26 45/71/26 44/69/26
f 78/127/14 77/126/14 76/125/14
f 76/125/14 79/128/14 78/127/14
f 79/128/14 48/77/14 78/127/14
f 78/127/14 48/77/14 47/75/14
f 15/15/28 19/19/28 80/129/29
f 80/129/29 19/19/28 81/130/30
f 19/19/31 20/20/31 81/130/30
f 81/130/30 20/20/31 82/131/32
f 83/132/33 80/129/29 81/130/30
f 83/132/33 81/130/30 82/131/32
f 83/132/33 15/15/34 80/129/29
f 16/16/34 15/15/34 83/132/33
f 20/20/35 83/132/33 82/131/32
f 83/132/33 20/20/35 16/16/35
f 35/47/2 84/133/2 36/50/2
f 22/22/2 24/27/2 86/136/2
f 29/35/2 31/41/2 53/85/2
f 60/101/28 36/51/28 87/138/36
f 87/138/36 36/51/28 84/134/36
f 85/135/37 87/138/36 84/134/36
f 87/138/36 85/135/37 88/140/37
f 86/137/38 88/140/37 85/135/37
f 88/140/37 86/137/38 89/142/39
f 89/142/39 86/137/38 37/53/35
f 37/53/35 86/137/38 24/28/35
f 90/144/40 62/106/41 61/104/42
f 68/114/43 62/106/41 90/144/40
f 90/145/40 61/105/42 91/146/44
f 91/146/44 68/115/43 90/145/40
f 72/121/44 68/115/43 91/146/44
f 91/146/44 92/147/44 72/121/44
f 93/148/44 72/121/44 92/147/44
f 75/124/44 72/121/44 93/148/44
f 93/148/44 94/149/44 75/124/44
f 95/150/44 75/124/44 94/149/44
f 75/124/44 95/150/44 45/71/45
f 45/71/45 95/150/44 96/151/45
f 96/151/45 95/150/44 63/107/46
f 96/152/45 63/108/46 64/109/47
f 64/109/47 45/72/45 96/152/45
f 45/72/45 64/109/47 43/68/48
f 43/68/48 64/109/47 65/110/49
f 66/111/50 43/68/48 65/110/49
f 43/68/48 66/111/50 47/74/51
f 47/74/51 66/111/50 97/153/51
f 97/153/51 66/111/50 67/112/52
f 77/126/53 99/156/53 98/155/53
f 77/126/53 78/127/53 99/156/53
f 100/157/53 99/156/53 78/127/53
f 78/127/53 101/158/53 100/157/53
f 78/127/53 47/75/51 101/158/53
f 101/158/53 47/75/51 97/154/51
f 97/154/51 67/113/52 101/158/53
f 102/159/54 59/99/55 60/102/56
f 69/116/54 59/99/55 102/159/54
f 73/122/55 59/99/55 69/116/54
f 59/99/55 73/122/55 58/97/55
f 73/122/55 57/95/55 58/97/55
f 57/95/55 73/122/55 74/123/55
f 74/123/55 56/93/55 57/95/55
f 44/69/57 56/93/55 74/123/55
f 56/93/55 44/69/57 103/161/57
f 103/161/57 55/90/58 56/93/55
f 102/160/54 60/103/56 87/139/59
f 87/139/59 69/117/54 102/160/54
f 70/118/59 69/117/54 87/139/59
f 70/118/59 87/139/59 88/141/59
f 89/143/59 70/118/59 88/141/59
f 70/118/59 89/143/59 71/119/60
f 71/119/60 89/143/59 104/163/60
f 104/163/60 89/143/59 37/54/61
f 103/162/57 54/87/62 55/91/58
f 44/70/57 54/87/62 103/162/57
f 46/73/63 54/87/62 44/70/57
f 54/87/62 46/73/63 51/82/62
f 46/73/63 49/79/62 51/82/62
f 48/76/64 49/79/62 46/73/63
f 49/79/62 48/76/64 105/165/64
f 105/165/64 42/66/65 49/79/62
f 104/164/60 37/55/61 38/57/66
f 38/57/66 71/120/60 104/164/60
f 71/120/60 38/57/66 76/125/66
f 38/57/66 39/59/66 76/125/66
f 79/128/66 76/125/66 39/59/66
f 39/59/66 40/61/66 79/128/66
f 41/63/66 79/128/66 40/61/66
f 79/128/66 41/63/66 48/77/64
f 48/77/64 41/63/66 105/166/64
f 105/166/64 41/63/66 42/67/65
