# Blender 3.5.1
# www.blender.org
mtllib penyanggabanner.mtl
o Signsplus_2
v 1.311219 11.614647 6.350500
v 0.755745 11.614647 6.350500
v 1.033482 11.741199 6.237614
v 0.755745 11.735939 6.068112
v 1.311219 11.735939 6.068112
v 1.383500 11.592901 6.390791
v 0.732780 11.782258 6.441567
v 0.683463 11.592901 6.390791
v 1.334183 11.782258 6.441567
v 0.732780 11.917385 6.126974
v 1.334183 11.917385 6.126973
v 1.383500 11.750189 6.024602
v 0.683463 11.750189 6.024602
v 1.417268 11.577546 6.426541
v 0.649695 11.577546 6.426541
v 1.417268 11.765545 5.988852
v 0.649695 11.765545 5.988852
v 0.649695 11.551389 6.415306
v 1.417268 11.551389 6.415306
v 1.417268 11.739388 5.977616
v 0.649695 11.739388 5.977616
v 0.671565 11.563288 6.387600
v 1.395398 11.563288 6.387600
v 0.671565 11.727487 6.005322
v 1.395398 11.727487 6.005322
v 3.065989 8.830949 6.518285
v 3.485661 8.839623 5.232455
v 3.486833 8.839622 6.518285
v 3.065989 8.830951 5.232455
v 3.907676 8.830951 5.232455
v 3.907676 8.830949 6.518285
v -2.138516 8.830949 6.518285
v -1.718845 8.839623 5.232455
v -1.717673 8.839622 6.518285
v -2.138516 8.830951 5.232455
v -1.296829 8.830951 5.232455
v -1.296829 8.830949 6.518285
v 0.993813 11.812192 6.062564
v 0.993813 11.870365 5.659863
v 1.002638 11.809686 6.061031
v 1.002638 11.867459 5.659443
v 3.818864 9.159073 6.518285
v 3.818864 9.159075 5.232455
v 3.653905 9.261203 6.518286
v 3.653905 9.261205 5.232456
v 3.319760 9.261205 5.232456
v 3.319760 9.261203 6.518286
v 3.154802 9.159073 6.518285
v 3.154802 9.159075 5.232455
v -1.385642 9.159073 6.518285
v -1.385642 9.159075 5.232455
v -1.550600 9.261203 6.518286
v -1.550600 9.261205 5.232456
v -1.884745 9.261205 5.232456
v -1.884745 9.261203 6.518286
v -2.049704 9.159073 6.518285
v -2.049704 9.159075 5.232455
v 0.980923 11.854121 6.088237
v 0.980923 11.919025 5.666903
v 0.979170 11.845840 6.083166
v 0.979170 11.909413 5.665514
v 0.988509 11.818707 6.066554
v 0.988509 11.877928 5.660957
v 1.077216 11.923396 5.667537
v 1.086040 11.854121 6.088237
v 1.086040 11.919025 5.666903
v 1.077216 11.857888 6.090544
v 0.989748 11.923396 5.667537
v 0.989748 11.857888 6.090544
v 1.087793 11.845840 6.083166
v 1.087793 11.909413 5.665514
v 1.078454 11.818707 6.066554
v 1.078454 11.877928 5.660957
v 1.073150 11.812192 6.062564
v 1.073150 11.870365 5.659863
v 1.064326 11.867459 5.659443
v 1.064326 11.809686 6.061031
v 3.718558 9.173650 6.518286
v 3.255107 9.173650 6.518286
v 3.718408 9.173738 5.232456
v 3.254957 9.173564 5.232456
v -1.485947 9.173650 6.518286
v -1.949398 9.173650 6.518286
v -1.486097 9.173738 5.232456
v -1.949548 9.173564 5.232456
v 1.083956 11.808024 6.060013
v 1.100421 11.859972 6.091819
v 0.983007 11.808024 6.060013
v 0.966543 11.859972 6.091819
vn -0.0000 -0.6665 -0.7455
vn -0.0000 -0.6667 -0.7453
vn -0.0000 -0.6668 -0.7453
vn -0.0000 -0.9995 0.0310
vn 0.2515 -0.8880 -0.3850
vn -0.2515 -0.8880 -0.3850
vn -0.0000 -0.2590 0.9659
vn -0.0000 0.9195 0.3931
vn -0.0000 0.9194 0.3932
vn -0.0000 0.9195 0.3930
vn -0.0000 0.9196 0.3929
vn 0.9690 0.2284 0.0947
vn 0.9690 0.2284 0.0945
vn 0.9690 0.2285 0.0945
vn -0.9690 0.2284 0.0945
vn -0.9690 0.2285 0.0945
vn -0.0000 0.9194 0.3933
vn -0.0000 0.9195 0.3932
vn -0.0000 -0.3931 0.9195
vn -0.0000 -0.3947 0.9188
vn -0.0000 0.3931 -0.9195
vn -0.0000 0.3947 -0.9188
vn -1.0000 -0.0000 -0.0000
vn 1.0000 -0.0000 -0.0000
vn -0.0000 -0.9196 -0.3929
vn -0.0000 -0.9196 -0.3930
vn -0.0000 -0.9195 -0.3930
vn -0.0000 -0.9195 -0.3931
vn -0.0000 -0.5836 -0.8121
vn -0.0000 -0.5835 -0.8121
vn -0.0000 -0.9911 0.1334
vn 0.3613 -0.8562 -0.3692
vn -0.3614 -0.8562 -0.3692
vn -0.3613 -0.8562 -0.3692
vn -0.6903 -0.7139 0.1177
vn 0.0236 -0.9997 -0.0000
vn 0.0235 -0.9997 -0.0000
vn -0.6903 -0.7139 -0.1177
vn -0.0236 -0.9997 -0.0000
vn 0.6862 -0.7178 -0.1183
vn 0.6862 -0.7177 0.1183
vn -0.0235 -0.9997 -0.0000
vn 0.0223 -0.9998 -0.0000
vn -0.3063 -0.9425 -0.1335
vn -0.0393 -0.9892 -0.1413
vn -0.0392 -0.9890 -0.1423
vn 0.8474 0.5021 0.1726
vn 0.8474 0.5021 -0.1726
vn 0.1967 0.9517 0.2359
vn 0.1966 0.9517 -0.2359
vn -0.1966 0.9517 -0.2359
vn -0.1966 0.9517 0.2360
vn -0.8474 0.5021 0.1726
vn -0.8474 0.5021 -0.1726
vn -0.9830 0.1809 0.0315
vn -0.9907 -0.1337 -0.0236
vn -0.9832 -0.1809 -0.0236
vn -0.9394 -0.3395 -0.0474
vn -0.9339 -0.3532 -0.0549
vn -0.8091 -0.5813 -0.0864
vn 0.0474 0.9872 0.1525
vn 0.4337 0.8910 0.1341
vn 0.0395 0.9879 0.1502
vn -0.0474 0.9875 0.1501
vn -0.0395 0.9879 0.1502
vn -0.4337 0.8910 0.1341
vn 0.9907 -0.1337 -0.0236
vn 0.9830 0.1809 0.0315
vn 0.9830 0.1808 0.0315
vn 0.9832 -0.1809 -0.0236
vn 0.9394 -0.3395 -0.0474
vn 0.9339 -0.3532 -0.0549
vn 0.8091 -0.5813 -0.0864
vn 0.0392 -0.9892 -0.1413
vn 0.0393 -0.9890 -0.1426
vn 0.3063 -0.9425 -0.1335
vn -0.0000 0.1414 -0.9899
vn -0.0000 0.1415 -0.9899
vn -0.0000 0.1416 -0.9899
vn -0.0000 0.1417 -0.9899
vn -0.0000 0.1413 -0.9900
vn -0.0000 -0.0000 1.0000
vn -0.0000 -0.0000 -1.0000
vn -0.0000 0.5222 -0.8528
vn -0.0000 0.5215 -0.8532
vn -0.0000 0.5214 -0.8533
vn -0.0000 0.5216 -0.8532
vn -0.0000 0.5220 -0.8530
vn -0.0000 0.5215 -0.8533
vn -0.0000 0.5217 -0.8531
vn -0.0000 0.5218 -0.8531
vn 0.0001 0.5221 -0.8529
vt 0.908691 0.718262
vt 0.833008 0.718262
vt 0.871094 0.697021
vt 0.833008 0.675537
vt 0.908691 0.675537
vt 0.955566 0.643555
vt 0.930664 0.529785
vt 0.955566 0.505859
vt 0.930664 0.619629
vt 0.874023 0.529785
vt 0.874023 0.619629
vt 0.860352 0.643555
vt 0.860352 0.505859
vt 0.965332 0.651367
vt 0.965332 0.498535
vt 0.845215 0.651367
vt 0.845215 0.498535
vt 0.969727 0.495117
vt 0.818359 0.730713
vt 0.969727 0.654297
vt 0.923828 0.730713
vt 0.840820 0.654297
vt 0.923828 0.663086
vt 0.840820 0.495117
vt 0.818359 0.663086
vt 0.821289 0.726562
vt 0.920410 0.726562
vt 0.821289 0.667236
vt 0.920410 0.667236
vt 0.710938 0.119629
vt 0.272217 0.493164
vt 0.020737 0.491211
vt 0.724609 0.081543
vt 0.136475 0.615723
vt 0.723145 0.120117
vt 0.136353 0.491211
vt 0.711914 0.081055
vt 0.272217 0.733154
vt 0.251709 0.615723
vt 0.737305 0.082031
vt 0.533691 0.733154
vt 0.020462 0.615723
vt 0.735840 0.120605
vt 0.533691 0.493164
vt 0.251953 0.491211
vt 0.710449 0.119629
vt 0.269287 0.492188
vt 0.020340 0.490723
vt 0.724121 0.081543
vt 0.136353 0.615234
vt 0.723145 0.120117
vt 0.135986 0.490723
vt 0.711914 0.081055
vt 0.269287 0.733154
vt 0.251709 0.615234
vt 0.736816 0.082031
vt 0.532227 0.733154
vt 0.020325 0.615234
vt 0.735840 0.120605
vt 0.532227 0.492188
vt 0.251709 0.490723
vt 0.930176 0.718506
vt 0.860352 0.566650
vt 0.994141 0.718506
vt 0.721191 0.095703
vt 0.930176 0.719727
vt 0.930176 0.675537
vt 0.860352 0.568604
vt 0.994141 0.719727
vt 0.994141 0.675537
vt 0.721191 0.095703
vt 0.470459 0.493164
vt 0.227661 0.580078
vt 0.470459 0.733154
vt 0.044861 0.704590
vt 0.434326 0.493164
vt 0.182373 0.608154
vt 0.434326 0.733154
vt 0.090210 0.732666
vt 0.371826 0.733154
vt 0.182129 0.732666
vt 0.371826 0.493164
vt 0.090515 0.608154
vt 0.335693 0.493164
vt 0.045166 0.580078
vt 0.335693 0.733154
vt 0.227417 0.704590
vt 0.468750 0.492188
vt 0.227295 0.579834
vt 0.468750 0.733154
vt 0.044739 0.704346
vt 0.432129 0.492188
vt 0.181885 0.607910
vt 0.432129 0.733154
vt 0.090088 0.732422
vt 0.369629 0.733154
vt 0.181885 0.732422
vt 0.369629 0.492188
vt 0.090088 0.607910
vt 0.333008 0.492188
vt 0.044769 0.579834
vt 0.333008 0.733154
vt 0.227295 0.704346
vt 0.930176 0.710693
vt 0.874023 0.566162
vt 0.994141 0.710693
vt 0.721191 0.095215
vt 0.930176 0.712158
vt 0.868164 0.565186
vt 0.994141 0.712158
vt 0.721191 0.095215
vt 0.930176 0.717041
vt 0.860352 0.565186
vt 0.994141 0.717041
vt 0.721191 0.095703
vt 0.994141 0.695557
vt 0.721191 0.095703
vt 0.930176 0.694092
vt 0.874023 0.583252
vt 0.994141 0.694092
vt 0.721191 0.095703
vt 0.930176 0.695557
vt 0.874023 0.581543
vt 0.994141 0.709229
vt 0.721191 0.095215
vt 0.930176 0.709229
vt 0.874023 0.567871
vt 0.930176 0.692627
vt 0.868164 0.584229
vt 0.994141 0.692627
vt 0.721191 0.095703
vt 0.930176 0.687744
vt 0.865723 0.584229
vt 0.994141 0.687744
vt 0.721191 0.095703
vt 0.930176 0.686279
vt 0.860352 0.582764
vt 0.994141 0.686279
vt 0.721191 0.095703
vt 0.994141 0.685059
vt 0.721191 0.095703
vt 0.930176 0.685059
vt 0.860352 0.580811
vt 0.200073 0.584229
vt 0.072693 0.584229
vt 0.072510 0.708740
vt 0.199829 0.708740
vt 0.199707 0.583740
vt 0.072327 0.583740
vt 0.072327 0.708252
vt 0.199707 0.708252
vt 0.860352 0.584229
vt 0.874023 0.585205
vt 0.860352 0.565186
vt 0.874023 0.564453
s 1
usemtl Sign
f 1/1/1 2/2/2 3/3/3
f 4/4/4 5/5/4 3/3/4
f 2/2/5 4/4/5 3/3/5
f 5/5/6 1/1/6 3/3/6
f 6/6/7 7/7/7 8/8/7
f 7/7/7 6/6/7 9/9/7
f 9/9/8 10/10/9 7/7/10
f 10/10/9 9/9/8 11/11/11
f 12/12/12 9/9/13 6/6/14
f 9/9/13 12/12/12 11/11/13
f 7/7/15 13/13/16 8/8/15
f 13/13/16 7/7/15 10/10/15
f 14/14/10 8/8/17 15/15/18
f 8/8/17 14/14/10 6/6/8
f 13/13/8 12/12/8 16/16/10
f 13/13/8 16/16/10 17/17/8
f 15/15/18 13/13/8 17/17/8
f 13/13/8 15/15/18 8/8/17
f 14/14/10 12/12/8 6/6/8
f 14/14/10 16/16/10 12/12/8
f 18/18/19 14/14/19 15/15/20
f 14/14/19 18/18/19 19/20/20
f 20/22/21 21/24/22 17/17/21
f 20/22/21 17/17/21 16/16/22
f 18/18/23 17/17/23 21/24/23
f 17/17/23 18/18/23 15/15/23
f 19/20/24 20/22/24 16/16/24
f 19/20/24 16/16/24 14/14/24
f 22/26/25 19/21/26 18/19/27
f 19/21/26 22/26/25 23/27/27
f 20/23/28 24/28/27 21/25/27
f 24/28/27 20/23/28 25/29/26
f 18/19/27 21/25/27 24/28/27
f 18/19/27 24/28/27 22/26/25
f 19/21/26 25/29/26 20/23/28
f 25/29/26 19/21/26 23/27/27
f 22/26/29 1/1/30 23/27/30
f 1/1/30 22/26/29 2/2/30
f 24/28/31 25/29/31 5/5/31
f 24/28/31 5/5/31 4/4/31
f 4/4/32 2/2/32 22/26/32
f 22/26/32 24/28/32 4/4/32
f 23/27/33 5/5/34 25/29/34
f 5/5/34 23/27/33 1/1/34
f 26/30/35 27/33/36 28/35/37
f 27/33/36 26/30/35 29/37/38
f 28/35/39 30/40/40 31/43/41
f 30/40/40 28/35/39 27/33/42
f 32/46/35 33/49/43 34/51/37
f 33/49/43 32/46/35 35/53/38
f 34/51/39 36/56/40 37/59/41
f 36/56/40 34/51/39 33/49/42
f 38/62/44 39/64/44 40/66/45
f 40/66/45 39/64/44 41/69/46
f 31/44/41 30/41/40 42/72/47
f 42/72/47 30/41/40 43/74/48
f 42/72/47 43/74/48 44/76/49
f 44/76/49 43/74/48 45/78/50
f 44/76/49 45/78/50 46/80/51
f 46/80/51 47/82/52 44/76/49
f 47/82/52 46/80/51 48/84/53
f 48/84/53 46/80/51 49/86/54
f 48/84/53 49/86/54 29/38/38
f 29/38/38 26/31/35 48/84/53
f 37/60/41 36/57/40 50/88/47
f 50/88/47 36/57/40 51/90/48
f 50/88/47 51/90/48 52/92/49
f 52/92/49 51/90/48 53/94/50
f 52/92/49 53/94/50 54/96/51
f 54/96/51 55/98/52 52/92/49
f 55/98/52 54/96/51 56/100/53
f 56/100/53 54/96/51 57/102/54
f 56/100/53 57/102/54 35/54/38
f 35/54/38 32/47/35 56/100/53
f 58/104/55 59/106/55 60/108/56
f 60/108/56 59/106/55 61/110/57
f 61/110/57 62/112/58 60/108/56
f 62/112/58 61/110/57 63/114/59
f 62/112/58 63/114/59 38/62/60
f 38/62/60 63/114/59 39/64/60
f 64/116/61 65/118/62 66/120/62
f 65/118/62 64/116/61 67/122/63
f 68/124/64 67/122/63 64/116/61
f 67/122/63 68/124/64 69/126/65
f 69/126/65 68/124/64 58/104/66
f 58/104/66 68/124/64 59/106/66
f 70/128/67 66/120/68 65/118/69
f 66/120/68 70/128/67 71/130/70
f 72/132/71 71/130/70 70/128/67
f 71/130/70 72/132/71 73/134/72
f 74/136/73 73/134/72 72/132/71
f 73/134/72 74/136/73 75/138/73
f 76/140/74 40/67/45 41/70/46
f 40/67/45 76/140/74 77/142/75
f 75/138/76 77/142/75 76/140/74
f 77/142/75 75/138/76 74/136/76
f 71/131/77 64/117/78 66/121/78
f 73/135/78 64/117/78 71/131/77
f 73/135/78 76/141/79 64/117/78
f 76/141/79 73/135/78 75/139/78
f 76/141/79 68/125/77 64/117/78
f 68/125/77 76/141/79 41/71/80
f 63/115/78 41/71/80 39/65/81
f 63/115/78 68/125/77 41/71/80
f 68/125/77 63/115/78 61/111/77
f 68/125/77 61/111/77 59/107/79
f 78/144/82 31/45/41 42/73/47
f 78/144/82 42/73/47 44/77/49
f 31/45/41 78/144/82 28/36/82
f 44/77/49 28/36/82 78/144/82
f 28/36/82 44/77/49 47/83/52
f 28/36/82 47/83/52 79/145/82
f 79/145/82 26/32/35 28/36/82
f 79/145/82 47/83/52 48/85/53
f 26/32/35 79/145/82 48/85/53
f 30/42/40 80/146/83 43/75/48
f 80/146/83 45/79/50 43/75/48
f 30/42/40 27/34/83 80/146/83
f 27/34/83 45/79/50 80/146/83
f 45/79/50 27/34/83 46/81/51
f 46/81/51 27/34/83 81/147/83
f 27/34/83 29/39/38 81/147/83
f 81/147/83 49/87/54 46/81/51
f 29/39/38 49/87/54 81/147/83
f 82/148/82 37/61/41 50/89/47
f 82/148/82 50/89/47 52/93/49
f 37/61/41 82/148/82 34/52/82
f 52/93/49 34/52/82 82/148/82
f 34/52/82 52/93/49 55/99/52
f 34/52/82 55/99/52 83/149/82
f 83/149/82 32/48/35 34/52/82
f 83/149/82 55/99/52 56/101/53
f 32/48/35 83/149/82 56/101/53
f 36/58/40 84/150/83 51/91/48
f 84/150/83 53/95/50 51/91/48
f 36/58/40 33/50/83 84/150/83
f 33/50/83 53/95/50 84/150/83
f 53/95/50 33/50/83 54/97/51
f 54/97/51 33/50/83 85/151/83
f 33/50/83 35/55/38 85/151/83
f 85/151/83 57/103/54 54/97/51
f 35/55/38 57/103/54 85/151/83
f 86/152/84 74/137/85 72/133/86
f 70/129/87 86/152/84 72/133/86
f 86/152/84 77/143/88 74/137/85
f 86/152/84 70/129/87 87/153/87
f 87/153/87 70/129/87 65/119/89
f 87/153/87 65/119/89 67/123/90
f 69/127/84 87/153/87 67/123/90
f 88/154/89 77/143/88 86/152/84
f 77/143/88 88/154/89 40/68/89
f 88/154/89 38/63/85 40/68/89
f 88/154/89 62/113/86 38/63/85
f 88/154/89 60/109/87 62/113/86
f 12/12/86 88/154/89 86/152/84
f 12/12/86 86/152/84 87/153/87
f 88/154/89 12/12/86 13/13/84
f 12/12/86 87/153/87 11/11/91
f 87/153/87 10/10/84 11/11/91
f 13/13/84 89/155/84 88/154/89
f 89/155/84 13/13/84 10/10/84
f 88/154/89 89/155/84 60/109/87
f 10/10/84 87/153/87 89/155/84
f 87/153/87 69/127/84 89/155/84
f 89/155/84 58/105/92 60/109/87
f 89/155/84 69/127/84 58/105/92
