# Blender 3.5.1
# www.blender.org
mtllib tiang_banner1.mtl
o StallMesh
v -0.088977 0.000745 -0.004492
v -0.087763 0.000745 -0.002701
v -0.085638 0.000745 -0.002292
v -0.083846 0.000745 -0.003505
v -0.086207 0.000745 -0.005061
v -0.114342 0.148333 -0.005061
v -0.112582 0.147395 -0.007423
v -0.112970 0.148221 -0.007077
v -0.113578 0.148478 -0.006242
v -0.114670 0.147000 -0.007831
v -0.114752 0.147883 -0.007425
v -0.114622 0.148280 -0.006446
v -0.116430 0.146667 -0.006617
v -0.116255 0.147599 -0.006389
v -0.115503 0.148114 -0.005839
v -0.116832 0.146592 -0.004492
v -0.116597 0.147534 -0.004575
v -0.115703 0.148076 -0.004776
v -0.115639 0.146817 -0.002700
v -0.115579 0.147727 -0.003046
v -0.115107 0.148189 -0.003881
v -0.113550 0.147212 -0.002292
v -0.113797 0.148064 -0.002698
v -0.114062 0.148386 -0.003677
v -0.111790 0.147545 -0.003506
v -0.112294 0.148348 -0.003734
v -0.113182 0.148553 -0.004284
v -0.111389 0.147621 -0.005631
v -0.111952 0.148413 -0.005548
v -0.112982 0.148590 -0.005346
v -0.109836 0.121446 -0.007831
v -0.107748 0.121841 -0.007423
v -0.106555 0.122067 -0.005631
v -0.106956 0.121991 -0.003506
v -0.108716 0.121658 -0.002292
v -0.110805 0.121263 -0.002700
v -0.111997 0.121037 -0.004492
v -0.111596 0.121113 -0.006617
v -0.108585 0.126266 -0.007423
v -0.107392 0.126492 -0.005631
v -0.107793 0.126416 -0.003506
v -0.109554 0.126083 -0.002292
v -0.111642 0.125688 -0.002700
v -0.112835 0.125462 -0.004492
v -0.112434 0.125538 -0.006617
v -0.110673 0.125871 -0.007831
v -0.103905 0.090092 -0.007831
v -0.105665 0.089759 -0.006617
v -0.106066 0.089683 -0.004492
v -0.104873 0.089908 -0.002700
v -0.102785 0.090303 -0.002292
v -0.101025 0.090636 -0.003506
v -0.100624 0.090712 -0.005631
v -0.101817 0.090487 -0.007423
v -0.102754 0.095440 -0.007423
v -0.101561 0.095666 -0.005631
v -0.101962 0.095590 -0.003506
v -0.103722 0.095257 -0.002292
v -0.105810 0.094862 -0.002700
v -0.107003 0.094636 -0.004492
v -0.106602 0.094712 -0.006617
v -0.104842 0.095045 -0.007831
v -0.098544 0.061751 -0.007831
v -0.100304 0.061418 -0.006617
v -0.100705 0.061342 -0.004492
v -0.099512 0.061567 -0.002700
v -0.097424 0.061962 -0.002292
v -0.095664 0.062295 -0.003506
v -0.095263 0.062371 -0.005631
v -0.096456 0.062146 -0.007423
v -0.097510 0.056286 -0.007831
v -0.099270 0.055953 -0.006617
v -0.099671 0.055877 -0.004492
v -0.098479 0.056103 -0.002700
v -0.096390 0.056498 -0.002292
v -0.094630 0.056831 -0.003506
v -0.094229 0.056906 -0.005631
v -0.095422 0.056681 -0.007423
v -0.101242 0.090595 -0.008311
v -0.104116 0.090052 -0.008872
v -0.105053 0.095005 -0.008872
v -0.102179 0.095549 -0.008311
v -0.106538 0.089594 -0.007202
v -0.107475 0.094547 -0.007202
v -0.107090 0.089489 -0.004277
v -0.108027 0.094443 -0.004277
v -0.105448 0.089800 -0.001812
v -0.106385 0.094753 -0.001812
v -0.102575 0.090343 -0.001250
v -0.103512 0.095297 -0.001250
v -0.100153 0.090802 -0.002921
v -0.101090 0.095755 -0.002921
v -0.099601 0.090906 -0.005846
v -0.100538 0.095860 -0.005846
v -0.110047 0.121406 -0.008872
v -0.107173 0.121950 -0.008311
v -0.110884 0.125831 -0.008872
v -0.108011 0.126375 -0.008311
v -0.105532 0.122260 -0.005846
v -0.106369 0.126685 -0.005846
v -0.106084 0.122156 -0.002921
v -0.106921 0.126581 -0.002921
v -0.108506 0.121698 -0.001250
v -0.109343 0.126123 -0.001250
v -0.111379 0.121154 -0.001812
v -0.112216 0.125579 -0.001812
v -0.113021 0.120844 -0.004277
v -0.113858 0.125269 -0.004277
v -0.112469 0.120948 -0.007202
v -0.113306 0.125373 -0.007202
v -0.097721 0.056246 -0.008872
v -0.100143 0.055788 -0.007202
v -0.101177 0.061253 -0.007202
v -0.098755 0.061711 -0.008872
v -0.100695 0.055683 -0.004277
v -0.101729 0.061148 -0.004277
v -0.099053 0.055994 -0.001812
v -0.100087 0.061459 -0.001812
v -0.096180 0.056537 -0.001250
v -0.097214 0.062002 -0.001250
v -0.093758 0.056996 -0.002921
v -0.094791 0.062460 -0.002921
v -0.093206 0.057100 -0.005846
v -0.094239 0.062565 -0.005846
v -0.094847 0.056790 -0.008311
v -0.095881 0.062254 -0.008311
v -0.105810 0.075054 -0.003984
v -0.111924 0.107378 -0.003984
v -0.116545 0.139475 -0.004277
v -0.098008 0.041477 -0.004277
vn -0.0000 -1.0000 -0.0000
vn 0.1853 0.0351 -0.9821
vn -0.5513 -0.1043 -0.8278
vn -0.9649 -0.1825 -0.1886
vn -0.8134 -0.1539 0.5610
vn -0.1853 -0.0351 0.9821
vn 0.5513 0.1043 0.8278
vn 0.9649 0.1825 0.1886
vn 0.8134 0.1539 -0.5610
vn -0.1859 0.9826 -0.0000
vn 0.6724 0.5318 -0.5148
vn 0.1266 0.9702 -0.2066
vn -0.1046 0.9265 -0.3616
vn 0.0962 0.4228 -0.9011
vn -0.3758 0.8752 -0.3048
vn -0.5797 0.2949 -0.7596
vn -0.5281 0.8463 -0.0695
vn -0.9593 0.2231 -0.1731
vn -0.4723 0.8569 0.2066
vn -0.8202 0.2494 0.5148
vn -0.2411 0.9006 0.3616
vn -0.2439 0.3584 0.9011
vn 0.0302 0.9519 0.3048
vn 0.4319 0.4863 0.7596
vn 0.1824 0.9808 0.0695
vn 0.8115 0.5581 0.1731
vn -0.8151 -0.1580 0.5574
vn -0.1870 -0.0361 0.9817
vn 0.5542 0.1067 0.8255
vn 0.1859 -0.9826 -0.0000
vt 0.153088 0.348628
vt 0.401590 0.008648
vt 0.154132 0.360638
vt 0.406345 0.008177
vt 0.163363 0.368392
vt 0.411043 0.007320
vt 0.175373 0.367348
vt 0.415763 0.006592
vt 0.168107 0.353373
vt 0.208213 0.327707
vt 0.423247 0.350650
vt 0.218248 0.352318
vt 0.423094 0.352770
vt 0.214030 0.341745
vt 0.427915 0.350982
vt 0.197906 0.352205
vt 0.427571 0.353086
vt 0.202400 0.341746
vt 0.395219 0.351077
vt 0.432632 0.351581
vt 0.431793 0.353729
vt 0.183602 0.337741
vt 0.396034 0.353186
vt 0.194176 0.333524
vt 0.399940 0.350563
vt 0.183715 0.317400
vt 0.400246 0.352641
vt 0.194175 0.321894
vt 0.404620 0.350361
vt 0.198179 0.303096
vt 0.404742 0.352473
vt 0.202396 0.313669
vt 0.409283 0.350308
vt 0.218521 0.303209
vt 0.409322 0.352434
vt 0.214026 0.313667
vt 0.413938 0.350343
vt 0.232825 0.317672
vt 0.413927 0.352472
vt 0.222251 0.321890
vt 0.418591 0.350452
vt 0.232712 0.338014
vt 0.418527 0.352580
vt 0.222253 0.333520
vt 0.429750 0.288841
vt 0.424744 0.288880
vt 0.419712 0.288847
vt 0.414672 0.288818
vt 0.409636 0.288808
vt 0.404617 0.288807
vt 0.399646 0.288739
vt 0.394841 0.288257
vt 0.434659 0.288435
vt 0.424596 0.302920
vt 0.419526 0.302840
vt 0.414445 0.302800
vt 0.409360 0.302789
vt 0.404275 0.302822
vt 0.399219 0.302968
vt 0.394322 0.303514
vt 0.434453 0.303795
vt 0.429625 0.303118
vt 0.430069 0.213788
vt 0.434966 0.213332
vt 0.395317 0.213214
vt 0.400111 0.213739
vt 0.405063 0.213841
vt 0.410055 0.213858
vt 0.415062 0.213865
vt 0.420073 0.213875
vt 0.425082 0.213874
vt 0.424904 0.229107
vt 0.419898 0.229092
vt 0.414879 0.229085
vt 0.409855 0.229075
vt 0.404833 0.229074
vt 0.399835 0.229158
vt 0.434664 0.229731
vt 0.394932 0.229615
vt 0.429866 0.229206
vt 0.430238 0.149855
vt 0.435036 0.150382
vt 0.395368 0.150239
vt 0.400265 0.149776
vt 0.405257 0.149694
vt 0.410268 0.149700
vt 0.415281 0.149716
vt 0.420289 0.149728
vt 0.425283 0.149749
vt 0.430366 0.133256
vt 0.435211 0.132777
vt 0.395902 0.132627
vt 0.400705 0.133190
vt 0.405624 0.133328
vt 0.410569 0.133365
vt 0.415524 0.133380
vt 0.420481 0.133386
vt 0.425434 0.133366
vt 0.425082 0.216000
vt 0.430456 0.216003
vt 0.430500 0.227062
vt 0.425180 0.226978
vt 0.436709 0.215514
vt 0.393710 0.215148
vt 0.436258 0.227792
vt 0.393202 0.227426
vt 0.399464 0.215883
vt 0.399460 0.226943
vt 0.404778 0.215970
vt 0.404841 0.226949
vt 0.409877 0.215967
vt 0.409966 0.226970
vt 0.414919 0.215969
vt 0.415022 0.226982
vt 0.419966 0.215980
vt 0.420072 0.226983
vt 0.430119 0.291069
vt 0.424740 0.291000
vt 0.430217 0.300974
vt 0.424855 0.300801
vt 0.419603 0.290940
vt 0.419698 0.300742
vt 0.414526 0.290907
vt 0.414596 0.300709
vt 0.409453 0.290903
vt 0.409491 0.300696
vt 0.404331 0.290924
vt 0.404324 0.300705
vt 0.399006 0.290884
vt 0.398919 0.300748
vt 0.393243 0.290245
vt 0.436383 0.290690
vt 0.392662 0.301305
vt 0.435981 0.301816
vt 0.430799 0.135483
vt 0.437034 0.134945
vt 0.394233 0.134543
vt 0.436657 0.148453
vt 0.393610 0.148056
vt 0.430891 0.147712
vt 0.399996 0.135329
vt 0.399872 0.147556
vt 0.405298 0.135456
vt 0.405262 0.147567
vt 0.410367 0.135472
vt 0.410384 0.147597
vt 0.415370 0.135480
vt 0.415429 0.147615
vt 0.420373 0.135489
vt 0.420469 0.147619
vt 0.425450 0.135498
vt 0.425569 0.147617
s 1
usemtl RamenStall_Texture
f 2/3/1 1/1/1 5/9/1
f 3/5/1 2/3/1 5/9/1
f 4/7/1 3/5/1 5/9/1
f 79/99/2 80/100/2 81/101/2 82/102/2
f 80/100/3 83/103/3 84/105/3 81/101/3
f 83/104/4 85/107/4 86/108/4 84/106/4
f 85/107/5 87/109/5 88/110/5 86/108/5
f 87/109/6 89/111/6 90/112/6 88/110/6
f 89/111/7 91/113/7 92/114/7 90/112/7
f 91/113/8 93/115/8 94/116/8 92/114/8
f 93/115/9 79/99/9 82/102/9 94/116/9
f 9/14/10 12/18/10 6/10/10
f 12/18/10 15/24/10 6/10/10
f 15/24/10 18/28/10 6/10/10
f 18/28/10 21/32/10 6/10/10
f 21/32/10 24/36/10 6/10/10
f 24/36/10 27/40/10 6/10/10
f 27/40/10 30/44/10 6/10/10
f 30/44/10 9/14/10 6/10/10
f 7/11/11 8/13/11 29/43/11 28/41/11
f 8/12/12 9/14/12 30/44/12 29/42/12
f 9/14/13 8/12/13 11/16/13 12/18/13
f 8/13/14 7/11/14 10/15/14 11/17/14
f 12/18/15 11/16/15 14/22/15 15/24/15
f 11/17/16 10/15/16 13/20/16 14/21/16
f 15/24/17 14/22/17 17/26/17 18/28/17
f 14/23/18 13/19/18 16/25/18 17/27/18
f 18/28/19 17/26/19 20/30/19 21/32/19
f 17/27/20 16/25/20 19/29/20 20/31/20
f 21/32/21 20/30/21 23/34/21 24/36/21
f 20/31/22 19/29/22 22/33/22 23/35/22
f 24/36/23 23/34/23 26/38/23 27/40/23
f 23/35/24 22/33/24 25/37/24 26/39/24
f 27/40/25 26/38/25 29/42/25 30/44/25
f 26/39/26 25/37/26 28/41/26 29/43/26
f 96/118/2 95/117/2 97/119/2 98/120/2
f 99/121/9 96/118/9 98/120/9 100/122/9
f 101/123/8 99/121/8 100/122/8 102/124/8
f 103/125/7 101/123/7 102/124/7 104/126/7
f 105/127/6 103/125/6 104/126/6 106/128/6
f 107/129/5 105/127/5 106/128/5 108/130/5
f 109/131/4 107/129/4 108/130/4 110/133/4
f 95/117/3 109/132/3 110/134/3 97/119/3
f 40/55/9 39/54/9 7/11/9 28/41/9
f 41/56/8 40/55/8 28/41/8 25/37/8
f 42/57/7 41/56/7 25/37/7 22/33/7
f 43/58/6 42/57/6 22/33/6 19/29/6
f 44/59/5 43/58/5 19/29/5 16/25/5
f 45/60/4 44/59/4 16/25/4 13/19/4
f 46/62/3 45/61/3 13/20/3 10/15/3
f 39/54/2 46/62/2 10/15/2 7/11/2
f 63/81/3 64/82/3 48/64/3 47/63/3
f 64/83/4 65/84/4 49/66/4 48/65/4
f 65/84/5 66/85/5 50/67/5 49/66/5
f 66/85/6 67/86/6 51/68/6 50/67/6
f 67/86/7 68/87/7 52/69/7 51/68/7
f 68/87/8 69/88/8 53/70/8 52/69/8
f 69/88/9 70/89/9 54/71/9 53/70/9
f 70/89/2 63/81/2 47/63/2 54/71/2
f 56/73/9 55/72/9 32/46/9 33/47/9
f 57/74/8 56/73/8 33/47/8 34/48/8
f 58/75/7 57/74/7 34/48/7 35/49/7
f 59/76/6 58/75/6 35/49/6 36/50/6
f 60/77/5 59/76/5 36/50/5 37/51/5
f 61/79/4 60/77/4 37/51/4 38/52/4
f 62/80/3 61/78/3 38/53/3 31/45/3
f 55/72/2 62/80/2 31/45/2 32/46/2
f 111/135/3 112/136/3 113/138/3 114/140/3
f 112/137/4 115/141/4 116/142/4 113/139/4
f 115/141/5 117/143/5 118/144/5 116/142/5
f 117/143/6 119/145/6 120/146/6 118/144/6
f 119/145/7 121/147/7 122/148/7 120/146/7
f 121/147/8 123/149/8 124/150/8 122/148/8
f 123/149/9 125/151/9 126/152/9 124/150/9
f 125/151/2 111/135/2 114/140/2 126/152/2
f 1/2/27 2/4/27 74/94/27 73/93/27
f 2/4/28 3/6/28 75/95/28 74/94/28
f 3/6/29 4/8/29 76/96/29 75/95/29
f 54/71/30 47/63/30 80/100/30 79/99/30
f 62/80/10 55/72/10 82/102/10 81/101/10
f 47/63/30 48/64/30 83/103/30 80/100/30
f 61/78/10 62/80/10 81/101/10 84/105/10
f 48/65/30 49/66/30 85/107/30 83/104/30
f 60/77/10 61/79/10 84/106/10 86/108/10
f 49/66/30 50/67/30 87/109/30 85/107/30
f 59/76/10 60/77/10 86/108/10 88/110/10
f 50/67/30 51/68/30 89/111/30 87/109/30
f 58/75/10 59/76/10 88/110/10 90/112/10
f 51/68/30 52/69/30 91/113/30 89/111/30
f 57/74/10 58/75/10 90/112/10 92/114/10
f 52/69/30 53/70/30 93/115/30 91/113/30
f 56/73/10 57/74/10 92/114/10 94/116/10
f 53/70/30 54/71/30 79/99/30 93/115/30
f 55/72/10 56/73/10 94/116/10 82/102/10
f 32/46/30 31/45/30 95/117/30 96/118/30
f 46/62/10 39/54/10 98/120/10 97/119/10
f 33/47/30 32/46/30 96/118/30 99/121/30
f 39/54/10 40/55/10 100/122/10 98/120/10
f 34/48/30 33/47/30 99/121/30 101/123/30
f 40/55/10 41/56/10 102/124/10 100/122/10
f 35/49/30 34/48/30 101/123/30 103/125/30
f 41/56/10 42/57/10 104/126/10 102/124/10
f 36/50/30 35/49/30 103/125/30 105/127/30
f 42/57/10 43/58/10 106/128/10 104/126/10
f 37/51/30 36/50/30 105/127/30 107/129/30
f 43/58/10 44/59/10 108/130/10 106/128/10
f 38/52/30 37/51/30 107/129/30 109/131/30
f 44/59/10 45/60/10 110/133/10 108/130/10
f 31/45/30 38/53/30 109/132/30 95/117/30
f 45/61/10 46/62/10 97/119/10 110/134/10
f 71/90/30 72/91/30 112/136/30 111/135/30
f 64/82/10 63/81/10 114/140/10 113/138/10
f 72/92/30 73/93/30 115/141/30 112/137/30
f 65/84/10 64/83/10 113/139/10 116/142/10
f 73/93/30 74/94/30 117/143/30 115/141/30
f 66/85/10 65/84/10 116/142/10 118/144/10
f 74/94/30 75/95/30 119/145/30 117/143/30
f 67/86/10 66/85/10 118/144/10 120/146/10
f 75/95/30 76/96/30 121/147/30 119/145/30
f 68/87/10 67/86/10 120/146/10 122/148/10
f 76/96/30 77/97/30 123/149/30 121/147/30
f 69/88/10 68/87/10 122/148/10 124/150/10
f 77/97/30 78/98/30 125/151/30 123/149/30
f 70/89/10 69/88/10 124/150/10 126/152/10
f 78/98/30 71/90/30 111/135/30 125/151/30
f 63/81/10 70/89/10 126/152/10 114/140/10
l 127 85
l 116 127
l 86 128
l 128 107
l 108 129
l 130 115
