# Blender 3.5.1
# www.blender.org
mtllib badan1.mtl
o Body.000
v -0.548431 1.260919 0.044515
v -0.471622 1.589343 0.074392
v -0.453171 1.779241 0.121098
v -0.437138 1.944246 0.060045
v -0.566359 1.262135 0.044452
v -0.099666 1.635108 0.280529
v -0.116123 1.509124 0.293141
v 0.015385 1.566534 0.074530
v -0.028939 1.460370 0.189717
v -0.115093 1.801455 0.260381
v 0.039563 1.772711 0.121236
v -0.123260 1.949918 0.213534
v -0.030068 1.889612 0.060182
v -0.367406 1.640000 0.280529
v -0.343522 1.303701 0.329602
v -0.361310 1.514590 0.293141
v -0.479324 1.588249 0.074530
v -0.496204 1.459505 0.189717
v -0.325215 1.820262 0.260381
v -0.479324 1.779041 0.121236
v -0.335914 1.995004 0.264174
v -0.433432 1.944824 0.060182
v -0.457169 1.614775 0.177530
v -0.451674 1.794792 0.190809
v -0.390924 1.974493 0.173256
v -0.028939 1.492221 0.241429
v -0.432013 1.220102 0.228463
v -0.436018 1.485861 0.241429
v -0.212283 1.510559 0.306328
v -0.220892 1.639939 0.293717
v -0.248681 1.294449 0.329602
v 0.015385 1.599390 0.177530
v -0.020959 1.815480 0.140168
v -0.024116 1.523909 0.222934
v -0.101953 1.404228 0.304666
v -0.024627 1.326279 0.044971
v -0.041144 1.327960 0.158181
v -0.349943 1.407953 0.318338
v -0.502838 1.291134 0.158181
v -0.456288 1.353384 0.238260
v -0.043940 1.367048 0.238260
v -0.229563 1.404791 0.318338
v -0.115628 1.335188 0.314855
v -0.356228 1.357726 0.323970
v -0.451747 1.284844 0.233362
v -0.071877 1.211019 0.035697
v -0.078493 1.258153 0.142753
v -0.490853 1.209037 0.035697
v -0.488962 1.223248 0.142753
v -0.066885 1.303893 0.233362
v -0.239122 1.349620 0.323970
v -0.107380 1.718282 0.270455
v -0.346311 1.730131 0.270455
v -0.175214 1.637524 0.287123
v -0.273880 1.639970 0.287123
v -0.159740 1.722794 0.277049
v -0.279205 1.728719 0.277049
v -0.215573 1.603243 0.319057
v -0.548431 1.260919 -0.044516
v -0.471622 1.589343 -0.074393
v -0.453171 1.779241 -0.121099
v -0.437138 1.944246 -0.060045
v -0.470007 1.948133 -0.000000
v -0.554379 1.260813 -0.000000
v -0.099666 1.635108 -0.280530
v -0.116123 1.509124 -0.293141
v 0.015385 1.566534 -0.074531
v 0.040178 1.563571 -0.000000
v -0.028939 1.460370 -0.189718
v -0.115093 1.801455 -0.260382
v 0.039563 1.772711 -0.121237
v -0.123260 1.949918 -0.213534
v 0.055388 1.755553 -0.000000
v -0.030068 1.889612 -0.060183
v 0.023738 1.887187 -0.000000
v -0.367406 1.640000 -0.280530
v -0.343522 1.303701 -0.329602
v -0.361310 1.514590 -0.293141
v -0.479324 1.588249 -0.074531
v -0.496204 1.459505 -0.189718
v -0.325215 1.820262 -0.260382
v -0.479324 1.779041 -0.121237
v -0.335914 1.995004 -0.264175
v -0.433432 1.944824 -0.060183
v -0.433432 1.948729 -0.000000
v -0.457169 1.614775 -0.177530
v -0.451674 1.794792 -0.190809
v -0.390924 1.974493 -0.173256
v -0.028939 1.492221 -0.241429
v -0.432013 1.220102 -0.228464
v -0.436018 1.485861 -0.241429
v -0.212283 1.510559 -0.306329
v -0.220892 1.639939 -0.293717
v -0.248681 1.294449 -0.329602
v 0.015385 1.599390 -0.177530
v -0.020959 1.815480 -0.140169
v -0.024116 1.523909 -0.222935
v -0.101953 1.404228 -0.304666
v -0.024627 1.326279 -0.044971
v -0.009381 1.314836 -0.000000
v -0.041144 1.327960 -0.158181
v -0.349943 1.407953 -0.318339
v -0.502838 1.291134 -0.158181
v -0.456288 1.353384 -0.238260
v -0.043940 1.367048 -0.238260
v -0.229563 1.404791 -0.318339
v -0.115628 1.335188 -0.314855
v -0.356228 1.357726 -0.323971
v -0.451747 1.284844 -0.233362
v -0.071877 1.211019 -0.035697
v -0.064254 1.206213 -0.000000
v -0.078493 1.258153 -0.142753
v -0.490853 1.209037 -0.035697
v -0.490853 1.201783 -0.000000
v -0.488962 1.223248 -0.142753
v -0.066885 1.303893 -0.233362
v -0.239122 1.349620 -0.323971
v -0.107380 1.718282 -0.270456
v -0.346311 1.730131 -0.270456
v -0.175214 1.637524 -0.287123
v -0.273880 1.639970 -0.287123
v -0.159740 1.722794 -0.277050
v -0.279205 1.728719 -0.277050
vn -0.5970 -0.0770 -0.7986
vn -0.9432 0.2859 -0.1689
vn -0.6366 -0.0257 -0.7708
vn -0.8996 -0.0163 -0.4364
vn -0.9694 0.1209 -0.2136
vn -0.7746 -0.3904 -0.4976
vn -0.8611 -0.4209 -0.2851
vn 0.6275 -0.0829 -0.7742
vn 0.8754 -0.2524 -0.4122
vn 0.6141 -0.0950 -0.7835
vn 0.9582 0.0318 -0.2843
vn 0.9035 -0.3387 -0.2628
vn 0.0170 -0.2391 0.9709
vn 0.0188 -0.1528 0.9881
vn -0.0925 0.0295 0.9953
vn 0.0872 -0.1001 -0.9911
vn -0.0082 -0.1030 -0.9946
vn -0.0084 -0.1028 -0.9947
vn -0.0083 -0.1029 -0.9947
vn 0.6748 -0.1235 -0.7276
vn 0.6348 -0.0986 -0.7664
vn 0.7760 0.0034 -0.6307
vn -0.9898 0.1158 -0.0833
vn 0.0802 -0.1185 -0.9897
vn -0.1228 -0.1010 -0.9873
vn -0.1211 -0.1048 -0.9871
vn -0.1228 -0.1011 -0.9873
vn -0.7248 -0.1974 -0.6601
vn -0.6789 -0.0835 -0.7294
vn -0.9915 0.1110 -0.0684
vn -0.1194 -0.1085 -0.9869
vn -0.8881 0.4283 -0.1670
vn 0.8192 0.1911 -0.5407
vn 0.0435 -0.1736 -0.9839
vn 0.6508 -0.0142 -0.7591
vn 0.0173 0.3434 0.9390
vn 0.6264 0.3340 0.7043
vn 0.9759 -0.1271 -0.1772
vn -0.7547 0.1838 -0.6298
vn -0.9239 0.1893 -0.3324
vn -0.9692 0.1657 -0.1824
vn 0.6382 0.1697 -0.7509
vn -0.0962 -0.1080 -0.9895
vn -0.0050 -0.1055 -0.9944
vn 0.7987 0.5330 -0.2791
vn -0.8556 0.4037 -0.3239
vn -0.8836 0.4290 -0.1879
vn -0.1350 -0.1315 -0.9821
vn 0.0942 -0.1323 -0.9867
vn -0.1080 -0.1132 -0.9877
vn 0.0293 -0.9969 -0.0726
vn 0.1614 -0.9791 -0.1238
vn 0.0317 -0.0979 0.9947
vn 0.4750 0.6795 0.5591
vn 0.6748 0.7279 -0.1219
vn 0.6661 0.7366 -0.1170
vn -0.5970 -0.0770 0.7986
vn -0.9432 0.2859 0.1689
vn -0.6366 -0.0257 0.7708
vn -0.8996 -0.0163 0.4364
vn -0.9694 0.1209 0.2136
vn -0.7746 -0.3904 0.4976
vn -0.8611 -0.4209 0.2851
vn 0.6275 -0.0829 0.7742
vn 0.8754 -0.2524 0.4122
vn 0.6141 -0.0950 0.7835
vn 0.9582 0.0318 0.2843
vn 0.9035 -0.3387 0.2628
vn 0.0170 -0.2391 -0.9709
vn -0.0925 0.0295 -0.9953
vn 0.0188 -0.1528 -0.9881
vn 0.0872 -0.1001 0.9911
vn -0.0082 -0.1030 0.9946
vn -0.0083 -0.1030 0.9947
vn -0.0084 -0.1028 0.9947
vn 0.6748 -0.1235 0.7276
vn 0.6348 -0.0986 0.7664
vn 0.7760 0.0034 0.6307
vn -0.9898 0.1158 0.0833
vn 0.0802 -0.1185 0.9897
vn -0.1228 -0.1010 0.9873
vn -0.1228 -0.1011 0.9873
vn -0.1211 -0.1048 0.9871
vn -0.7248 -0.1974 0.6601
vn -0.6789 -0.0835 0.7294
vn -0.9915 0.1110 0.0684
vn -0.1194 -0.1085 0.9869
vn -0.8881 0.4283 0.1670
vn 0.8192 0.1911 0.5407
vn 0.0435 -0.1736 0.9839
vn 0.6508 -0.0142 0.7591
vn 0.0173 0.3434 -0.9390
vn 0.6264 0.3340 -0.7043
vn 0.9759 -0.1271 0.1772
vn -0.7547 0.1838 0.6298
vn -0.9239 0.1893 0.3324
vn -0.9692 0.1657 0.1824
vn 0.6382 0.1697 0.7509
vn -0.0962 -0.1080 0.9895
vn -0.0050 -0.1055 0.9944
vn 0.7987 0.5330 0.2791
vn -0.8556 0.4037 0.3239
vn -0.8836 0.4290 0.1879
vn -0.1350 -0.1315 0.9821
vn 0.0942 -0.1323 0.9867
vn -0.1080 -0.1132 0.9877
vn 0.0293 -0.9969 0.0726
vn 0.1647 -0.9796 0.1155
vn 0.7202 0.1137 -0.6844
vn 0.0317 -0.0979 -0.9947
vn 0.6748 0.7279 0.1219
vn 0.6661 0.7366 0.1170
vt 0.500000 0.000000
vt 0.000000 0.000000
vt 1.000000 0.000000
vt 0.000000 0.000000
vt 1.000000 0.000000
vt 0.000000 0.000000
vt 1.000000 0.000000
vt 0.000000 0.000000
vt 1.000000 0.000000
vt 1.000000 1.000000
vt 1.000000 0.000000
vt 0.745983 0.000000
vt 1.000000 0.000000
vt 1.000000 0.000000
vt 1.000000 0.000000
vt 1.000000 0.000000
vt 1.000000 0.000000
vt 0.000000 1.000000
vt 1.000000 1.000000
vt 1.000000 0.000000
vt 0.000000 0.000000
vt 0.745983 0.000000
vt 1.000000 0.000000
vt 1.000000 0.000000
vt 1.000000 0.000000
vt 1.000000 0.000000
vt 1.000000 0.000000
vt 1.000000 0.000000
vt 1.000000 0.000000
vt 0.872991 0.500000
vt 0.000000 0.500000
vt 0.872991 0.500000
vt 1.000000 1.000000
vt 1.000000 0.000000
vt 0.000000 1.000000
vt 1.000000 0.000000
vt 1.000000 0.000000
vt 0.838897 0.000000
vt 0.500000 1.000000
vt 0.500000 0.000000
vt 0.372991 0.000000
vt 0.500000 1.000000
vt 0.372991 0.000000
vt 0.436496 0.500000
vt 0.436496 0.500000
vt 0.500000 1.000000
vt 0.250000 1.000000
vt 0.250000 1.000000
vt 0.218248 0.500000
vt 0.250000 0.000000
vt 0.186496 0.000000
vt 0.250000 0.000000
vt 0.000000 0.000000
vt 0.186496 0.000000
vt 0.218248 0.500000
vt 0.250000 1.000000
vt 1.000000 0.000000
vt 1.000000 0.000000
vt 1.000000 0.000000
vt 1.000000 0.000000
vt 1.000000 0.000000
vt 1.000000 0.000000
vt 0.500000 0.000000
vt 0.000000 0.000000
vt 1.000000 0.000000
vt 0.000000 0.000000
vt 1.000000 0.000000
vt 0.000000 0.000000
vt 1.000000 0.000000
vt 0.000000 0.000000
vt 1.000000 0.000000
vt 0.000000 0.000000
vt 0.000000 0.000000
vt 1.000000 0.000000
vt 1.000000 1.000000
vt 1.000000 0.000000
vt 1.000000 0.000000
vt 0.745983 0.000000
vt 1.000000 0.000000
vt 1.000000 0.000000
vt 1.000000 0.000000
vt 1.000000 0.000000
vt 1.000000 0.000000
vt 1.000000 0.000000
vt 1.000000 0.000000
vt 0.000000 1.000000
vt 1.000000 1.000000
vt 1.000000 0.000000
vt 0.000000 0.000000
vt 0.745983 0.000000
vt 1.000000 0.000000
vt 1.000000 0.000000
vt 1.000000 0.000000
vt 1.000000 0.000000
vt 1.000000 0.000000
vt 1.000000 0.000000
vt 1.000000 0.000000
vt 1.000000 0.000000
vt 0.872991 0.500000
vt 0.000000 0.500000
vt 0.872991 0.500000
vt 1.000000 1.000000
vt 1.000000 0.000000
vt 0.000000 1.000000
vt 1.000000 0.000000
vt 1.000000 0.000000
vt 0.838897 0.000000
vt 0.500000 1.000000
vt 0.500000 0.000000
vt 0.500000 0.000000
vt 0.372991 0.000000
vt 0.500000 1.000000
vt 0.372991 0.000000
vt 0.436496 0.500000
vt 0.436496 0.500000
vt 0.500000 1.000000
vt 0.250000 1.000000
vt 0.250000 1.000000
vt 0.218248 0.500000
vt 0.250000 0.000000
vt 0.250000 0.000000
vt 0.186496 0.000000
vt 0.250000 0.000000
vt 0.000000 0.000000
vt 0.000000 0.000000
vt 0.186496 0.000000
vt 0.218248 0.500000
vt 0.250000 1.000000
vt 1.000000 0.000000
vt 1.000000 0.000000
vt 1.000000 0.000000
vt 1.000000 0.000000
vt 1.000000 0.000000
vt 1.000000 0.000000
s 1
usemtl Material.002
f 26/30/1 7/10/1 6/9/1 34/38/1
f 32/36/2 8/11/2 9/12/2 34/38/2
f 41/45/3 35/39/3 7/10/3 26/30/3
f 32/36/4 33/37/4 11/14/4 8/11/4
f 8/11/5 11/14/5 73/82/5 68/77/5
f 10/13/6 12/15/6 13/16/6 11/14/6 33/37/6
f 13/16/7 75/84/7 73/82/7 11/14/7
f 18/22/8 14/17/8 16/19/8 28/32/8
f 14/17/9 18/22/9 17/20/9 23/27/9
f 40/44/10 28/32/10 16/19/10 38/42/10
f 23/27/11 17/20/11 20/24/11 24/28/11
f 24/28/12 20/24/12 22/26/12 25/29/12
f 20/24/13 17/20/13 2/3/14 3/5/15
f 30/34/16 29/33/16 16/19/16 14/17/16 55/60/16
f 51/56/17 31/35/18 15/18/18 44/48/19
f 19/23/20 24/28/20 25/29/20 21/25/20
f 14/17/21 23/27/21 24/28/21 19/23/21 53/58/21
f 39/43/22 18/22/22 28/32/22 40/44/22
f 37/41/23 41/45/23 26/30/23 9/12/23
f 55/60/24 14/17/24 53/58/24 57/62/24
f 6/9/25 7/10/26 29/33/27 30/34/25 54/59/25
f 6/9/28 52/57/28 10/13/28 33/37/28 32/36/28
f 6/9/29 32/36/29 34/38/29
f 9/12/30 26/30/30 34/38/30
f 7/10/26 35/39/31 42/46/31 29/33/27
f 47/51/32 50/55/32 41/45/32 37/41/32
f 49/54/33 39/43/33 40/44/33 45/49/33
f 29/33/34 42/46/34 38/42/34 16/19/34
f 45/49/35 40/44/35 38/42/35 44/48/35
f 22/26/36 20/24/36 3/5/15 4/7/37
f 18/22/38 39/43/38 1/1/38 17/20/38
f 50/55/39 43/47/39 35/39/39 41/45/39
f 8/11/40 68/77/40 100/110/40 36/40/40
f 9/12/41 8/11/41 36/40/41 37/41/41
f 27/31/42 45/49/42 44/48/42 15/18/42
f 35/39/43 43/47/43 51/56/43 42/46/43
f 42/46/44 51/56/17 44/48/19 38/42/44
f 39/43/45 49/54/45 48/52/45 1/1/45
f 36/40/46 100/110/46 111/121/46 46/50/46
f 37/41/47 36/40/47 46/50/47 47/51/47
f 10/13/48 52/57/48 56/61/48
f 57/62/49 53/58/49 19/23/49
f 6/9/50 54/59/50 56/61/50 52/57/50
f 85/95/51 22/26/51 4/7/37 63/71/52
f 48/53/56 114/125/56 64/73/55 1/2/54
f 89/99/57 97/107/57 65/74/57 66/75/57
f 95/105/58 97/107/58 69/78/58 67/76/58
f 105/115/59 89/99/59 66/75/59 98/108/59
f 95/105/60 67/76/60 71/80/60 96/106/60
f 67/76/61 68/77/61 73/82/61 71/80/61
f 70/79/62 96/106/62 71/80/62 74/83/62 72/81/62
f 74/83/63 71/80/63 73/82/63 75/84/63
f 80/90/64 91/101/64 78/87/64 76/85/64
f 76/85/65 86/96/65 79/88/65 80/90/65
f 104/114/66 102/112/66 78/87/66 91/101/66
f 86/96/67 87/97/67 82/92/67 79/88/67
f 87/97/68 88/98/68 84/94/68 82/92/68
f 82/92/69 61/67/70 60/65/71 79/88/69
f 93/103/72 121/132/72 76/85/72 78/87/72 92/102/72
f 117/128/73 108/118/74 77/86/75 94/104/75
f 81/91/76 83/93/76 88/98/76 87/97/76
f 76/85/77 119/130/77 81/91/77 87/97/77 86/96/77
f 103/113/78 104/114/78 91/101/78 80/90/78
f 101/111/79 69/78/79 89/99/79 105/115/79
f 121/132/80 123/134/80 119/130/80 76/85/80
f 65/74/81 120/131/81 93/103/81 92/102/82 66/75/83
f 65/74/84 95/105/84 96/106/84 70/79/84 118/129/84
f 65/74/85 97/107/85 95/105/85
f 69/78/86 97/107/86 89/99/86
f 66/75/83 92/102/82 106/116/87 98/108/87
f 112/122/88 101/111/88 105/115/88 116/127/88
f 115/126/89 109/119/89 104/114/89 103/113/89
f 92/102/90 78/87/90 102/112/90 106/116/90
f 109/119/91 108/118/91 102/112/91 104/114/91
f 84/94/92 62/69/93 61/67/70 82/92/92
f 80/90/94 79/88/94 59/63/94 103/113/94
f 116/127/95 105/115/95 98/108/95 107/117/95
f 67/76/96 99/109/96 100/110/96 68/77/96
f 69/78/97 101/111/97 99/109/97 67/76/97
f 90/100/98 77/86/98 108/118/98 109/119/98
f 98/108/99 106/116/99 117/128/99 107/117/99
f 106/116/100 102/112/100 108/118/74 117/128/73
f 103/113/101 59/63/101 113/123/101 115/126/101
f 99/109/102 110/120/102 111/121/102 100/110/102
f 101/111/103 112/122/103 110/120/103 99/109/103
f 70/79/104 122/133/104 118/129/104
f 123/134/105 81/91/105 119/130/105
f 65/74/106 118/129/106 122/133/106 120/131/106
f 85/95/107 63/71/108 62/69/93 84/94/107
f 113/124/112 59/64/109 64/73/111 114/125/112
usemtl Material.001
f 2/4/14 17/21/53 1/2/54
f 3/6/15 2/4/14 1/2/54 64/73/55 63/72/52 4/8/37
f 60/66/71 59/64/109 79/89/110
f 61/68/70 62/70/93 63/72/108 64/73/111 59/64/109 60/66/71
l 5 1
l 58 30
