# Blender 3.5.1
# www.blender.org
mtllib helm.mtl
o Body.000
v -0.437138 1.944246 0.060045
v -0.123260 1.949918 0.213534
v -0.030068 1.889612 0.060182
v -0.148075 2.029045 0.278882
v -0.001583 1.963695 0.075053
v -0.071477 2.015533 0.223244
v -0.335914 1.995004 0.264174
v -0.433432 1.944824 0.060182
v -0.353965 2.046665 0.258374
v -0.438744 2.015090 0.087391
v -0.392846 2.038294 0.211149
v -0.257316 2.056833 0.277063
v -0.390924 1.974493 0.173256
v -0.156585 2.018122 0.227203
v -0.030650 1.967407 0.065679
v -0.299464 2.036622 0.271758
v -0.243601 2.020606 0.262131
v -0.184992 2.006472 0.264749
v -0.134528 1.999944 0.249056
v -0.302071 2.039654 0.235290
v -0.375987 1.994240 0.080694
v -0.203265 2.044307 0.279681
v -0.314506 2.063262 0.268288
v -0.039359 2.047401 0.101565
v -0.150215 2.506912 0.160320
v -0.164175 2.545197 0.058014
v 0.055476 2.430465 0.100386
v -0.047024 2.169650 0.205788
v -0.031923 2.314754 0.181757
v -0.356149 2.439980 0.083623
v -0.121671 2.275366 0.236975
v -0.148019 2.023157 0.252462
v -0.016654 1.968181 0.088923
v -0.309912 2.051251 0.247608
v -0.078898 2.077392 0.228268
v -0.025100 2.048189 0.125246
v -0.130701 2.098351 0.253420
v -0.318094 2.108901 0.244437
v -0.177461 2.233603 0.269994
v -0.343115 2.242073 0.251714
v -0.119522 2.339607 0.257681
v -0.323487 2.367408 0.240281
v -0.112945 2.280496 0.262709
v -0.151201 2.444005 0.224537
v -0.256621 2.450907 0.219311
v -0.047038 2.429772 0.163161
v 0.032394 2.423196 0.120544
v -0.038298 2.174780 0.231523
v -0.023358 2.319790 0.207017
v -0.271221 2.494265 0.155094
v -0.332618 2.440844 0.202860
v 0.052183 2.450529 0.099982
v -0.049578 2.479543 0.134764
v 0.024285 2.425903 0.084319
v -0.405614 2.000683 0.087784
v -0.429204 2.082647 0.105108
v -0.438516 2.206601 0.120161
v -0.427382 2.320708 0.096411
v -0.331699 2.024999 0.229580
v -0.356287 2.110309 0.226269
v -0.381307 2.243481 0.233546
v -0.361679 2.368815 0.222112
v -0.386249 2.419084 0.091117
v -0.293131 2.523353 0.029007
v -0.021352 2.518617 0.078998
v 0.064914 2.446608 0.049991
v -0.011130 1.967080 0.075673
v -0.019839 2.047073 0.111559
v -0.437138 1.944246 -0.060045
v 0.046010 2.422341 -0.000000
v -0.123260 1.949918 -0.213534
v -0.030068 1.889612 -0.060183
v -0.148075 2.029045 -0.278882
v -0.001583 1.963695 -0.075054
v -0.071477 2.015533 -0.223245
v 0.023738 1.887187 -0.000000
v 0.039563 1.952247 -0.000000
v -0.335914 1.995004 -0.264175
v -0.433432 1.944824 -0.060183
v -0.353965 2.046665 -0.258375
v -0.438744 2.015090 -0.087392
v -0.392846 2.038294 -0.211150
v -0.433432 1.948729 -0.000000
v -0.438744 2.011813 -0.000000
v -0.257316 2.056833 -0.277063
v -0.390924 1.974493 -0.173256
v -0.156585 2.018122 -0.227203
v -0.030650 1.967407 -0.065679
v 0.011017 1.950491 -0.000000
v -0.299464 2.036622 -0.271758
v -0.243601 2.020606 -0.262131
v -0.184992 2.006472 -0.264750
v -0.134528 1.999944 -0.249057
v -0.302071 2.039654 -0.235291
v -0.375987 1.994240 -0.080694
v -0.382004 1.982793 -0.000000
v -0.203265 2.044307 -0.279682
v -0.314506 2.063262 -0.268289
v -0.039359 2.047401 -0.101565
v 0.004406 2.052394 -0.000000
v -0.150215 2.506912 -0.160321
v -0.164175 2.545197 -0.058015
v -0.367736 2.476339 -0.000000
v 0.055476 2.430465 -0.100387
v 0.076559 2.426884 -0.000000
v -0.047024 2.169650 -0.205789
v -0.031923 2.314754 -0.181758
v -0.356149 2.439980 -0.083623
v -0.121671 2.275366 -0.236976
v -0.148019 2.023157 -0.252463
v -0.016654 1.968181 -0.088923
v -0.309912 2.051251 -0.247609
v -0.078898 2.077392 -0.228269
v -0.025100 2.048189 -0.125246
v -0.130701 2.098351 -0.253420
v -0.318094 2.108901 -0.244438
v -0.177461 2.233603 -0.269995
v -0.343115 2.242073 -0.251715
v -0.119522 2.339607 -0.257682
v -0.323487 2.367408 -0.240281
v -0.112945 2.280496 -0.262710
v -0.151201 2.444005 -0.224538
v -0.256621 2.450907 -0.219312
v -0.047038 2.429772 -0.163162
v 0.032394 2.423196 -0.120544
v -0.038298 2.174780 -0.231524
v -0.023358 2.319790 -0.207018
v -0.161108 2.556756 -0.000000
v -0.271221 2.494265 -0.155095
v -0.332618 2.440844 -0.202861
v 0.052183 2.450529 -0.099983
v 0.077646 2.442687 -0.000000
v -0.049578 2.479543 -0.134765
v 0.024285 2.425903 -0.084320
v -0.405614 2.000683 -0.087785
v -0.429204 2.082647 -0.105108
v -0.438516 2.206601 -0.120161
v -0.427382 2.320708 -0.096412
v -0.411631 1.989236 -0.000000
v -0.331699 2.024999 -0.229581
v -0.438461 2.080356 -0.000000
v -0.356287 2.110309 -0.226270
v -0.444855 2.194543 -0.000000
v -0.381307 2.243481 -0.233546
v -0.433720 2.308650 -0.000000
v -0.361679 2.368815 -0.222113
v -0.401757 2.411724 -0.000000
v -0.386249 2.419084 -0.091118
v -0.293131 2.523353 -0.029008
v -0.306367 2.528402 -0.000000
v -0.021352 2.518617 -0.078999
v -0.014606 2.520475 -0.000000
v 0.064914 2.446608 -0.049992
v -0.011130 1.967080 -0.075674
v 0.030537 1.950163 -0.000000
v -0.019839 2.047073 -0.111560
v 0.023926 2.052066 -0.000000
vn -0.4921 -0.0921 -0.8656
vn -0.6360 0.4917 -0.5947
vn -0.7647 0.3042 -0.5681
vn 0.8921 0.2354 -0.3856
vn 0.9968 0.0794 0.0003
vn 0.9968 0.0794 -0.0000
vn -0.1535 -0.9421 0.2983
vn -0.3789 -0.9206 0.0942
vn 0.0343 -0.9322 0.3603
vn 0.2125 -0.0235 -0.9769
vn -0.0600 -0.9848 0.1632
vn -0.0660 -0.9589 0.2758
vn 0.7613 0.2925 -0.5786
vn 0.1279 0.4172 -0.8998
vn -0.0565 0.3621 -0.9304
vn -0.1372 0.6771 -0.7230
vn 0.0664 0.9785 -0.1951
vn 0.4204 -0.1475 -0.8952
vn -0.1156 -0.9678 0.2236
vn -0.1486 -0.8886 0.4339
vn 0.1584 0.9690 -0.1897
vn 0.7714 -0.5976 -0.2188
vn 0.1417 0.9042 -0.4030
vn -0.1392 0.9772 -0.1605
vn -0.8002 -0.4250 0.4231
vn 0.1936 0.9702 -0.1457
vn 0.1123 -0.9255 -0.3617
vn -0.9729 -0.0624 -0.2225
vn 0.3858 -0.3803 -0.8405
vn 0.2441 -0.6079 -0.7556
vn -0.1282 0.9894 -0.0680
vn -0.7082 -0.6066 0.3611
vn -0.4152 -0.5811 -0.7000
vn -0.4251 -0.4155 -0.8041
vn 0.7780 -0.5708 -0.2623
vn -0.4210 0.9062 -0.0379
vn 0.0824 0.1101 -0.9905
vn 0.0375 -0.0192 -0.9991
vn -0.6663 0.3355 -0.6659
vn 0.0718 -0.1259 -0.9894
vn -0.2873 0.0738 -0.9550
vn 0.0383 -0.2832 -0.9583
vn -0.4827 -0.1274 -0.8664
vn -0.4979 -0.4042 -0.7673
vn -0.4570 -0.4126 -0.7880
vn -0.7881 0.3456 -0.5095
vn -0.2094 0.1377 -0.9681
vn 0.5948 -0.7011 -0.3934
vn -0.2560 -0.8250 -0.5038
vn 0.3767 -0.8862 -0.2699
vn 0.6577 -0.7144 -0.2389
vn 0.0490 -0.7670 -0.6398
vn -0.6316 -0.1191 -0.7661
vn -0.7476 0.6365 0.1896
vn 0.8145 0.2773 -0.5096
vn 0.8446 0.1572 -0.5118
vn 0.9530 0.2872 -0.0959
vn 0.8996 -0.1744 -0.4005
vn 0.9948 0.0702 -0.0733
vn 0.8712 -0.3809 -0.3096
vn 0.9937 -0.1018 -0.0468
vn 0.9368 -0.3419 -0.0737
vn -0.1827 0.6551 -0.7331
vn 0.4298 0.1296 -0.8936
vn 0.4927 0.0736 -0.8671
vn 0.1972 -0.9585 -0.2060
vn -0.2034 -0.9729 -0.1098
vn -0.6512 -0.7533 -0.0920
vn -0.9096 0.0053 -0.4154
vn 0.4213 0.4090 -0.8094
vn -0.0043 -0.9988 -0.0486
vn -0.0487 -0.9969 0.0625
vn -0.9240 0.0705 -0.3758
vn -0.4921 -0.0921 0.8656
vn -0.6360 0.4917 0.5947
vn -0.7647 0.3042 0.5681
vn 0.8921 0.2354 0.3856
vn 0.9968 0.0794 -0.0003
vn -0.1535 -0.9421 -0.2983
vn -0.3789 -0.9206 -0.0942
vn 0.0343 -0.9322 -0.3603
vn 0.2125 -0.0235 0.9769
vn -0.0600 -0.9848 -0.1632
vn -0.0660 -0.9589 -0.2758
vn 0.7613 0.2925 0.5786
vn 0.1279 0.4172 0.8998
vn -0.0565 0.3621 0.9304
vn -0.1372 0.6771 0.7230
vn 0.0664 0.9785 0.1951
vn 0.4204 -0.1475 0.8952
vn -0.1156 -0.9678 -0.2236
vn -0.1486 -0.8886 -0.4339
vn 0.1584 0.9690 0.1897
vn 0.7714 -0.5976 0.2188
vn 0.1417 0.9042 0.4030
vn -0.1392 0.9772 0.1605
vn -0.8002 -0.4250 -0.4231
vn 0.1936 0.9702 0.1457
vn 0.1123 -0.9255 0.3617
vn -0.9729 -0.0624 0.2225
vn 0.3858 -0.3803 0.8405
vn 0.2441 -0.6079 0.7556
vn -0.1282 0.9894 0.0680
vn -0.7082 -0.6066 -0.3611
vn -0.4152 -0.5811 0.7000
vn -0.4251 -0.4155 0.8041
vn 0.7780 -0.5708 0.2623
vn -0.4210 0.9063 0.0379
vn 0.0824 0.1101 0.9905
vn 0.0375 -0.0192 0.9991
vn -0.6663 0.3355 0.6659
vn 0.0718 -0.1259 0.9894
vn -0.2873 0.0738 0.9550
vn 0.0383 -0.2832 0.9583
vn -0.4827 -0.1274 0.8664
vn -0.4979 -0.4042 0.7673
vn -0.4570 -0.4126 0.7880
vn -0.7881 0.3456 0.5095
vn -0.2094 0.1377 0.9681
vn 0.5948 -0.7011 0.3934
vn -0.2560 -0.8250 0.5038
vn 0.3767 -0.8862 0.2699
vn 0.6577 -0.7144 0.2389
vn 0.0490 -0.7670 0.6398
vn -0.6316 -0.1191 0.7661
vn -0.7476 0.6365 -0.1896
vn 0.8145 0.2773 0.5096
vn 0.8446 0.1572 0.5118
vn 0.9530 0.2872 0.0959
vn 0.8996 -0.1744 0.4005
vn 0.9948 0.0702 0.0733
vn 0.8712 -0.3809 0.3096
vn 0.9937 -0.1018 0.0468
vn 0.9368 -0.3419 0.0737
vn -0.1827 0.6551 0.7331
vn 0.4298 0.1296 0.8936
vn 0.4927 0.0736 0.8671
vn 0.1972 -0.9585 0.2060
vn -0.2034 -0.9729 0.1098
vn -0.6512 -0.7533 0.0920
vn -0.9096 0.0053 0.4154
vn 0.4213 0.4090 0.8094
vn -0.0043 -0.9988 0.0486
vn -0.0487 -0.9969 -0.0625
vn -0.9240 0.0705 0.3758
vt 1.000000 0.000000
vt 1.000000 0.000000
vt 1.000000 0.000000
vt 1.000000 0.000000
vt 1.000000 0.000000
vt 1.000000 0.000000
vt 1.000000 0.000000
vt 1.000000 0.000000
vt 1.000000 0.000000
vt 1.000000 0.000000
vt 1.000000 0.000000
vt 1.000000 0.000000
vt 1.000000 0.000000
vt 1.000000 0.000000
vt 0.000000 0.000000
vt 1.000000 0.000000
vt 1.000000 0.000000
vt 1.000000 0.000000
vt 1.000000 0.000000
vt 1.000000 0.000000
vt 0.000000 0.000000
vt 1.000000 0.000000
vt 1.000000 0.000000
vt 1.000000 0.000000
vt 1.000000 0.000000
vt 0.000000 0.000000
vt 1.000000 0.000000
vt 0.000000 0.000000
vt 1.000000 0.000000
vt 0.000000 0.000000
vt 0.000000 0.000000
vt 1.000000 0.000000
vt 1.000000 0.000000
vt 1.000000 0.000000
vt 0.000000 0.000000
vt 0.000000 0.000000
vt 1.000000 0.000000
vt 1.000000 0.000000
vt 1.000000 0.000000
vt 1.000000 0.000000
vt 0.000000 0.000000
vt 1.000000 0.000000
vt 0.000000 0.000000
vt 1.000000 0.000000
vt 1.000000 0.000000
vt 0.000000 0.000000
vt 1.000000 0.000000
vt 1.000000 0.000000
vt 0.000000 0.000000
vt 1.000000 0.000000
vt 1.000000 0.000000
vt 0.000000 0.000000
vt 1.000000 0.000000
vt 0.000000 0.000000
vt 1.000000 0.000000
vt 1.000000 0.000000
vt 1.000000 0.000000
vt 0.000000 0.000000
vt 1.000000 0.000000
vt 0.000000 0.000000
vt 0.000000 0.000000
vt 1.000000 0.000000
vt 1.000000 0.000000
vt 0.000000 0.000000
vt 1.000000 0.000000
vt 1.000000 0.000000
vt 0.000000 0.000000
vt 1.000000 0.000000
vt 0.000000 0.000000
vt 0.000000 0.000000
vt 1.000000 0.000000
vt 1.000000 0.000000
vt 0.000000 0.000000
vt 0.000000 0.000000
vt 1.000000 0.000000
vt 1.000000 0.000000
vt 1.000000 0.000000
vt 1.000000 0.000000
vt 1.000000 0.000000
vt 1.000000 0.000000
vt 1.000000 0.000000
vt 0.000000 0.000000
vt 1.000000 0.000000
vt 0.000000 0.000000
vt 1.000000 0.000000
vt 0.000000 0.000000
vt 0.000000 0.000000
vt 1.000000 0.000000
vt 0.000000 0.000000
vt 1.000000 0.000000
vt 1.000000 0.000000
vt 0.000000 0.000000
vt 1.000000 0.000000
vt 0.000000 0.000000
vt 1.000000 0.000000
vt 0.000000 0.000000
vt 1.000000 0.000000
vt 0.000000 0.000000
vt 1.000000 0.000000
vt 0.000000 0.000000
vt 1.000000 0.000000
vt 1.000000 0.000000
vt 1.000000 0.000000
vt 1.000000 0.000000
vt 1.000000 0.000000
vt 1.000000 0.000000
vt 1.000000 0.000000
vt 1.000000 0.000000
vt 1.000000 0.000000
vt 1.000000 0.000000
vt 1.000000 0.000000
vt 1.000000 0.000000
vt 1.000000 0.000000
vt 1.000000 0.000000
vt 1.000000 0.000000
vt 1.000000 0.000000
vt 1.000000 0.000000
vt 1.000000 0.000000
vt 1.000000 0.000000
vt 0.000000 0.000000
vt 1.000000 0.000000
vt 1.000000 0.000000
vt 1.000000 0.000000
vt 1.000000 0.000000
vt 1.000000 0.000000
vt 1.000000 0.000000
vt 0.000000 0.000000
vt 1.000000 0.000000
vt 1.000000 0.000000
vt 1.000000 0.000000
vt 1.000000 0.000000
vt 1.000000 0.000000
vt 0.000000 0.000000
vt 1.000000 0.000000
vt 1.000000 0.000000
vt 0.000000 0.000000
vt 1.000000 0.000000
vt 0.000000 0.000000
vt 0.000000 0.000000
vt 1.000000 0.000000
vt 0.000000 0.000000
vt 1.000000 0.000000
vt 1.000000 0.000000
vt 1.000000 0.000000
vt 1.000000 0.000000
vt 0.000000 0.000000
vt 0.000000 0.000000
vt 1.000000 0.000000
vt 1.000000 0.000000
vt 1.000000 0.000000
vt 1.000000 0.000000
vt 0.000000 0.000000
vt 1.000000 0.000000
vt 0.000000 0.000000
vt 1.000000 0.000000
vt 1.000000 0.000000
vt 0.000000 0.000000
vt 1.000000 0.000000
vt 1.000000 0.000000
vt 0.000000 0.000000
vt 1.000000 0.000000
vt 1.000000 0.000000
vt 0.000000 0.000000
vt 1.000000 0.000000
vt 0.000000 0.000000
vt 1.000000 0.000000
vt 1.000000 0.000000
vt 1.000000 0.000000
vt 0.000000 0.000000
vt 1.000000 0.000000
vt 0.000000 0.000000
vt 0.000000 0.000000
vt 1.000000 0.000000
vt 1.000000 0.000000
vt 0.000000 0.000000
vt 1.000000 0.000000
vt 1.000000 0.000000
vt 0.000000 0.000000
vt 0.000000 0.000000
vt 1.000000 0.000000
vt 0.000000 0.000000
vt 0.000000 0.000000
vt 1.000000 0.000000
vt 1.000000 0.000000
vt 0.000000 0.000000
vt 1.000000 0.000000
vt 0.000000 0.000000
vt 0.000000 0.000000
vt 1.000000 0.000000
vt 1.000000 0.000000
vt 1.000000 0.000000
vt 1.000000 0.000000
vt 1.000000 0.000000
vt 1.000000 0.000000
vt 1.000000 0.000000
vt 1.000000 0.000000
vt 0.000000 0.000000
vt 1.000000 0.000000
vt 1.000000 0.000000
vt 0.000000 0.000000
vt 1.000000 0.000000
vt 1.000000 0.000000
vt 0.000000 0.000000
vt 1.000000 0.000000
vt 0.000000 0.000000
vt 1.000000 0.000000
vt 0.000000 0.000000
vt 1.000000 0.000000
vt 0.000000 0.000000
vt 1.000000 0.000000
vt 1.000000 0.000000
vt 0.000000 0.000000
vt 0.000000 0.000000
vt 1.000000 0.000000
vt 0.000000 0.000000
vt 0.000000 0.000000
vt 1.000000 0.000000
vt 0.000000 0.000000
vt 1.000000 0.000000
vt 0.000000 0.000000
vt 1.000000 0.000000
vt 1.000000 0.000000
vt 0.000000 0.000000
vt 1.000000 0.000000
s 1
usemtl Material.002
f 2/1/2 19/19/2 4/3/2 6/5/2 5/4/2 3/2/2
f 5/4/3 77/108/3 76/107/3 3/2/3
f 13/12/4 8/7/4 10/9/4 11/10/4
f 10/9/5 8/7/5 83/114/6 84/115/6
f 21/22/7 20/20/7 11/10/7 10/9/7
f 96/129/8 21/22/8 10/9/8 84/115/8
f 20/20/9 23/24/9 9/8/9 11/10/9
f 12/11/10 16/16/10 7/6/10 9/8/10 23/24/10
f 77/108/11 5/4/11 15/14/11 89/121/11
f 5/4/12 6/5/12 14/13/12 15/14/12
f 7/6/13 13/12/13 11/10/13 9/8/13
f 12/11/14 22/23/14 4/3/14 18/18/14 17/17/14
f 12/11/15 17/17/15 16/16/15
f 4/3/16 19/19/16 18/18/16
f 89/121/17 15/14/17 67/97/17 155/221/17
f 61/86/18 62/87/18 42/54/18 40/52/18
f 6/5/19 4/3/19 22/23/19 14/13/19
f 14/13/20 22/23/20 12/11/20 23/24/20 20/20/20
f 15/14/21 14/13/21 32/39/21 33/40/21
f 103/139/22 30/36/22 63/89/22 147/207/22
f 14/13/23 20/20/23 34/42/23 32/39/23
f 20/20/24 21/22/24 55/77/24 59/81/24
f 28/33/25 24/25/25 36/45/25 48/65/25
f 21/22/26 96/129/26 139/195/26 55/77/26
f 50/69/27 26/30/27 25/28/27
f 105/143/28 27/32/28 52/72/28 66/95/28 132/186/28
f 62/87/29 51/70/29 42/54/29
f 42/54/30 51/70/30 50/69/30 45/60/30
f 70/101/31 54/76/31 27/32/31 105/143/31
f 31/38/32 28/33/32 48/65/32 43/56/32
f 25/28/33 53/74/33 46/61/33 44/58/33
f 53/74/34 52/73/34 47/64/34 46/61/34
f 62/88/35 63/90/35 30/37/35 51/71/35
f 29/34/36 31/38/36 43/56/36 49/66/36
f 37/47/37 38/48/37 40/51/37 39/50/37
f 32/39/38 34/42/38 38/48/38 37/47/38
f 33/40/39 32/39/39 37/47/39 35/44/39 36/45/39
f 39/50/40 40/51/40 42/55/40 41/53/40 43/56/40
f 35/44/41 37/47/41 39/50/41 48/65/41
f 41/53/42 42/55/42 45/59/42 44/57/42
f 49/66/43 43/56/43 41/53/43
f 49/66/44 41/53/44 44/57/44 46/62/44
f 49/66/45 46/62/45 47/63/45
f 36/45/46 35/44/46 48/65/46
f 48/65/47 39/50/47 43/56/47
f 103/139/48 150/213/48 64/92/48
f 52/72/49 53/75/49 25/27/49 26/29/49 65/93/49
f 103/140/50 64/91/50 26/29/50 50/68/50
f 50/68/51 51/71/51 30/37/51 103/140/51
f 45/60/52 50/69/52 25/28/52 44/58/52
f 27/31/53 47/64/53 52/73/53
f 27/32/54 54/76/54 29/35/54 49/67/54 47/64/54
f 59/81/55 55/77/55 56/78/55 60/83/55
f 60/83/56 56/78/56 57/79/56 61/85/56
f 55/77/57 139/195/57 141/198/57 56/78/57
f 61/85/58 57/79/58 58/80/58 62/88/58
f 56/78/59 141/198/59 143/201/59 57/79/59
f 62/88/60 58/80/60 63/90/60
f 57/79/61 143/201/61 145/204/61 58/80/61
f 58/80/62 145/204/62 147/208/62 63/90/62
f 34/43/63 20/21/63 59/82/63
f 60/84/64 61/86/64 40/52/64 38/49/64
f 38/49/65 34/43/65 59/82/65 60/84/65
f 64/92/66 150/213/66 128/179/66 26/30/66
f 26/30/67 128/179/67 152/216/67 65/94/67
f 152/216/68 132/187/68 66/96/68 52/73/68 65/94/68
f 155/221/69 67/97/69 68/99/69 157/224/69
f 15/15/70 24/26/70 68/100/70 67/98/70
f 24/25/71 100/134/71 157/224/71 68/99/71
f 36/46/72 24/26/72 68/100/72
f 68/100/73 67/98/73 33/41/73 36/46/73
f 71/102/75 72/103/75 74/105/75 75/106/75 73/104/75 93/125/75
f 74/105/76 72/103/76 76/107/76 77/108/76
f 86/117/77 82/113/77 81/112/77 79/110/77
f 81/112/78 84/115/6 83/114/6 79/110/78
f 95/128/79 81/112/79 82/113/79 94/126/79
f 96/129/80 84/115/80 81/112/80 95/128/80
f 94/126/81 82/113/81 80/111/81 98/131/81
f 85/116/82 98/131/82 80/111/82 78/109/82 90/122/82
f 77/108/83 89/121/83 88/119/83 74/105/83
f 74/105/84 88/119/84 87/118/84 75/106/84
f 78/109/85 80/111/85 82/113/85 86/117/85
f 85/116/86 91/123/86 92/124/86 73/104/86 97/130/86
f 85/116/87 90/122/87 91/123/87
f 73/104/88 92/124/88 93/125/88
f 89/121/89 155/221/89 154/219/89 88/119/89
f 144/203/90 118/163/90 120/165/90 146/205/90
f 75/106/91 87/118/91 97/130/91 73/104/91
f 87/118/92 94/126/92 98/131/92 85/116/92 97/130/92
f 88/119/93 111/151/93 110/150/93 87/118/93
f 103/139/94 147/207/94 148/209/94 108/147/94
f 87/118/95 110/150/95 112/153/95 94/126/95
f 94/126/96 140/196/96 135/191/96 95/128/96
f 106/144/97 126/176/97 114/156/97 99/132/97
f 95/128/98 135/191/98 139/195/98 96/129/98
f 129/181/99 101/136/99 102/138/99
f 105/143/100 132/186/100 153/217/100 131/184/100 104/142/100
f 146/205/101 120/165/101 130/182/101
f 120/165/102 123/171/102 129/181/102 130/182/102
f 70/101/103 105/143/103 104/142/103 134/190/103
f 109/149/104 121/167/104 126/176/104 106/144/104
f 101/136/105 122/169/105 124/172/105 133/188/105
f 133/188/106 124/172/106 125/175/106 131/185/106
f 146/206/107 130/183/107 108/148/107 148/210/107
f 107/145/108 127/177/108 121/167/108 109/149/108
f 115/158/109 117/161/109 118/162/109 116/159/109
f 110/150/110 115/158/110 116/159/110 112/153/110
f 111/151/111 114/156/111 113/155/111 115/158/111 110/150/111
f 117/161/112 121/167/112 119/164/112 120/166/112 118/162/112
f 113/155/113 126/176/113 117/161/113 115/158/113
f 119/164/114 122/168/114 123/170/114 120/166/114
f 127/177/115 119/164/115 121/167/115
f 127/177/116 124/173/116 122/168/116 119/164/116
f 127/177/117 125/174/117 124/173/117
f 114/156/118 126/176/118 113/155/118
f 126/176/119 121/167/119 117/161/119
f 103/139/120 149/212/120 150/213/120
f 131/184/121 151/214/121 102/137/121 101/135/121 133/189/121
f 103/140/122 129/180/122 102/137/122 149/211/122
f 129/180/123 103/140/123 108/148/123 130/183/123
f 123/171/124 122/169/124 101/136/124 129/181/124
f 104/141/125 131/185/125 125/175/125
f 104/142/126 125/175/126 127/178/126 107/146/126 134/190/126
f 140/196/127 142/199/127 136/192/127 135/191/127
f 142/199/128 144/202/128 137/193/128 136/192/128
f 135/191/129 136/192/129 141/198/129 139/195/129
f 144/202/130 146/206/130 138/194/130 137/193/130
f 136/192/131 137/193/131 143/201/131 141/198/131
f 146/206/132 148/210/132 138/194/132
f 137/193/133 138/194/133 145/204/133 143/201/133
f 138/194/134 148/210/134 147/208/134 145/204/134
f 112/154/135 140/197/135 94/127/135
f 142/200/136 116/160/136 118/163/136 144/203/136
f 116/160/137 142/200/137 140/197/137 112/154/137
f 149/212/138 102/138/138 128/179/138 150/213/138
f 102/138/139 151/215/139 152/216/139 128/179/139
f 152/216/140 151/215/140 131/185/140 153/218/140 132/187/140
f 155/221/141 157/224/141 156/222/141 154/219/141
f 88/120/142 154/220/142 156/223/142 99/133/142
f 99/132/143 156/222/143 157/224/143 100/134/143
f 114/157/144 156/223/144 99/133/144
f 156/223/145 114/157/145 111/152/145 154/220/145
usemtl Material.001
f 29/34/1 28/33/1 31/38/1
f 107/145/74 109/149/74 106/144/74
l 1 8
l 79 69
