# Blender 3.5.1
# www.blender.org
mtllib kakikiri.mtl
o Body.000
v -0.079382 1.211133 0.127325
v -0.098207 1.266308 0.315929
v -0.119128 1.110952 0.041615
v -0.465913 1.160461 0.127325
v -0.343522 1.303701 0.329602
v -0.416903 1.119497 0.047523
v -0.080229 1.236019 0.228463
v -0.432013 1.220102 0.228463
v -0.248681 1.294449 0.329602
v -0.256938 1.094880 0.026423
v -0.140977 0.946595 0.348166
v -0.050151 0.917702 0.168616
v -0.101953 1.404228 0.304666
v -0.041144 1.327960 0.158181
v -0.502838 1.291134 0.158181
v -0.456288 1.353384 0.238260
v -0.043940 1.367048 0.238260
v -0.229563 1.404791 0.318338
v -0.115628 1.335188 0.314855
v -0.356228 1.357726 0.323970
v -0.451747 1.284844 0.233362
v -0.078493 1.258153 0.142753
v -0.490853 1.209037 0.035697
v -0.488962 1.223248 0.142753
v -0.066885 1.303893 0.233362
v -0.239122 1.349620 0.323970
v -0.057555 1.047591 0.152121
v -0.140468 1.167597 0.317472
v -0.103040 1.036452 0.082869
v -0.398705 0.994211 0.152121
v -0.303257 1.126902 0.337392
v -0.348065 0.976985 0.090781
v -0.051762 1.092072 0.253259
v -0.401820 1.062644 0.253259
v -0.197427 1.128199 0.345282
v -0.240850 0.933026 0.051218
v -0.033000 0.715383 0.201908
v -0.121996 0.740654 0.357332
v -0.095636 0.839738 0.107411
v -0.369322 0.868908 0.165632
v -0.284864 0.948846 0.336431
v -0.340661 0.842570 0.114088
v -0.037765 0.922377 0.278102
v -0.366761 0.910860 0.272969
v -0.194419 0.969398 0.359943
v -0.233446 0.819875 0.069319
v -0.114227 0.588650 0.361127
v -0.042793 0.553046 0.222090
v -0.108287 0.701044 0.142021
v -0.339889 0.717146 0.193942
v -0.265720 0.748464 0.359269
v -0.313794 0.707441 0.150163
v -0.029616 0.741725 0.290779
v -0.337741 0.725227 0.290260
v -0.186175 0.752356 0.379384
v -0.223871 0.697205 0.103743
v -0.062859 0.439819 0.214197
v -0.122424 0.459338 0.353898
v -0.104766 0.560025 0.157730
v -0.328615 0.582011 0.214490
v -0.257952 0.581257 0.354704
v -0.300836 0.564158 0.166098
v -0.039565 0.570507 0.306275
v -0.326565 0.589721 0.306385
v -0.177664 0.586586 0.377115
v -0.215042 0.551996 0.125268
v -0.065487 0.406365 0.167199
v -0.313513 0.436446 0.205308
v -0.247247 0.441094 0.339806
v -0.292329 0.442690 0.167904
v -0.059631 0.452436 0.299631
v -0.311464 0.437126 0.297524
v -0.169157 0.428163 0.369622
v -0.206535 0.447423 0.133877
v -0.127268 0.151025 0.300635
v -0.110495 0.148937 0.213779
v -0.074213 0.266443 0.222876
v -0.123955 0.262377 0.318390
v -0.076040 0.270012 0.183485
v -0.295479 0.270315 0.216697
v -0.229442 0.272412 0.311606
v -0.256304 0.274238 0.185094
v -0.071968 0.275214 0.291437
v -0.294055 0.270788 0.280805
v -0.161297 0.285020 0.336264
v -0.196661 0.261689 0.156037
v -0.112322 0.152066 0.187825
v -0.272417 0.155886 0.223425
v -0.223963 0.157543 0.294596
v -0.248628 0.159369 0.181272
v -0.108250 0.152433 0.277065
v -0.270993 0.151084 0.263795
v -0.164610 0.158283 0.315542
v -0.188985 0.147348 0.166526
v -0.282910 0.064222 0.316484
v -0.302085 0.085071 0.224175
v -0.129701 -0.031689 0.341123
v -0.112927 -0.031689 0.215278
v -0.114754 -0.031689 0.158406
v -0.302751 -0.031689 0.224924
v -0.226396 -0.031689 0.337855
v -0.281812 -0.031689 0.165801
v -0.110683 -0.031689 0.278564
v -0.283577 -0.031689 0.316600
v -0.167043 -0.031689 0.338337
v -0.191417 -0.031689 0.145948
v -0.201321 -0.031689 0.217726
v -0.196691 -0.031689 0.279698
v -0.074615 0.116815 0.273398
v -0.076859 0.113319 0.221889
v -0.093633 0.115406 0.311821
v -0.302039 -0.031689 0.245109
v -0.078687 0.116448 0.182792
v -0.003610 -0.031689 0.336123
v 0.012835 -0.031689 0.225663
v 0.010029 -0.031689 0.170622
v 0.013716 -0.031689 0.288949
v 0.010856 0.104823 0.277158
v 0.009975 0.100763 0.224913
v -0.006470 0.096857 0.311165
v 0.007170 0.104117 0.197004
v 0.133575 -0.031689 0.311674
v 0.151595 -0.031689 0.228366
v 0.148789 -0.031689 0.191597
v 0.152476 -0.031689 0.282083
v 0.138627 0.092955 0.281334
v 0.137745 0.089955 0.228353
v 0.121300 0.091349 0.313044
v 0.134940 0.088008 0.198920
v -0.100855 0.047583 0.338551
v -0.085909 0.048103 0.161694
v -0.005040 0.040852 0.337946
v 0.008600 0.043952 0.169870
v 0.155660 0.031783 0.230200
v 0.138427 0.029830 0.320868
v 0.156541 0.033813 0.281708
v 0.152854 0.032930 0.183861
v -0.225180 0.062927 0.337106
v -0.165827 0.063297 0.337587
v -0.280595 0.063840 0.166058
v -0.190201 0.057829 0.143367
vn 0.8428 0.5354 0.0544
vn -0.0084 -0.1028 -0.9947
vn -0.9860 -0.1491 0.0752
vn 0.8085 0.4419 0.3886
vn 0.6734 0.0702 -0.7359
vn 0.2809 0.2834 0.9169
vn 0.9278 0.2348 -0.2899
vn -0.8747 -0.0049 0.4846
vn -0.0919 -0.0596 -0.9940
vn -0.8881 0.4283 -0.1670
vn 0.8192 0.1911 -0.5407
vn -0.7547 0.1838 -0.6298
vn -0.9321 -0.0177 -0.3617
vn 0.6382 0.1697 -0.7509
vn 0.7874 0.3455 -0.5105
vn -0.9926 0.1210 0.0111
vn -0.0962 -0.1080 -0.9895
vn 0.9709 0.2126 -0.1100
vn 0.4068 0.1743 0.8967
vn 0.6134 0.0546 -0.7879
vn -0.8301 0.0323 0.5567
vn -0.2924 0.1167 0.9492
vn 0.1612 -0.0299 -0.9865
vn -0.1920 -0.0702 -0.9789
vn 0.0369 -0.0584 -0.9976
vn -0.2581 0.2273 0.9390
vn -0.8227 -0.0149 -0.5683
vn -0.2980 -0.0835 -0.9509
vn 0.8762 0.2626 0.4040
vn 0.9848 0.1621 -0.0626
vn 0.4413 0.2942 0.8478
vn 0.6518 0.0025 -0.7584
vn -0.7472 0.1203 0.6536
vn 0.8364 0.1913 0.5137
vn -0.3200 -0.1144 -0.9405
vn -0.9934 -0.0573 0.0991
vn -0.9946 -0.0552 0.0881
vn -0.9935 -0.0572 0.0988
vn -0.6134 -0.1319 -0.7787
vn -0.5903 -0.0441 -0.8060
vn -0.9979 0.0615 0.0226
vn -0.2869 -0.0193 -0.9578
vn 0.8725 0.1374 0.4689
vn 0.9965 0.0788 -0.0288
vn 0.4549 0.1484 0.8781
vn -0.9946 -0.0552 0.0877
vn -0.5773 -0.0864 -0.8119
vn 0.2586 -0.0805 -0.9626
vn -0.3007 0.2469 0.9212
vn 0.3158 0.0911 -0.9444
vn -0.6050 0.1133 -0.7881
vn -0.9853 0.1705 0.0073
vn -0.2898 0.0486 -0.9558
vn 0.8704 0.0635 0.4882
vn 0.9944 0.1023 -0.0268
vn 0.9941 0.1062 -0.0230
vn 0.9942 0.1043 -0.0248
vn 0.2552 0.0323 -0.9663
vn -0.3023 0.1101 0.9468
vn -0.6706 0.1008 0.7349
vn 0.6399 0.0107 -0.7684
vn -0.9971 0.0720 0.0263
vn -0.9970 0.0726 0.0263
vn -0.9972 0.0700 0.0262
vn -0.2109 0.1163 0.9706
vn 0.3418 0.2090 -0.9162
vn -0.5777 0.1158 -0.8080
vn -0.9974 0.0674 0.0261
vn -0.3807 0.1767 -0.9077
vn -0.2505 0.0214 0.9679
vn -0.8574 -0.0587 0.5113
vn 0.5624 0.1160 -0.8187
vn 0.4014 0.0723 0.9130
vn 0.3535 0.0508 0.9341
vn 0.4649 0.1822 -0.8664
vn -0.9528 0.2920 0.0832
vn -0.2446 0.0917 0.9653
vn 0.3192 0.1490 -0.9359
vn -0.5944 0.2071 -0.7770
vn 0.4811 0.1660 -0.8608
vn 0.4002 0.1523 0.9037
vn 0.9941 0.1063 -0.0229
vn 0.7283 0.1743 0.6627
vn -0.1663 0.0254 0.9857
vn 0.0081 -0.0080 -0.9999
vn -0.1337 -0.9873 -0.0863
vn -0.1667 -0.9637 -0.2084
vn 0.0328 -0.0247 -0.9992
vn 0.9399 -0.0075 0.3415
vn 0.9808 0.1940 -0.0187
vn 0.7506 0.1089 0.6517
vn -0.3427 0.1592 -0.9259
vn -0.9574 0.2886 0.0057
vn -0.0089 -0.9633 0.2683
vn -0.0000 1.0000 -0.0000
vn 0.3423 -0.0076 -0.9396
vn 0.2293 0.0092 0.9733
vn 0.9785 -0.0231 -0.2047
vn 0.9272 -0.3139 -0.2046
vn -0.7263 -0.6869 -0.0253
vn -0.7274 -0.6826 0.0700
vn -0.6372 -0.6461 -0.4203
vn -0.0902 -0.9936 0.0682
vn -0.0712 -0.2921 -0.9537
vn -0.0607 -0.3936 -0.9173
vn -0.1436 -0.9867 0.0762
vn -0.0926 0.0001 0.9957
vn -0.8789 0.0942 -0.4677
vn -0.9979 0.0627 0.0155
vn -0.9955 0.0663 0.0681
vn -0.1200 0.0622 0.9908
vn -0.0626 -0.9824 -0.1761
vn -0.1044 -0.9944 -0.0142
vn -0.0899 -0.3557 0.9303
vn -0.9483 -0.3086 0.0735
vn -0.9561 -0.2914 0.0302
vn -0.8504 -0.2773 -0.4471
vn -0.1465 -0.3418 0.9283
vn -0.0253 -0.0004 -0.9997
vn -0.1426 0.0847 -0.9862
vn 0.1712 -0.3195 -0.9320
vn -0.1704 -0.3177 -0.9328
vn 0.4119 -0.4465 -0.7943
vn 0.2087 -0.2343 0.9495
vn 0.8307 -0.3457 0.4363
vn -0.2054 -0.2685 0.9411
vt 0.000000 0.000000
vt 0.000000 1.000000
vt 0.000000 0.000000
vt 0.000000 0.000000
vt 0.000000 1.000000
vt 0.000000 0.000000
vt 0.000000 0.500000
vt 0.000000 0.500000
vt 0.000000 1.000000
vt 0.000000 0.000000
vt 0.000000 1.000000
vt 0.000000 0.000000
vt 0.500000 1.000000
vt 0.372991 0.000000
vt 0.372991 0.000000
vt 0.436496 0.500000
vt 0.436496 0.500000
vt 0.500000 1.000000
vt 0.250000 1.000000
vt 0.250000 1.000000
vt 0.218248 0.500000
vt 0.186496 0.000000
vt 0.250000 0.000000
vt 0.186496 0.000000
vt 0.218248 0.500000
vt 0.250000 1.000000
vt 0.000000 0.000000
vt 0.000000 1.000000
vt 0.000000 0.000000
vt 0.000000 0.000000
vt 0.000000 1.000000
vt 0.000000 0.000000
vt 0.000000 0.500000
vt 0.000000 0.500000
vt 0.000000 1.000000
vt 0.000000 0.000000
vt 0.000000 0.000000
vt 0.000000 1.000000
vt 0.000000 0.000000
vt 0.000000 0.000000
vt 0.000000 1.000000
vt 0.000000 0.000000
vt 0.000000 0.500000
vt 0.000000 0.500000
vt 0.000000 1.000000
vt 0.000000 0.000000
vt 0.000000 1.000000
vt 0.000000 0.000000
vt 0.000000 0.000000
vt 0.000000 0.000000
vt 0.000000 1.000000
vt 0.000000 0.000000
vt 0.000000 0.500000
vt 0.000000 0.500000
vt 0.000000 1.000000
vt 0.000000 0.000000
vt 0.000000 0.000000
vt 0.000000 1.000000
vt 0.000000 0.000000
vt 0.000000 0.000000
vt 0.000000 1.000000
vt 0.000000 0.000000
vt 0.000000 0.500000
vt 0.000000 0.500000
vt 0.000000 1.000000
vt 0.000000 0.000000
vt 0.000000 0.000000
vt 0.000000 0.000000
vt 0.000000 1.000000
vt 0.000000 0.000000
vt 0.000000 0.500000
vt 0.000000 0.500000
vt 0.000000 1.000000
vt 0.000000 0.000000
vt 0.000000 1.000000
vt 0.000000 0.000000
vt 0.000000 0.000000
vt 0.000000 1.000000
vt 0.000000 0.000000
vt 0.000000 0.000000
vt 0.000000 1.000000
vt 0.000000 0.000000
vt 0.000000 0.500000
vt 0.000000 0.500000
vt 0.000000 1.000000
vt 0.000000 0.000000
vt 0.000000 0.000000
vt 0.000000 0.000000
vt 0.000000 1.000000
vt 0.000000 0.000000
vt 0.000000 0.500000
vt 0.000000 0.500000
vt 0.000000 1.000000
vt 0.000000 0.000000
vt 0.000000 0.500000
vt 0.000000 0.000000
vt 0.000000 1.000000
vt 0.000000 0.000000
vt 0.000000 0.000000
vt 0.000000 0.000000
vt 0.000000 1.000000
vt 0.000000 0.000000
vt 0.000000 0.500000
vt 0.000000 0.500000
vt 0.000000 1.000000
vt 0.000000 0.000000
vt 0.000000 0.000000
vt 0.000000 0.500000
vt 0.000000 0.500000
vt 0.000000 0.000000
vt 0.000000 1.000000
vt 0.000000 0.250000
vt 0.000000 0.000000
vt 0.000000 1.000000
vt 0.000000 0.000000
vt 0.000000 0.000000
vt 0.000000 0.500000
vt 0.000000 0.500000
vt 0.000000 0.000000
vt 0.000000 1.000000
vt 0.000000 0.000000
vt 0.000000 1.000000
vt 0.000000 0.000000
vt 0.000000 0.000000
vt 0.000000 0.500000
vt 0.000000 0.500000
vt 0.000000 0.000000
vt 0.000000 1.000000
vt 0.000000 0.000000
vt 0.000000 1.000000
vt 0.000000 0.000000
vt 0.000000 1.000000
vt 0.000000 0.000000
vt 0.000000 0.000000
vt 0.000000 1.000000
vt 0.000000 0.500000
vt 0.000000 0.000000
vt 0.000000 1.000000
vt 0.000000 1.000000
vt 0.000000 0.000000
vt 0.000000 0.000000
s 1
usemtl Material.002
f 24/24/1 4/4/1 6/6/1 23/23/1
f 26/26/2 9/9/2 5/5/2 20/20/2
f 7/7/3 1/1/3 27/27/3 33/33/3
f 6/6/4 4/4/4 30/30/4 32/32/4
f 8/8/5 5/5/5 31/31/5 34/34/5
f 10/10/6 6/6/6 32/32/6 36/36/6
f 4/4/7 8/8/7 34/34/7 30/30/7
f 1/1/8 3/3/8 29/29/8 27/27/8
f 19/19/9 2/2/9 9/9/9 26/26/9
f 22/22/10 25/25/10 17/17/10 14/14/10
f 24/24/11 15/15/11 16/16/11 21/21/11
f 25/25/12 19/19/12 13/13/12 17/17/12
f 7/7/13 2/2/13 19/19/13 25/25/13
f 8/8/14 21/21/14 20/20/14 5/5/14
f 4/4/15 24/24/15 21/21/15 8/8/15
f 1/1/16 7/7/16 25/25/16 22/22/16
f 13/13/17 19/19/17 26/26/17 18/18/17
f 30/30/18 34/34/18 44/44/18 40/40/18
f 36/36/19 32/32/19 42/42/19 46/46/19
f 34/34/20 31/31/20 41/41/20 44/44/20
f 27/27/21 29/29/21 39/39/21 12/12/21
f 29/29/22 36/36/22 46/46/22 39/39/22
f 31/31/23 35/35/23 45/45/23 41/41/23
f 9/9/24 2/2/24 28/28/24 35/35/24
f 5/5/25 9/9/25 35/35/25 31/31/25
f 3/3/26 10/10/26 36/36/26 29/29/26
f 2/2/27 7/7/27 33/33/27 28/28/27
f 45/45/28 11/11/28 38/38/28 55/55/28
f 42/42/29 40/40/29 50/50/29 52/52/29
f 40/40/30 44/44/30 54/54/30 50/50/30
f 46/46/31 42/42/31 52/52/31 56/56/31
f 44/44/32 41/41/32 51/51/32 54/54/32
f 12/12/33 39/39/33 49/49/33 37/37/33
f 32/32/34 30/30/34 40/40/34 42/42/34
f 35/35/35 28/28/35 11/11/35 45/45/35
f 33/33/36 27/27/36 12/12/37 43/43/38
f 28/28/39 33/33/39 43/43/39 11/11/39
f 38/38/40 53/53/40 63/63/40 47/47/40
f 53/53/41 37/37/41 48/48/41 63/63/41
f 55/55/42 38/38/42 47/47/42 65/65/42
f 52/52/43 50/50/43 60/60/43 62/62/43
f 50/50/44 54/54/44 64/64/44 60/60/44
f 56/56/45 52/52/45 62/62/45 66/66/45
f 43/43/38 12/12/37 37/37/46 53/53/46
f 11/11/47 43/43/47 53/53/47 38/38/47
f 41/41/48 45/45/48 55/55/48 51/51/48
f 39/39/49 46/46/49 56/56/49 49/49/49
f 61/61/50 65/65/50 73/73/50 69/69/50
f 47/47/51 63/63/51 71/71/51 58/58/51
f 63/63/52 48/48/52 57/57/52 71/71/52
f 65/65/53 47/47/53 58/58/53 73/73/53
f 62/62/54 60/60/54 68/68/54 70/70/54
f 60/60/55 64/64/55 72/72/56 68/68/57
f 51/51/58 55/55/58 65/65/58 61/61/58
f 49/49/59 56/56/59 66/66/59 59/59/59
f 37/37/60 49/49/60 59/59/60 48/48/60
f 54/54/61 51/51/61 61/61/61 64/64/61
f 57/57/62 67/67/63 79/79/63 77/77/64
f 67/67/65 74/74/65 86/86/65 79/79/65
f 69/69/66 73/73/66 85/85/66 81/81/66
f 58/58/67 71/71/67 83/83/67 78/78/67
f 71/71/68 57/57/62 77/77/64 83/83/68
f 73/73/69 58/58/69 78/78/69 85/85/69
f 59/59/70 66/66/70 74/74/70 67/67/70
f 48/48/71 59/59/71 67/67/71 57/57/71
f 64/64/72 61/61/72 69/69/72 72/72/72
f 66/66/73 62/62/73 70/70/73 74/74/73
f 86/86/74 82/82/74 90/90/74 94/94/74
f 84/84/75 81/81/75 89/89/75 92/92/75
f 77/77/76 79/79/76 87/87/76 76/76/76
f 79/79/77 86/86/77 94/94/77 87/87/77
f 81/81/78 85/85/78 93/93/78 89/89/78
f 78/78/79 83/83/79 91/91/79 75/75/79
f 72/72/80 69/69/80 81/81/80 84/84/80
f 74/74/81 70/70/81 82/82/81 86/86/81
f 68/68/57 72/72/56 84/84/82 80/80/82
f 70/70/83 68/68/83 80/80/83 82/82/83
f 131/131/84 141/141/84 106/106/84 99/99/84
f 138/138/85 139/139/85 105/105/85 101/101/85
f 110/110/86 113/113/86 121/121/86 119/119/86
f 111/111/87 109/109/87 118/118/87 120/120/87
f 139/139/88 130/130/88 97/97/88 105/105/88
f 140/140/89 96/96/89 100/100/89 102/102/89
f 80/80/90 84/84/90 92/92/90 88/88/90
f 82/82/91 80/80/91 88/88/91 90/90/91
f 85/85/92 78/78/92 75/75/92 93/93/92
f 83/83/93 77/77/93 76/76/93 91/91/93
f 66/66/94 59/59/94 62/62/94
f 107/107/95 106/106/95 102/102/95 100/100/95
f 108/108/95 107/107/95 100/100/95 112/112/95 104/104/95
f 105/105/95 108/108/95 104/104/95 101/101/95
f 97/97/95 103/103/95 108/108/95 105/105/95
f 103/103/95 98/98/95 107/107/95 108/108/95
f 98/98/95 99/99/95 106/106/95 107/107/95
f 99/99/95 98/98/95 115/115/95 116/116/95
f 95/95/96 138/138/96 101/101/96 104/104/96
f 141/141/97 140/140/97 102/102/97 106/106/97
f 96/96/98 95/95/98 104/104/98 112/112/98 100/100/98
f 88/88/99 92/92/99 95/95/99 96/96/99
f 76/76/100 87/87/100 113/113/100 110/110/100
f 91/91/101 76/76/101 110/110/101 109/109/101
f 75/75/102 91/91/102 109/109/102 111/111/102
f 118/118/103 119/119/103 127/127/103 126/126/103
f 132/132/104 120/120/104 128/128/104 135/135/104
f 116/116/95 115/115/95 123/123/95 124/124/95
f 130/130/105 111/111/105 120/120/105 132/132/105
f 98/98/95 103/103/95 117/117/95 115/115/95
f 109/109/106 110/110/106 119/119/106 118/118/106
f 103/103/95 97/97/95 114/114/95 117/117/95
f 131/131/107 99/99/107 116/116/107 133/133/107
f 135/135/108 136/136/108 125/125/108 122/122/108
f 136/136/109 134/134/109 123/123/109 125/125/109
f 134/134/110 137/137/110 124/124/110 123/123/110
f 133/133/111 116/116/111 124/124/111 137/137/111
f 117/117/95 114/114/95 122/122/95 125/125/95
f 115/115/95 117/117/95 125/125/95 123/123/95
f 120/120/112 118/118/112 126/126/112 128/128/112
f 119/119/113 121/121/113 129/129/113 127/127/113
f 121/121/114 133/133/114 137/137/114 129/129/114
f 127/127/115 129/129/115 137/137/115 134/134/115
f 126/126/116 127/127/116 134/134/116 136/136/116
f 128/128/117 126/126/117 136/136/117 135/135/117
f 113/113/118 131/131/118 133/133/118 121/121/118
f 97/97/119 130/130/119 132/132/119 114/114/119
f 114/114/120 132/132/120 135/135/120 122/122/120
f 89/89/121 93/93/121 139/139/121 138/138/121
f 93/93/122 75/75/122 111/111/122 130/130/122 139/139/122
f 92/92/123 89/89/123 138/138/123 95/95/123
f 94/94/124 90/90/124 140/140/124 141/141/124
f 90/90/125 88/88/125 96/96/125 140/140/125
f 87/87/126 94/94/126 141/141/126 131/131/126 113/113/126
