# Blender 3.5.1
# www.blender.org
mtllib kakikiri2.mtl
o Body.000
v -0.548431 1.260919 0.044515
v -0.547684 1.260132 0.300589
v -0.566359 1.262135 0.044452
v -0.565612 1.261348 0.312782
v -0.079382 1.211133 0.127325
v -0.098207 1.266308 0.315929
v -0.119128 1.110952 0.041615
v -0.465913 1.160461 0.127325
v -0.343522 1.303701 0.329602
v -0.416903 1.119497 0.047523
v -0.080229 1.236019 0.228463
v -0.432013 1.220102 0.228463
v -0.248681 1.294449 0.329602
v -0.256938 1.094880 0.026423
v -0.140977 0.946595 0.348166
v -0.050151 0.917702 0.168616
v -0.024627 1.326279 0.044971
v -0.041144 1.327960 0.158181
v -0.502838 1.291134 0.158181
v -0.456288 1.353384 0.238260
v -0.043940 1.367048 0.238260
v -0.115628 1.335188 0.314855
v -0.451747 1.284844 0.233362
v -0.071877 1.211019 0.035697
v -0.078493 1.258153 0.142753
v -0.490853 1.209037 0.035697
v -0.488962 1.223248 0.142753
v -0.066885 1.303893 0.233362
v -0.239122 1.349620 0.323970
v -0.057555 1.047591 0.152121
v -0.140468 1.167597 0.317472
v -0.103040 1.036452 0.082869
v -0.398705 0.994211 0.152121
v -0.303257 1.126902 0.337392
v -0.348065 0.976985 0.090781
v -0.051762 1.092072 0.253259
v -0.401820 1.062644 0.253259
v -0.197427 1.128199 0.345282
v -0.240850 0.933026 0.051218
v -0.033000 0.715383 0.201908
v -0.121996 0.740654 0.357332
v -0.095636 0.839738 0.107411
v -0.369322 0.868908 0.165632
v -0.284864 0.948846 0.336431
v -0.340661 0.842570 0.114088
v -0.037765 0.922377 0.278102
v -0.366761 0.910860 0.272969
v -0.194419 0.969398 0.359943
v -0.233446 0.819875 0.069319
v -0.114227 0.588650 0.361127
v -0.042793 0.553046 0.222090
v -0.108287 0.701044 0.142021
v -0.339889 0.717146 0.193942
v -0.265720 0.748464 0.359269
v -0.313794 0.707441 0.150163
v -0.029616 0.741725 0.290779
v -0.337741 0.725227 0.290260
v -0.186175 0.752356 0.379384
v -0.223871 0.697205 0.103743
v -0.062859 0.439819 0.214197
v -0.122424 0.459338 0.353898
v -0.104766 0.560025 0.157730
v -0.328615 0.582011 0.214490
v -0.257952 0.581257 0.354704
v -0.300836 0.564158 0.166098
v -0.039565 0.570507 0.306275
v -0.326565 0.589721 0.306385
v -0.177664 0.586586 0.377115
v -0.215042 0.551996 0.125268
v -0.065487 0.406365 0.167199
v -0.313513 0.436446 0.205308
v -0.247247 0.441094 0.339806
v -0.292329 0.442690 0.167904
v -0.059631 0.452436 0.299631
v -0.311464 0.437126 0.297524
v -0.169157 0.428163 0.369622
v -0.206535 0.447423 0.133877
v -0.127268 0.151025 0.300635
v -0.110495 0.148937 0.213779
v -0.074213 0.266443 0.222876
v -0.123955 0.262377 0.318390
v -0.076040 0.270012 0.183485
v -0.295479 0.270315 0.216697
v -0.229442 0.272412 0.311606
v -0.256304 0.274238 0.185094
v -0.071968 0.275214 0.291437
v -0.294055 0.270788 0.280805
v -0.161297 0.285020 0.336264
v -0.196661 0.261689 0.156037
v -0.112322 0.152066 0.187825
v -0.272417 0.155886 0.223425
v -0.223963 0.157543 0.294596
v -0.248628 0.159369 0.181272
v -0.108250 0.152433 0.277065
v -0.270993 0.151084 0.263795
v -0.164610 0.158283 0.315542
v -0.188985 0.147348 0.166526
v -0.282910 0.064222 0.316484
v -0.302085 0.085071 0.224175
v -0.129701 -0.031689 0.341123
v -0.112927 -0.031689 0.215278
v -0.114754 -0.031689 0.158406
v -0.302751 -0.031689 0.224924
v -0.226396 -0.031689 0.337855
v -0.281812 -0.031689 0.165801
v -0.110683 -0.031689 0.278564
v -0.283577 -0.031689 0.316600
v -0.167043 -0.031689 0.338337
v -0.191417 -0.031689 0.145948
v -0.201321 -0.031689 0.217726
v -0.196691 -0.031689 0.279698
v -0.074615 0.116815 0.273398
v -0.076859 0.113319 0.221889
v -0.093633 0.115406 0.311821
v -0.302039 -0.031689 0.245109
v -0.078687 0.116448 0.182792
v -0.003610 -0.031689 0.336123
v 0.012835 -0.031689 0.225663
v 0.010029 -0.031689 0.170622
v 0.013716 -0.031689 0.288949
v 0.010856 0.104823 0.277158
v 0.009975 0.100763 0.224913
v -0.006470 0.096857 0.311165
v 0.007170 0.104117 0.197004
v 0.133575 -0.031689 0.311674
v 0.151595 -0.031689 0.228366
v 0.148789 -0.031689 0.191597
v 0.152476 -0.031689 0.282083
v 0.138627 0.092955 0.281334
v 0.137745 0.089955 0.228353
v 0.121300 0.091349 0.313044
v 0.134940 0.088008 0.198920
v -0.100855 0.047583 0.338551
v -0.085909 0.048103 0.161694
v -0.005040 0.040852 0.337946
v 0.008600 0.043952 0.169870
v 0.155660 0.031783 0.230200
v 0.138427 0.029830 0.320868
v 0.156541 0.033813 0.281708
v 0.152854 0.032930 0.183861
v -0.225180 0.062927 0.337106
v -0.165827 0.063297 0.337587
v -0.280595 0.063840 0.166058
v -0.190201 0.057829 0.143367
v -0.548431 1.260919 -0.044516
v -0.554379 1.260813 -0.000000
v -0.566359 1.262135 -0.044452
v -0.567192 1.262030 -0.000000
v -0.119128 1.097591 -0.000000
v -0.416903 1.119497 -0.047523
v -0.364153 1.113768 -0.000000
v -0.256938 1.094880 -0.026423
v -0.251663 1.091437 -0.000000
v -0.024627 1.326279 -0.044971
v -0.009381 1.314836 -0.000000
v -0.071877 1.211019 -0.035697
v -0.064254 1.206213 -0.000000
v -0.490853 1.209037 -0.035697
v -0.490853 1.201783 -0.000000
vn 0.0922 0.9957 -0.0108
vn 0.6487 0.7525 -0.1137
vn 0.0789 0.9968 -0.0084
vn -0.0686 -0.9976 -0.0028
vn -0.9460 0.3146 -0.0779
vn -0.8844 0.4274 -0.1876
vn 0.8428 0.5354 0.0544
vn 0.6261 0.7264 0.2835
vn -0.9860 -0.1491 0.0752
vn 0.8085 0.4419 0.3886
vn 0.1707 0.9853 0.0117
vn 0.6734 0.0702 -0.7359
vn 0.2809 0.2834 0.9169
vn -0.0658 0.9675 -0.2441
vn 0.9278 0.2348 -0.2899
vn -0.8747 -0.0049 0.4846
vn -0.0919 -0.0596 -0.9940
vn -0.8881 0.4283 -0.1670
vn 0.8192 0.1911 -0.5407
vn -0.9321 -0.0177 -0.3617
vn 0.7874 0.3455 -0.5105
vn -0.9926 0.1210 0.0111
vn 0.7987 0.5330 -0.2791
vn -0.8556 0.4037 -0.3239
vn -0.8836 0.4290 -0.1879
vn 0.9709 0.2126 -0.1100
vn 0.4068 0.1743 0.8967
vn 0.6134 0.0546 -0.7879
vn -0.8301 0.0323 0.5567
vn -0.2924 0.1167 0.9492
vn 0.1612 -0.0299 -0.9865
vn -0.1920 -0.0702 -0.9789
vn 0.0369 -0.0584 -0.9976
vn -0.2581 0.2273 0.9390
vn -0.8227 -0.0149 -0.5683
vn -0.2980 -0.0835 -0.9509
vn 0.8762 0.2626 0.4040
vn 0.9848 0.1621 -0.0626
vn 0.4413 0.2942 0.8478
vn 0.6518 0.0025 -0.7584
vn -0.7472 0.1203 0.6536
vn 0.8364 0.1913 0.5137
vn -0.3200 -0.1144 -0.9405
vn -0.9934 -0.0573 0.0991
vn -0.9946 -0.0552 0.0881
vn -0.9935 -0.0572 0.0988
vn -0.6134 -0.1319 -0.7787
vn -0.5903 -0.0441 -0.8060
vn -0.9979 0.0615 0.0226
vn -0.2869 -0.0193 -0.9578
vn 0.8725 0.1374 0.4689
vn 0.9965 0.0788 -0.0288
vn 0.4549 0.1484 0.8781
vn -0.9946 -0.0552 0.0877
vn -0.5773 -0.0864 -0.8119
vn 0.2586 -0.0805 -0.9626
vn -0.3007 0.2469 0.9212
vn 0.3158 0.0911 -0.9444
vn -0.6050 0.1133 -0.7881
vn -0.9853 0.1705 0.0073
vn -0.2898 0.0486 -0.9558
vn 0.8704 0.0635 0.4882
vn 0.9944 0.1023 -0.0268
vn 0.9941 0.1062 -0.0230
vn 0.9942 0.1043 -0.0248
vn 0.2552 0.0323 -0.9663
vn -0.3023 0.1101 0.9468
vn -0.6706 0.1008 0.7349
vn 0.6399 0.0107 -0.7684
vn -0.9971 0.0720 0.0263
vn -0.9970 0.0726 0.0263
vn -0.9972 0.0700 0.0262
vn -0.2109 0.1163 0.9706
vn 0.3418 0.2090 -0.9162
vn -0.5777 0.1158 -0.8080
vn -0.9974 0.0674 0.0261
vn -0.3807 0.1767 -0.9077
vn -0.2505 0.0214 0.9679
vn -0.8574 -0.0587 0.5113
vn 0.5624 0.1160 -0.8187
vn 0.4014 0.0723 0.9130
vn 0.3535 0.0508 0.9341
vn 0.4649 0.1822 -0.8664
vn -0.9528 0.2920 0.0832
vn -0.2446 0.0917 0.9653
vn 0.3192 0.1490 -0.9359
vn -0.5944 0.2071 -0.7770
vn 0.4811 0.1660 -0.8608
vn 0.4002 0.1523 0.9037
vn 0.9941 0.1063 -0.0229
vn 0.7283 0.1743 0.6627
vn -0.1663 0.0254 0.9857
vn 0.0081 -0.0080 -0.9999
vn -0.1337 -0.9873 -0.0863
vn -0.1667 -0.9637 -0.2084
vn 0.0328 -0.0247 -0.9992
vn 0.9399 -0.0075 0.3415
vn 0.9808 0.1940 -0.0187
vn 0.7506 0.1089 0.6517
vn -0.3427 0.1592 -0.9259
vn -0.9574 0.2886 0.0057
vn -0.0089 -0.9633 0.2683
vn -0.0000 1.0000 -0.0000
vn 0.3423 -0.0076 -0.9396
vn 0.2293 0.0092 0.9733
vn 0.9785 -0.0231 -0.2047
vn 0.9272 -0.3139 -0.2046
vn -0.7263 -0.6869 -0.0253
vn -0.7274 -0.6826 0.0700
vn -0.6372 -0.6461 -0.4203
vn -0.0902 -0.9936 0.0682
vn -0.0712 -0.2921 -0.9537
vn -0.0607 -0.3936 -0.9173
vn -0.1436 -0.9867 0.0762
vn -0.0926 0.0001 0.9957
vn -0.8789 0.0942 -0.4677
vn -0.9979 0.0627 0.0155
vn -0.9955 0.0663 0.0681
vn -0.1200 0.0622 0.9908
vn -0.0626 -0.9824 -0.1761
vn -0.1044 -0.9944 -0.0142
vn -0.0899 -0.3557 0.9303
vn -0.9483 -0.3086 0.0735
vn -0.9561 -0.2914 0.0302
vn -0.8504 -0.2773 -0.4471
vn -0.1465 -0.3418 0.9283
vn -0.0253 -0.0004 -0.9997
vn -0.1426 0.0847 -0.9862
vn 0.1712 -0.3195 -0.9320
vn -0.1704 -0.3177 -0.9328
vn 0.4119 -0.4465 -0.7943
vn 0.2087 -0.2343 0.9495
vn 0.8307 -0.3457 0.4363
vn -0.2054 -0.2685 0.9411
vn 0.6661 0.7366 -0.1170
vn 0.0922 0.9957 0.0108
vn 0.0789 0.9968 0.0084
vn 0.6487 0.7525 0.1137
vn 0.6261 0.7264 -0.2835
vn 0.1707 0.9853 -0.0117
vn -0.8556 0.4037 0.3239
vn 0.6661 0.7366 0.1170
vt 0.500000 0.000000
vt 0.000000 0.000000
vt 0.000000 0.000000
vt 0.000000 0.000000
vt 0.000000 0.000000
vt 0.000000 0.000000
vt 0.000000 1.000000
vt 0.000000 0.000000
vt 0.000000 0.000000
vt 0.000000 1.000000
vt 0.000000 0.000000
vt 0.000000 0.500000
vt 0.000000 0.500000
vt 0.000000 1.000000
vt 0.000000 0.000000
vt 0.000000 1.000000
vt 0.000000 0.000000
vt 0.500000 0.000000
vt 0.372991 0.000000
vt 0.372991 0.000000
vt 0.436496 0.500000
vt 0.436496 0.500000
vt 0.250000 1.000000
vt 0.218248 0.500000
vt 0.250000 0.000000
vt 0.186496 0.000000
vt 0.250000 0.000000
vt 0.000000 0.000000
vt 0.186496 0.000000
vt 0.218248 0.500000
vt 0.250000 1.000000
vt 0.000000 0.000000
vt 0.000000 1.000000
vt 0.000000 0.000000
vt 0.000000 0.000000
vt 0.000000 1.000000
vt 0.000000 0.000000
vt 0.000000 0.500000
vt 0.000000 0.500000
vt 0.000000 1.000000
vt 0.000000 0.000000
vt 0.000000 0.000000
vt 0.000000 1.000000
vt 0.000000 0.000000
vt 0.000000 0.000000
vt 0.000000 1.000000
vt 0.000000 0.000000
vt 0.000000 0.500000
vt 0.000000 0.500000
vt 0.000000 1.000000
vt 0.000000 0.000000
vt 0.000000 1.000000
vt 0.000000 0.000000
vt 0.000000 0.000000
vt 0.000000 0.000000
vt 0.000000 1.000000
vt 0.000000 0.000000
vt 0.000000 0.500000
vt 0.000000 0.500000
vt 0.000000 1.000000
vt 0.000000 0.000000
vt 0.000000 0.000000
vt 0.000000 1.000000
vt 0.000000 0.000000
vt 0.000000 0.000000
vt 0.000000 1.000000
vt 0.000000 0.000000
vt 0.000000 0.500000
vt 0.000000 0.500000
vt 0.000000 1.000000
vt 0.000000 0.000000
vt 0.000000 0.000000
vt 0.000000 0.000000
vt 0.000000 1.000000
vt 0.000000 0.000000
vt 0.000000 0.500000
vt 0.000000 0.500000
vt 0.000000 1.000000
vt 0.000000 0.000000
vt 0.000000 1.000000
vt 0.000000 0.000000
vt 0.000000 0.000000
vt 0.000000 1.000000
vt 0.000000 0.000000
vt 0.000000 0.000000
vt 0.000000 1.000000
vt 0.000000 0.000000
vt 0.000000 0.500000
vt 0.000000 0.500000
vt 0.000000 1.000000
vt 0.000000 0.000000
vt 0.000000 0.000000
vt 0.000000 0.000000
vt 0.000000 1.000000
vt 0.000000 0.000000
vt 0.000000 0.500000
vt 0.000000 0.500000
vt 0.000000 1.000000
vt 0.000000 0.000000
vt 0.000000 0.500000
vt 0.000000 0.000000
vt 0.000000 1.000000
vt 0.000000 0.000000
vt 0.000000 0.000000
vt 0.000000 0.000000
vt 0.000000 1.000000
vt 0.000000 0.000000
vt 0.000000 0.500000
vt 0.000000 0.500000
vt 0.000000 1.000000
vt 0.000000 0.000000
vt 0.000000 0.000000
vt 0.000000 0.500000
vt 0.000000 0.500000
vt 0.000000 0.000000
vt 0.000000 1.000000
vt 0.000000 0.250000
vt 0.000000 0.000000
vt 0.000000 1.000000
vt 0.000000 0.000000
vt 0.000000 0.000000
vt 0.000000 0.500000
vt 0.000000 0.500000
vt 0.000000 0.000000
vt 0.000000 1.000000
vt 0.000000 0.000000
vt 0.000000 1.000000
vt 0.000000 0.000000
vt 0.000000 0.000000
vt 0.000000 0.500000
vt 0.000000 0.500000
vt 0.000000 0.000000
vt 0.000000 1.000000
vt 0.000000 0.000000
vt 0.000000 1.000000
vt 0.000000 0.000000
vt 0.000000 1.000000
vt 0.000000 0.000000
vt 0.000000 0.000000
vt 0.000000 1.000000
vt 0.000000 0.500000
vt 0.000000 0.000000
vt 0.000000 1.000000
vt 0.000000 1.000000
vt 0.000000 0.000000
vt 0.000000 0.000000
vt 0.000000 0.000000
vt 0.000000 0.000000
vt 0.000000 0.000000
vt 0.000000 0.000000
vt 0.000000 0.000000
vt 0.000000 0.000000
vt 0.000000 0.000000
vt 0.000000 0.000000
vt 0.000000 0.000000
vt 0.500000 0.000000
vt 0.500000 0.000000
vt 0.250000 0.000000
vt 0.250000 0.000000
vt 0.250000 0.000000
vt 0.000000 0.000000
vt 0.250000 0.000000
vt 0.000000 0.000000
s 1
usemtl Material.003
f 1/2/1 146/148/2 148/150/3 3/4/3
f 1/2/4 2/3/4 4/5/4 3/4/4
f 145/147/136 147/149/137 148/150/137 146/148/138
usemtl Material.002
f 25/26/5 24/25/5 7/8/5 5/6/5
f 24/25/6 157/159/6 149/151/6 7/8/6
f 27/29/7 8/9/7 10/11/7 26/27/7
f 26/27/8 10/11/8 151/153/8 159/162/8
f 11/12/9 5/6/9 30/32/9 36/38/9
f 10/11/10 8/9/10 33/35/10 35/37/10
f 14/15/11 153/155/11 151/153/11 10/11/11
f 12/13/12 9/10/12 34/36/12 37/39/12
f 14/15/13 10/11/13 35/37/13 39/41/13
f 7/8/14 149/151/14 153/155/14 14/15/14
f 8/9/15 12/13/15 37/39/15 33/35/15
f 5/6/16 7/8/16 32/34/16 30/32/16
f 22/23/17 6/7/17 13/14/17 29/31/17
f 25/26/18 28/30/18 21/22/18 18/19/18
f 27/29/19 19/20/19 20/21/19 23/24/19
f 11/12/20 6/7/20 22/23/20 28/30/20
f 8/9/21 27/29/21 23/24/21 12/13/21
f 5/6/22 11/12/22 28/30/22 25/26/22
f 19/20/23 27/29/23 26/27/23 1/1/23
f 17/18/24 155/157/24 157/159/24 24/25/24
f 18/19/25 17/18/25 24/25/25 25/26/25
f 33/35/26 37/39/26 47/49/26 43/45/26
f 39/41/27 35/37/27 45/47/27 49/51/27
f 37/39/28 34/36/28 44/46/28 47/49/28
f 30/32/29 32/34/29 42/44/29 16/17/29
f 32/34/30 39/41/30 49/51/30 42/44/30
f 34/36/31 38/40/31 48/50/31 44/46/31
f 13/14/32 6/7/32 31/33/32 38/40/32
f 9/10/33 13/14/33 38/40/33 34/36/33
f 7/8/34 14/15/34 39/41/34 32/34/34
f 6/7/35 11/12/35 36/38/35 31/33/35
f 48/50/36 15/16/36 41/43/36 58/60/36
f 45/47/37 43/45/37 53/55/37 55/57/37
f 43/45/38 47/49/38 57/59/38 53/55/38
f 49/51/39 45/47/39 55/57/39 59/61/39
f 47/49/40 44/46/40 54/56/40 57/59/40
f 16/17/41 42/44/41 52/54/41 40/42/41
f 35/37/42 33/35/42 43/45/42 45/47/42
f 38/40/43 31/33/43 15/16/43 48/50/43
f 36/38/44 30/32/44 16/17/45 46/48/46
f 31/33/47 36/38/47 46/48/47 15/16/47
f 41/43/48 56/58/48 66/68/48 50/52/48
f 56/58/49 40/42/49 51/53/49 66/68/49
f 58/60/50 41/43/50 50/52/50 68/70/50
f 55/57/51 53/55/51 63/65/51 65/67/51
f 53/55/52 57/59/52 67/69/52 63/65/52
f 59/61/53 55/57/53 65/67/53 69/71/53
f 46/48/46 16/17/45 40/42/54 56/58/54
f 15/16/55 46/48/55 56/58/55 41/43/55
f 44/46/56 48/50/56 58/60/56 54/56/56
f 42/44/57 49/51/57 59/61/57 52/54/57
f 64/66/58 68/70/58 76/78/58 72/74/58
f 50/52/59 66/68/59 74/76/59 61/63/59
f 66/68/60 51/53/60 60/62/60 74/76/60
f 68/70/61 50/52/61 61/63/61 76/78/61
f 65/67/62 63/65/62 71/73/62 73/75/62
f 63/65/63 67/69/63 75/77/64 71/73/65
f 54/56/66 58/60/66 68/70/66 64/66/66
f 52/54/67 59/61/67 69/71/67 62/64/67
f 40/42/68 52/54/68 62/64/68 51/53/68
f 57/59/69 54/56/69 64/66/69 67/69/69
f 60/62/70 70/72/71 82/84/71 80/82/72
f 70/72/73 77/79/73 89/91/73 82/84/73
f 72/74/74 76/78/74 88/90/74 84/86/74
f 61/63/75 74/76/75 86/88/75 81/83/75
f 74/76/76 60/62/70 80/82/72 86/88/76
f 76/78/77 61/63/77 81/83/77 88/90/77
f 62/64/78 69/71/78 77/79/78 70/72/78
f 51/53/79 62/64/79 70/72/79 60/62/79
f 67/69/80 64/66/80 72/74/80 75/77/80
f 69/71/81 65/67/81 73/75/81 77/79/81
f 89/91/82 85/87/82 93/95/82 97/99/82
f 87/89/83 84/86/83 92/94/83 95/97/83
f 80/82/84 82/84/84 90/92/84 79/81/84
f 82/84/85 89/91/85 97/99/85 90/92/85
f 84/86/86 88/90/86 96/98/86 92/94/86
f 81/83/87 86/88/87 94/96/87 78/80/87
f 75/77/88 72/74/88 84/86/88 87/89/88
f 77/79/89 73/75/89 85/87/89 89/91/89
f 71/73/65 75/77/64 87/89/90 83/85/90
f 73/75/91 71/73/91 83/85/91 85/87/91
f 134/136/92 144/146/92 109/111/92 102/104/92
f 141/143/93 142/144/93 108/110/93 104/106/93
f 113/115/94 116/118/94 124/126/94 122/124/94
f 114/116/95 112/114/95 121/123/95 123/125/95
f 142/144/96 133/135/96 100/102/96 108/110/96
f 143/145/97 99/101/97 103/105/97 105/107/97
f 83/85/98 87/89/98 95/97/98 91/93/98
f 85/87/99 83/85/99 91/93/99 93/95/99
f 88/90/100 81/83/100 78/80/100 96/98/100
f 86/88/101 80/82/101 79/81/101 94/96/101
f 69/71/102 62/64/102 65/67/102
f 110/112/103 109/111/103 105/107/103 103/105/103
f 111/113/103 110/112/103 103/105/103 115/117/103 107/109/103
f 108/110/103 111/113/103 107/109/103 104/106/103
f 100/102/103 106/108/103 111/113/103 108/110/103
f 106/108/103 101/103/103 110/112/103 111/113/103
f 101/103/103 102/104/103 109/111/103 110/112/103
f 102/104/103 101/103/103 118/120/103 119/121/103
f 98/100/104 141/143/104 104/106/104 107/109/104
f 144/146/105 143/145/105 105/107/105 109/111/105
f 99/101/106 98/100/106 107/109/106 115/117/106 103/105/106
f 91/93/107 95/97/107 98/100/107 99/101/107
f 79/81/108 90/92/108 116/118/108 113/115/108
f 94/96/109 79/81/109 113/115/109 112/114/109
f 78/80/110 94/96/110 112/114/110 114/116/110
f 121/123/111 122/124/111 130/132/111 129/131/111
f 135/137/112 123/125/112 131/133/112 138/140/112
f 119/121/103 118/120/103 126/128/103 127/129/103
f 133/135/113 114/116/113 123/125/113 135/137/113
f 101/103/103 106/108/103 120/122/103 118/120/103
f 112/114/114 113/115/114 122/124/114 121/123/114
f 106/108/103 100/102/103 117/119/103 120/122/103
f 134/136/115 102/104/115 119/121/115 136/138/115
f 138/140/116 139/141/116 128/130/116 125/127/116
f 139/141/117 137/139/117 126/128/117 128/130/117
f 137/139/118 140/142/118 127/129/118 126/128/118
f 136/138/119 119/121/119 127/129/119 140/142/119
f 120/122/103 117/119/103 125/127/103 128/130/103
f 118/120/103 120/122/103 128/130/103 126/128/103
f 123/125/120 121/123/120 129/131/120 131/133/120
f 122/124/121 124/126/121 132/134/121 130/132/121
f 124/126/122 136/138/122 140/142/122 132/134/122
f 130/132/123 132/134/123 140/142/123 137/139/123
f 129/131/124 130/132/124 137/139/124 139/141/124
f 131/133/125 129/131/125 139/141/125 138/140/125
f 116/118/126 134/136/126 136/138/126 124/126/126
f 100/102/127 133/135/127 135/137/127 117/119/127
f 117/119/128 135/137/128 138/140/128 125/127/128
f 92/94/129 96/98/129 142/144/129 141/143/129
f 96/98/130 78/80/130 114/116/130 133/135/130 142/144/130
f 95/97/131 92/94/131 141/143/131 98/100/131
f 97/99/132 93/95/132 143/145/132 144/146/132
f 93/95/133 91/93/133 99/101/133 143/145/133
f 90/92/134 97/99/134 144/146/134 134/136/134 116/118/134
f 26/28/135 159/163/135 146/148/2 1/2/1
f 158/160/139 159/162/139 151/153/139 150/152/139
f 152/154/140 150/152/140 151/153/140 153/155/140
f 154/156/141 156/158/141 157/159/141 155/157/141
f 158/161/142 145/147/136 146/148/138 159/163/142
