# Blender 3.5.1
# www.blender.org
mtllib kakikiri1.mtl
o Body.000
v -0.548431 1.260919 0.044515
v -0.547684 1.260132 0.300589
v -0.566359 1.262135 0.044452
v -0.565612 1.261348 0.312782
v -0.079382 1.211133 0.127325
v -0.098207 1.266308 0.315929
v -0.119128 1.110952 0.041615
v -0.465913 1.160461 0.127325
v -0.343522 1.303701 0.329602
v -0.416903 1.119497 0.047523
v -0.080229 1.236019 0.228463
v -0.432013 1.220102 0.228463
v -0.248681 1.294449 0.329602
v -0.256938 1.094880 0.026423
v -0.140977 0.946595 0.348166
v -0.050151 0.917702 0.168616
v -0.502838 1.291134 0.158181
v -0.115628 1.335188 0.314855
v -0.071877 1.211019 0.035697
v -0.078493 1.258153 0.142753
v -0.490853 1.209037 0.035697
v -0.488962 1.223248 0.142753
v -0.066885 1.303893 0.233362
v -0.239122 1.349620 0.323970
v -0.057555 1.047591 0.152121
v -0.140468 1.167597 0.317472
v -0.103040 1.036452 0.082869
v -0.398705 0.994211 0.152121
v -0.303257 1.126902 0.337392
v -0.348065 0.976985 0.090781
v -0.051762 1.092072 0.253259
v -0.401820 1.062644 0.253259
v -0.197427 1.128199 0.345282
v -0.240850 0.933026 0.051218
v -0.033000 0.715383 0.201908
v -0.121996 0.740654 0.357332
v -0.095636 0.839738 0.107411
v -0.369322 0.868908 0.165632
v -0.284864 0.948846 0.336431
v -0.340661 0.842570 0.114088
v -0.037765 0.922377 0.278102
v -0.366761 0.910860 0.272969
v -0.194419 0.969398 0.359943
v -0.233446 0.819875 0.069319
v -0.114227 0.588650 0.361127
v -0.042793 0.553046 0.222090
v -0.108287 0.701044 0.142021
v -0.339889 0.717146 0.193942
v -0.265720 0.748464 0.359269
v -0.313794 0.707441 0.150163
v -0.029616 0.741725 0.290779
v -0.337741 0.725227 0.290260
v -0.186175 0.752356 0.379384
v -0.223871 0.697205 0.103743
v -0.062859 0.439819 0.214197
v -0.122424 0.459338 0.353898
v -0.104766 0.560025 0.157730
v -0.328615 0.582011 0.214490
v -0.257952 0.581257 0.354704
v -0.300836 0.564158 0.166098
v -0.039565 0.570507 0.306275
v -0.326565 0.589721 0.306385
v -0.177664 0.586586 0.377115
v -0.215042 0.551996 0.125268
v -0.065487 0.406365 0.167199
v -0.313513 0.436446 0.205308
v -0.247247 0.441094 0.339806
v -0.292329 0.442690 0.167904
v -0.059631 0.452436 0.299631
v -0.311464 0.437126 0.297524
v -0.169157 0.428163 0.369622
v -0.206535 0.447423 0.133877
v -0.127268 0.151025 0.300635
v -0.110495 0.148937 0.213779
v -0.074213 0.266443 0.222876
v -0.123955 0.262377 0.318390
v -0.076040 0.270012 0.183485
v -0.295479 0.270315 0.216697
v -0.229442 0.272412 0.311606
v -0.256304 0.274238 0.185094
v -0.071968 0.275214 0.291437
v -0.294055 0.270788 0.280805
v -0.161297 0.285020 0.336264
v -0.196661 0.261689 0.156037
v -0.112322 0.152066 0.187825
v -0.272417 0.155886 0.223425
v -0.223963 0.157543 0.294596
v -0.248628 0.159369 0.181272
v -0.108250 0.152433 0.277065
v -0.270993 0.151084 0.263795
v -0.164610 0.158283 0.315542
v -0.188985 0.147348 0.166526
v -0.282910 0.064222 0.316484
v -0.302085 0.085071 0.224175
v -0.129701 -0.031689 0.341123
v -0.112927 -0.031689 0.215278
v -0.114754 -0.031689 0.158406
v -0.302751 -0.031689 0.224924
v -0.226396 -0.031689 0.337855
v -0.281812 -0.031689 0.165801
v -0.110683 -0.031689 0.278564
v -0.283577 -0.031689 0.316600
v -0.167043 -0.031689 0.338337
v -0.191417 -0.031689 0.145948
v -0.201321 -0.031689 0.217726
v -0.196691 -0.031689 0.279698
v -0.074615 0.116815 0.273398
v -0.076859 0.113319 0.221889
v -0.093633 0.115406 0.311821
v -0.302039 -0.031689 0.245109
v -0.078687 0.116448 0.182792
v -0.003610 -0.031689 0.336123
v 0.012835 -0.031689 0.225663
v 0.010029 -0.031689 0.170622
v 0.013716 -0.031689 0.288949
v 0.010856 0.104823 0.277158
v 0.009975 0.100763 0.224913
v -0.006470 0.096857 0.311165
v 0.007170 0.104117 0.197004
v 0.133575 -0.031689 0.311674
v 0.151595 -0.031689 0.228366
v 0.148789 -0.031689 0.191597
v 0.152476 -0.031689 0.282083
v 0.138627 0.092955 0.281334
v 0.137745 0.089955 0.228353
v 0.121300 0.091349 0.313044
v 0.134940 0.088008 0.198920
v -0.100855 0.047583 0.338551
v -0.085909 0.048103 0.161694
v -0.005040 0.040852 0.337946
v 0.008600 0.043952 0.169870
v 0.155660 0.031783 0.230200
v 0.138427 0.029830 0.320868
v 0.156541 0.033813 0.281708
v 0.152854 0.032930 0.183861
v -0.225180 0.062927 0.337106
v -0.165827 0.063297 0.337587
v -0.280595 0.063840 0.166058
v -0.190201 0.057829 0.143367
v -0.548431 1.260919 -0.044516
v -0.554379 1.260813 -0.000000
v -0.566359 1.262135 -0.044452
v -0.567192 1.262030 -0.000000
v -0.119128 1.097591 -0.000000
v -0.416903 1.119497 -0.047523
v -0.364153 1.113768 -0.000000
v -0.256938 1.094880 -0.026423
v -0.251663 1.091437 -0.000000
v -0.009381 1.314836 -0.000000
v -0.071877 1.211019 -0.035697
v -0.064254 1.206213 -0.000000
v -0.490853 1.209037 -0.035697
v -0.490853 1.201783 -0.000000
vn 0.0922 0.9957 -0.0108
vn 0.6487 0.7525 -0.1137
vn 0.0789 0.9968 -0.0084
vn -0.0686 -0.9976 -0.0028
vn -0.9460 0.3146 -0.0779
vn -0.8844 0.4274 -0.1876
vn 0.8428 0.5354 0.0544
vn 0.6261 0.7264 0.2835
vn -0.9860 -0.1491 0.0752
vn 0.8085 0.4419 0.3886
vn 0.1707 0.9853 0.0117
vn 0.6734 0.0702 -0.7359
vn 0.2809 0.2834 0.9169
vn -0.0658 0.9675 -0.2441
vn 0.9278 0.2348 -0.2899
vn -0.8747 -0.0049 0.4846
vn -0.0919 -0.0596 -0.9940
vn -0.9321 -0.0177 -0.3617
vn -0.9926 0.1210 0.0111
vn 0.7987 0.5330 -0.2791
vn 0.9709 0.2126 -0.1100
vn 0.4068 0.1743 0.8967
vn 0.6134 0.0546 -0.7879
vn -0.8301 0.0323 0.5567
vn -0.2924 0.1167 0.9492
vn 0.1612 -0.0299 -0.9865
vn -0.1920 -0.0702 -0.9789
vn 0.0369 -0.0584 -0.9976
vn -0.2581 0.2273 0.9390
vn -0.8227 -0.0149 -0.5683
vn -0.2980 -0.0835 -0.9509
vn 0.8762 0.2626 0.4040
vn 0.9848 0.1621 -0.0626
vn 0.4413 0.2942 0.8478
vn 0.6518 0.0025 -0.7584
vn -0.7472 0.1203 0.6536
vn 0.8364 0.1913 0.5137
vn -0.3200 -0.1144 -0.9405
vn -0.9934 -0.0573 0.0991
vn -0.9946 -0.0552 0.0881
vn -0.9935 -0.0572 0.0988
vn -0.6134 -0.1319 -0.7787
vn -0.5903 -0.0441 -0.8060
vn -0.9979 0.0615 0.0226
vn -0.2869 -0.0193 -0.9578
vn 0.8725 0.1374 0.4689
vn 0.9965 0.0788 -0.0288
vn 0.4549 0.1484 0.8781
vn -0.9946 -0.0552 0.0877
vn -0.5773 -0.0864 -0.8119
vn 0.2586 -0.0805 -0.9626
vn -0.3007 0.2469 0.9212
vn 0.3158 0.0911 -0.9444
vn -0.6050 0.1133 -0.7881
vn -0.9853 0.1705 0.0073
vn -0.2898 0.0486 -0.9558
vn 0.8704 0.0635 0.4882
vn 0.9944 0.1023 -0.0268
vn 0.9941 0.1062 -0.0230
vn 0.9942 0.1043 -0.0248
vn 0.2552 0.0323 -0.9663
vn -0.3023 0.1101 0.9468
vn -0.6706 0.1008 0.7349
vn 0.6399 0.0107 -0.7684
vn -0.9971 0.0720 0.0263
vn -0.9970 0.0726 0.0263
vn -0.9972 0.0700 0.0262
vn -0.2109 0.1163 0.9706
vn 0.3418 0.2090 -0.9162
vn -0.5777 0.1158 -0.8080
vn -0.9974 0.0674 0.0261
vn -0.3807 0.1767 -0.9077
vn -0.2505 0.0214 0.9679
vn -0.8574 -0.0587 0.5113
vn 0.5624 0.1160 -0.8187
vn 0.4014 0.0723 0.9130
vn 0.3535 0.0508 0.9341
vn 0.4649 0.1822 -0.8664
vn -0.9528 0.2920 0.0832
vn -0.2446 0.0917 0.9653
vn 0.3192 0.1490 -0.9359
vn -0.5944 0.2071 -0.7770
vn 0.4811 0.1660 -0.8608
vn 0.4002 0.1523 0.9037
vn 0.9941 0.1063 -0.0229
vn 0.7283 0.1743 0.6627
vn -0.1663 0.0254 0.9857
vn 0.0081 -0.0080 -0.9999
vn -0.1337 -0.9873 -0.0863
vn -0.1667 -0.9637 -0.2084
vn 0.0328 -0.0247 -0.9992
vn 0.9399 -0.0075 0.3415
vn 0.9808 0.1940 -0.0187
vn 0.7506 0.1089 0.6517
vn -0.3427 0.1592 -0.9259
vn -0.9574 0.2886 0.0057
vn -0.0089 -0.9633 0.2683
vn -0.0000 1.0000 -0.0000
vn 0.3423 -0.0076 -0.9396
vn 0.2293 0.0092 0.9733
vn 0.9785 -0.0231 -0.2047
vn 0.9272 -0.3139 -0.2046
vn -0.7263 -0.6869 -0.0253
vn -0.7274 -0.6826 0.0700
vn -0.6372 -0.6461 -0.4203
vn -0.0902 -0.9936 0.0682
vn -0.0712 -0.2921 -0.9537
vn -0.0607 -0.3936 -0.9173
vn -0.1436 -0.9867 0.0762
vn -0.0926 0.0001 0.9957
vn -0.8789 0.0942 -0.4677
vn -0.9979 0.0627 0.0155
vn -0.9955 0.0663 0.0681
vn -0.1200 0.0622 0.9908
vn -0.0626 -0.9824 -0.1761
vn -0.1044 -0.9944 -0.0142
vn -0.0899 -0.3557 0.9303
vn -0.9483 -0.3086 0.0735
vn -0.9561 -0.2914 0.0302
vn -0.8504 -0.2773 -0.4471
vn -0.1465 -0.3418 0.9283
vn -0.0253 -0.0004 -0.9997
vn -0.1426 0.0847 -0.9862
vn 0.1712 -0.3195 -0.9320
vn -0.1704 -0.3177 -0.9328
vn 0.4119 -0.4465 -0.7943
vn 0.2087 -0.2343 0.9495
vn 0.8307 -0.3457 0.4363
vn -0.2054 -0.2685 0.9411
vn 0.6661 0.7366 -0.1170
vn 0.0922 0.9957 0.0108
vn 0.0789 0.9968 0.0084
vn 0.6487 0.7525 0.1137
vn 0.6261 0.7264 -0.2835
vn 0.1707 0.9853 -0.0117
vn 0.6661 0.7366 0.1170
vt 0.500000 0.000000
vt 0.000000 0.000000
vt 0.000000 0.000000
vt 0.000000 0.000000
vt 0.000000 0.000000
vt 0.000000 0.000000
vt 0.000000 1.000000
vt 0.000000 0.000000
vt 0.000000 0.000000
vt 0.000000 1.000000
vt 0.000000 0.000000
vt 0.000000 0.500000
vt 0.000000 0.500000
vt 0.000000 1.000000
vt 0.000000 0.000000
vt 0.000000 1.000000
vt 0.000000 0.000000
vt 0.372991 0.000000
vt 0.250000 1.000000
vt 0.250000 0.000000
vt 0.186496 0.000000
vt 0.250000 0.000000
vt 0.000000 0.000000
vt 0.186496 0.000000
vt 0.218248 0.500000
vt 0.250000 1.000000
vt 0.000000 0.000000
vt 0.000000 1.000000
vt 0.000000 0.000000
vt 0.000000 0.000000
vt 0.000000 1.000000
vt 0.000000 0.000000
vt 0.000000 0.500000
vt 0.000000 0.500000
vt 0.000000 1.000000
vt 0.000000 0.000000
vt 0.000000 0.000000
vt 0.000000 1.000000
vt 0.000000 0.000000
vt 0.000000 0.000000
vt 0.000000 1.000000
vt 0.000000 0.000000
vt 0.000000 0.500000
vt 0.000000 0.500000
vt 0.000000 1.000000
vt 0.000000 0.000000
vt 0.000000 1.000000
vt 0.000000 0.000000
vt 0.000000 0.000000
vt 0.000000 0.000000
vt 0.000000 1.000000
vt 0.000000 0.000000
vt 0.000000 0.500000
vt 0.000000 0.500000
vt 0.000000 1.000000
vt 0.000000 0.000000
vt 0.000000 0.000000
vt 0.000000 1.000000
vt 0.000000 0.000000
vt 0.000000 0.000000
vt 0.000000 1.000000
vt 0.000000 0.000000
vt 0.000000 0.500000
vt 0.000000 0.500000
vt 0.000000 1.000000
vt 0.000000 0.000000
vt 0.000000 0.000000
vt 0.000000 0.000000
vt 0.000000 1.000000
vt 0.000000 0.000000
vt 0.000000 0.500000
vt 0.000000 0.500000
vt 0.000000 1.000000
vt 0.000000 0.000000
vt 0.000000 1.000000
vt 0.000000 0.000000
vt 0.000000 0.000000
vt 0.000000 1.000000
vt 0.000000 0.000000
vt 0.000000 0.000000
vt 0.000000 1.000000
vt 0.000000 0.000000
vt 0.000000 0.500000
vt 0.000000 0.500000
vt 0.000000 1.000000
vt 0.000000 0.000000
vt 0.000000 0.000000
vt 0.000000 0.000000
vt 0.000000 1.000000
vt 0.000000 0.000000
vt 0.000000 0.500000
vt 0.000000 0.500000
vt 0.000000 1.000000
vt 0.000000 0.000000
vt 0.000000 0.500000
vt 0.000000 0.000000
vt 0.000000 1.000000
vt 0.000000 0.000000
vt 0.000000 0.000000
vt 0.000000 0.000000
vt 0.000000 1.000000
vt 0.000000 0.000000
vt 0.000000 0.500000
vt 0.000000 0.500000
vt 0.000000 1.000000
vt 0.000000 0.000000
vt 0.000000 0.000000
vt 0.000000 0.500000
vt 0.000000 0.500000
vt 0.000000 0.000000
vt 0.000000 1.000000
vt 0.000000 0.250000
vt 0.000000 0.000000
vt 0.000000 1.000000
vt 0.000000 0.000000
vt 0.000000 0.000000
vt 0.000000 0.500000
vt 0.000000 0.500000
vt 0.000000 0.000000
vt 0.000000 1.000000
vt 0.000000 0.000000
vt 0.000000 1.000000
vt 0.000000 0.000000
vt 0.000000 0.000000
vt 0.000000 0.500000
vt 0.000000 0.500000
vt 0.000000 0.000000
vt 0.000000 1.000000
vt 0.000000 0.000000
vt 0.000000 1.000000
vt 0.000000 0.000000
vt 0.000000 1.000000
vt 0.000000 0.000000
vt 0.000000 0.000000
vt 0.000000 1.000000
vt 0.000000 0.500000
vt 0.000000 0.000000
vt 0.000000 1.000000
vt 0.000000 1.000000
vt 0.000000 0.000000
vt 0.000000 0.000000
vt 0.000000 0.000000
vt 0.000000 0.000000
vt 0.000000 0.000000
vt 0.000000 0.000000
vt 0.000000 0.000000
vt 0.000000 0.000000
vt 0.000000 0.000000
vt 0.000000 0.000000
vt 0.000000 0.000000
vt 0.250000 0.000000
vt 0.250000 0.000000
vt 0.000000 0.000000
vt 0.250000 0.000000
vt 0.000000 0.000000
s 1
usemtl Material.003
f 1/2/1 141/143/2 143/145/3 3/4/3
f 1/2/4 2/3/4 4/5/4 3/4/4
f 140/142/131 142/144/132 143/145/132 141/143/133
usemtl Material.002
f 20/21/5 19/20/5 7/8/5 5/6/5
f 19/20/6 151/151/6 144/146/6 7/8/6
f 22/24/7 8/9/7 10/11/7 21/22/7
f 21/22/8 10/11/8 146/148/8 153/154/8
f 11/12/9 5/6/9 25/27/9 31/33/9
f 10/11/10 8/9/10 28/30/10 30/32/10
f 14/15/11 148/150/11 146/148/11 10/11/11
f 12/13/12 9/10/12 29/31/12 32/34/12
f 14/15/13 10/11/13 30/32/13 34/36/13
f 7/8/14 144/146/14 148/150/14 14/15/14
f 8/9/15 12/13/15 32/34/15 28/30/15
f 5/6/16 7/8/16 27/29/16 25/27/16
f 18/19/17 6/7/17 13/14/17 24/26/17
f 11/12/18 6/7/18 18/19/18 23/25/18
f 5/6/19 11/12/19 23/25/19 20/21/19
f 17/18/20 22/24/20 21/22/20 1/1/20
f 28/30/21 32/34/21 42/44/21 38/40/21
f 34/36/22 30/32/22 40/42/22 44/46/22
f 32/34/23 29/31/23 39/41/23 42/44/23
f 25/27/24 27/29/24 37/39/24 16/17/24
f 27/29/25 34/36/25 44/46/25 37/39/25
f 29/31/26 33/35/26 43/45/26 39/41/26
f 13/14/27 6/7/27 26/28/27 33/35/27
f 9/10/28 13/14/28 33/35/28 29/31/28
f 7/8/29 14/15/29 34/36/29 27/29/29
f 6/7/30 11/12/30 31/33/30 26/28/30
f 43/45/31 15/16/31 36/38/31 53/55/31
f 40/42/32 38/40/32 48/50/32 50/52/32
f 38/40/33 42/44/33 52/54/33 48/50/33
f 44/46/34 40/42/34 50/52/34 54/56/34
f 42/44/35 39/41/35 49/51/35 52/54/35
f 16/17/36 37/39/36 47/49/36 35/37/36
f 30/32/37 28/30/37 38/40/37 40/42/37
f 33/35/38 26/28/38 15/16/38 43/45/38
f 31/33/39 25/27/39 16/17/40 41/43/41
f 26/28/42 31/33/42 41/43/42 15/16/42
f 36/38/43 51/53/43 61/63/43 45/47/43
f 51/53/44 35/37/44 46/48/44 61/63/44
f 53/55/45 36/38/45 45/47/45 63/65/45
f 50/52/46 48/50/46 58/60/46 60/62/46
f 48/50/47 52/54/47 62/64/47 58/60/47
f 54/56/48 50/52/48 60/62/48 64/66/48
f 41/43/41 16/17/40 35/37/49 51/53/49
f 15/16/50 41/43/50 51/53/50 36/38/50
f 39/41/51 43/45/51 53/55/51 49/51/51
f 37/39/52 44/46/52 54/56/52 47/49/52
f 59/61/53 63/65/53 71/73/53 67/69/53
f 45/47/54 61/63/54 69/71/54 56/58/54
f 61/63/55 46/48/55 55/57/55 69/71/55
f 63/65/56 45/47/56 56/58/56 71/73/56
f 60/62/57 58/60/57 66/68/57 68/70/57
f 58/60/58 62/64/58 70/72/59 66/68/60
f 49/51/61 53/55/61 63/65/61 59/61/61
f 47/49/62 54/56/62 64/66/62 57/59/62
f 35/37/63 47/49/63 57/59/63 46/48/63
f 52/54/64 49/51/64 59/61/64 62/64/64
f 55/57/65 65/67/66 77/79/66 75/77/67
f 65/67/68 72/74/68 84/86/68 77/79/68
f 67/69/69 71/73/69 83/85/69 79/81/69
f 56/58/70 69/71/70 81/83/70 76/78/70
f 69/71/71 55/57/65 75/77/67 81/83/71
f 71/73/72 56/58/72 76/78/72 83/85/72
f 57/59/73 64/66/73 72/74/73 65/67/73
f 46/48/74 57/59/74 65/67/74 55/57/74
f 62/64/75 59/61/75 67/69/75 70/72/75
f 64/66/76 60/62/76 68/70/76 72/74/76
f 84/86/77 80/82/77 88/90/77 92/94/77
f 82/84/78 79/81/78 87/89/78 90/92/78
f 75/77/79 77/79/79 85/87/79 74/76/79
f 77/79/80 84/86/80 92/94/80 85/87/80
f 79/81/81 83/85/81 91/93/81 87/89/81
f 76/78/82 81/83/82 89/91/82 73/75/82
f 70/72/83 67/69/83 79/81/83 82/84/83
f 72/74/84 68/70/84 80/82/84 84/86/84
f 66/68/60 70/72/59 82/84/85 78/80/85
f 68/70/86 66/68/86 78/80/86 80/82/86
f 129/131/87 139/141/87 104/106/87 97/99/87
f 136/138/88 137/139/88 103/105/88 99/101/88
f 108/110/89 111/113/89 119/121/89 117/119/89
f 109/111/90 107/109/90 116/118/90 118/120/90
f 137/139/91 128/130/91 95/97/91 103/105/91
f 138/140/92 94/96/92 98/100/92 100/102/92
f 78/80/93 82/84/93 90/92/93 86/88/93
f 80/82/94 78/80/94 86/88/94 88/90/94
f 83/85/95 76/78/95 73/75/95 91/93/95
f 81/83/96 75/77/96 74/76/96 89/91/96
f 64/66/97 57/59/97 60/62/97
f 105/107/98 104/106/98 100/102/98 98/100/98
f 106/108/98 105/107/98 98/100/98 110/112/98 102/104/98
f 103/105/98 106/108/98 102/104/98 99/101/98
f 95/97/98 101/103/98 106/108/98 103/105/98
f 101/103/98 96/98/98 105/107/98 106/108/98
f 96/98/98 97/99/98 104/106/98 105/107/98
f 97/99/98 96/98/98 113/115/98 114/116/98
f 93/95/99 136/138/99 99/101/99 102/104/99
f 139/141/100 138/140/100 100/102/100 104/106/100
f 94/96/101 93/95/101 102/104/101 110/112/101 98/100/101
f 86/88/102 90/92/102 93/95/102 94/96/102
f 74/76/103 85/87/103 111/113/103 108/110/103
f 89/91/104 74/76/104 108/110/104 107/109/104
f 73/75/105 89/91/105 107/109/105 109/111/105
f 116/118/106 117/119/106 125/127/106 124/126/106
f 130/132/107 118/120/107 126/128/107 133/135/107
f 114/116/98 113/115/98 121/123/98 122/124/98
f 128/130/108 109/111/108 118/120/108 130/132/108
f 96/98/98 101/103/98 115/117/98 113/115/98
f 107/109/109 108/110/109 117/119/109 116/118/109
f 101/103/98 95/97/98 112/114/98 115/117/98
f 129/131/110 97/99/110 114/116/110 131/133/110
f 133/135/111 134/136/111 123/125/111 120/122/111
f 134/136/112 132/134/112 121/123/112 123/125/112
f 132/134/113 135/137/113 122/124/113 121/123/113
f 131/133/114 114/116/114 122/124/114 135/137/114
f 115/117/98 112/114/98 120/122/98 123/125/98
f 113/115/98 115/117/98 123/125/98 121/123/98
f 118/120/115 116/118/115 124/126/115 126/128/115
f 117/119/116 119/121/116 127/129/116 125/127/116
f 119/121/117 131/133/117 135/137/117 127/129/117
f 125/127/118 127/129/118 135/137/118 132/134/118
f 124/126/119 125/127/119 132/134/119 134/136/119
f 126/128/120 124/126/120 134/136/120 133/135/120
f 111/113/121 129/131/121 131/133/121 119/121/121
f 95/97/122 128/130/122 130/132/122 112/114/122
f 112/114/123 130/132/123 133/135/123 120/122/123
f 87/89/124 91/93/124 137/139/124 136/138/124
f 91/93/125 73/75/125 109/111/125 128/130/125 137/139/125
f 90/92/126 87/89/126 136/138/126 93/95/126
f 92/94/127 88/90/127 138/140/127 139/141/127
f 88/90/128 86/88/128 94/96/128 138/140/128
f 85/87/129 92/94/129 139/141/129 129/131/129 111/113/129
f 21/23/130 153/155/130 141/143/2 1/2/1
f 152/152/134 153/154/134 146/148/134 145/147/134
f 147/149/135 145/147/135 146/148/135 148/150/135
f 152/153/136 140/142/131 141/143/133 153/155/136
l 149 151
l 151 150
