# Blender 3.5.1
# www.blender.org
mtllib kakikanan.mtl
o Body.000
v -0.079382 1.211133 -0.127326
v -0.098207 1.266308 -0.315929
v -0.119128 1.110952 -0.041615
v -0.465913 1.160461 -0.127326
v -0.343522 1.303701 -0.329602
v -0.416903 1.119497 -0.047523
v -0.080229 1.236019 -0.228464
v -0.432013 1.220102 -0.228464
v -0.248681 1.294449 -0.329602
v -0.140977 0.946595 -0.348166
v -0.050151 0.917702 -0.168616
v -0.101953 1.404228 -0.304666
v -0.041144 1.327960 -0.158181
v -0.349943 1.407953 -0.318339
v -0.502838 1.291134 -0.158181
v -0.456288 1.353384 -0.238260
v -0.043940 1.367048 -0.238260
v -0.229563 1.404791 -0.318339
v -0.115628 1.335188 -0.314855
v -0.356228 1.357726 -0.323971
v -0.451747 1.284844 -0.233362
v -0.078493 1.258153 -0.142753
v -0.490853 1.209037 -0.035697
v -0.488962 1.223248 -0.142753
v -0.066885 1.303893 -0.233362
v -0.239122 1.349620 -0.323971
v -0.057555 1.047591 -0.152121
v -0.140468 1.167597 -0.317473
v -0.103040 1.036452 -0.082869
v -0.398705 0.994211 -0.152121
v -0.303257 1.126902 -0.337392
v -0.348065 0.976985 -0.090782
v -0.051762 1.092072 -0.253260
v -0.401820 1.062644 -0.253260
v -0.197427 1.128199 -0.345283
v -0.240850 0.933026 -0.051219
v -0.033000 0.715383 -0.201908
v -0.121996 0.740654 -0.357333
v -0.095636 0.839738 -0.107411
v -0.369322 0.868908 -0.165633
v -0.284864 0.948846 -0.336431
v -0.340661 0.842570 -0.114088
v -0.037765 0.922376 -0.278103
v -0.366761 0.910859 -0.272969
v -0.194419 0.969398 -0.359943
v -0.233446 0.819875 -0.069319
v -0.114227 0.588650 -0.361127
v -0.042793 0.553045 -0.222090
v -0.108287 0.701044 -0.142022
v -0.339889 0.717146 -0.193942
v -0.265720 0.748464 -0.359270
v -0.313794 0.707441 -0.150164
v -0.029616 0.741725 -0.290780
v -0.337741 0.725227 -0.290261
v -0.186175 0.752356 -0.379384
v -0.223871 0.697205 -0.103743
v -0.062859 0.439819 -0.214197
v -0.122424 0.459338 -0.353898
v -0.104766 0.560025 -0.157730
v -0.328615 0.582011 -0.214490
v -0.257952 0.581257 -0.354705
v -0.300836 0.564158 -0.166098
v -0.039565 0.570507 -0.306275
v -0.326565 0.589721 -0.306385
v -0.177664 0.586586 -0.377116
v -0.215042 0.551996 -0.125268
v -0.065487 0.406365 -0.167199
v -0.313513 0.436446 -0.205308
v -0.247247 0.441094 -0.339807
v -0.292329 0.442690 -0.167904
v -0.059631 0.452436 -0.299631
v -0.311464 0.437126 -0.297524
v -0.169157 0.428163 -0.369622
v -0.206535 0.447423 -0.133877
v -0.127268 0.151025 -0.300635
v -0.110495 0.148937 -0.213779
v -0.074213 0.266443 -0.222876
v -0.123955 0.262377 -0.318390
v -0.076040 0.270012 -0.183485
v -0.295479 0.270315 -0.216697
v -0.229442 0.272412 -0.311606
v -0.256304 0.274238 -0.185094
v -0.071968 0.275214 -0.291437
v -0.294055 0.270788 -0.280805
v -0.161297 0.285020 -0.336264
v -0.196661 0.261689 -0.156037
v -0.112322 0.152066 -0.187825
v -0.272417 0.155886 -0.223425
v -0.223963 0.157543 -0.294596
v -0.248628 0.159369 -0.181272
v -0.108250 0.152433 -0.277065
v -0.270993 0.151084 -0.263795
v -0.164610 0.158283 -0.315542
v -0.188985 0.147348 -0.166526
v -0.282910 0.064222 -0.316484
v -0.302085 0.085071 -0.224175
v -0.129701 -0.031689 -0.341123
v -0.112927 -0.031689 -0.215278
v -0.114754 -0.031689 -0.158406
v -0.302751 -0.031689 -0.224924
v -0.226396 -0.031689 -0.337855
v -0.281812 -0.031689 -0.165801
v -0.110683 -0.031689 -0.278564
v -0.283577 -0.031689 -0.316600
v -0.167043 -0.031689 -0.338337
v -0.191417 -0.031689 -0.145948
v -0.201321 -0.031689 -0.217726
v -0.196691 -0.031689 -0.279698
v -0.074615 0.116815 -0.273398
v -0.076859 0.113319 -0.221889
v -0.093633 0.115406 -0.311821
v -0.302039 -0.031689 -0.245109
v -0.078687 0.116448 -0.182792
v -0.003610 -0.031689 -0.336123
v 0.012835 -0.031689 -0.225663
v 0.010029 -0.031689 -0.170622
v 0.013716 -0.031689 -0.288949
v 0.010856 0.104823 -0.277158
v 0.009975 0.100763 -0.224913
v -0.006470 0.096857 -0.311165
v 0.007170 0.104117 -0.197004
v 0.133575 -0.031689 -0.311674
v 0.151595 -0.031689 -0.228366
v 0.148789 -0.031689 -0.191597
v 0.152476 -0.031689 -0.282083
v 0.138627 0.092954 -0.281334
v 0.137745 0.089955 -0.228353
v 0.121300 0.091349 -0.313044
v 0.134940 0.088008 -0.198920
v -0.100855 0.047583 -0.338551
v -0.085909 0.048103 -0.161694
v -0.005040 0.040852 -0.337946
v 0.008600 0.043952 -0.169870
v 0.155660 0.031783 -0.230200
v 0.138427 0.029830 -0.320868
v 0.156541 0.033813 -0.281708
v 0.152854 0.032930 -0.183861
v -0.225180 0.062927 -0.337106
v -0.165827 0.063297 -0.337587
v -0.280595 0.063840 -0.166058
v -0.190201 0.057829 -0.143367
vn 0.8428 0.5354 -0.0544
vn -0.0082 -0.1030 0.9946
vn -0.0083 -0.1030 0.9947
vn -0.0084 -0.1028 0.9947
vn -0.9860 -0.1491 -0.0752
vn 0.8085 0.4419 -0.3886
vn 0.6734 0.0702 0.7359
vn 0.9278 0.2348 0.2899
vn -0.8747 -0.0049 -0.4846
vn -0.0919 -0.0596 0.9940
vn -0.8881 0.4283 0.1670
vn 0.8192 0.1911 0.5407
vn 0.6508 -0.0142 0.7591
vn -0.7547 0.1838 0.6298
vn -0.9321 -0.0177 0.3617
vn 0.6382 0.1697 0.7509
vn 0.7874 0.3455 0.5105
vn -0.9926 0.1210 -0.0111
vn -0.0962 -0.1080 0.9895
vn -0.0050 -0.1055 0.9944
vn 0.9709 0.2126 0.1100
vn 0.4068 0.1743 -0.8967
vn 0.6134 0.0546 0.7879
vn -0.8301 0.0323 -0.5567
vn -0.2924 0.1167 -0.9492
vn 0.1612 -0.0299 0.9865
vn -0.1920 -0.0701 0.9789
vn 0.0369 -0.0584 0.9976
vn -0.8227 -0.0149 0.5683
vn -0.2980 -0.0835 0.9509
vn 0.8762 0.2626 -0.4040
vn 0.9848 0.1621 0.0626
vn 0.4413 0.2942 -0.8478
vn 0.6518 0.0025 0.7584
vn -0.7472 0.1203 -0.6536
vn 0.8364 0.1913 -0.5137
vn -0.3200 -0.1144 0.9405
vn -0.9934 -0.0573 -0.0991
vn -0.9935 -0.0572 -0.0988
vn -0.9946 -0.0552 -0.0881
vn -0.6134 -0.1319 0.7787
vn -0.5903 -0.0441 0.8060
vn -0.9979 0.0615 -0.0226
vn -0.2869 -0.0193 0.9578
vn 0.8725 0.1374 -0.4689
vn 0.9965 0.0788 0.0288
vn 0.4549 0.1484 -0.8781
vn -0.9946 -0.0552 -0.0877
vn -0.5773 -0.0864 0.8119
vn 0.2586 -0.0805 0.9626
vn -0.3007 0.2469 -0.9212
vn 0.3158 0.0911 0.9444
vn -0.6050 0.1133 0.7881
vn -0.9853 0.1705 -0.0073
vn -0.2898 0.0486 0.9558
vn 0.8704 0.0635 -0.4882
vn 0.9944 0.1023 0.0268
vn 0.9942 0.1043 0.0248
vn 0.9941 0.1062 0.0230
vn 0.2552 0.0323 0.9663
vn -0.3023 0.1101 -0.9468
vn -0.6706 0.1008 -0.7349
vn 0.6399 0.0107 0.7684
vn -0.9971 0.0720 -0.0263
vn -0.9972 0.0700 -0.0262
vn -0.9970 0.0726 -0.0263
vn -0.2109 0.1163 -0.9706
vn 0.3418 0.2090 0.9162
vn -0.5777 0.1158 0.8080
vn -0.9974 0.0674 -0.0261
vn -0.3807 0.1767 0.9077
vn -0.2505 0.0214 -0.9679
vn -0.8574 -0.0587 -0.5113
vn 0.5624 0.1160 0.8187
vn 0.4014 0.0723 -0.9130
vn 0.3535 0.0508 -0.9341
vn 0.4649 0.1822 0.8664
vn -0.9528 0.2920 -0.0832
vn -0.2446 0.0917 -0.9653
vn 0.3192 0.1490 0.9359
vn -0.5944 0.2071 0.7770
vn 0.4811 0.1660 0.8608
vn 0.4002 0.1523 -0.9037
vn 0.9941 0.1063 0.0229
vn 0.7283 0.1743 -0.6627
vn -0.1663 0.0254 -0.9857
vn 0.0081 -0.0080 0.9999
vn -0.1337 -0.9873 0.0863
vn -0.1667 -0.9637 0.2084
vn 0.0328 -0.0247 0.9992
vn 0.9399 -0.0075 -0.3415
vn 0.9808 0.1940 0.0187
vn 0.7506 0.1089 -0.6517
vn -0.3427 0.1592 0.9259
vn -0.9574 0.2886 -0.0057
vn -0.0089 -0.9633 -0.2683
vn -0.0000 1.0000 -0.0000
vn 0.3423 -0.0076 0.9396
vn 0.2293 0.0092 -0.9733
vn 0.9785 -0.0231 0.2047
vn 0.9272 -0.3139 0.2046
vn -0.7263 -0.6869 0.0253
vn -0.7274 -0.6826 -0.0700
vn -0.6372 -0.6461 0.4203
vn -0.0902 -0.9936 -0.0682
vn -0.0712 -0.2921 0.9537
vn -0.0607 -0.3936 0.9173
vn -0.1436 -0.9867 -0.0762
vn -0.0926 0.0001 -0.9957
vn -0.8789 0.0942 0.4677
vn -0.9979 0.0627 -0.0155
vn -0.9955 0.0663 -0.0681
vn -0.1200 0.0622 -0.9908
vn -0.0626 -0.9824 0.1761
vn -0.1044 -0.9944 0.0142
vn -0.0899 -0.3557 -0.9303
vn -0.9483 -0.3086 -0.0735
vn -0.9561 -0.2914 -0.0302
vn -0.8504 -0.2773 0.4471
vn -0.1465 -0.3418 -0.9283
vn -0.0253 -0.0004 0.9997
vn -0.1426 0.0847 0.9862
vn 0.1712 -0.3195 0.9320
vn -0.1704 -0.3177 0.9328
vn 0.4119 -0.4465 0.7943
vn 0.2087 -0.2343 -0.9495
vn 0.8307 -0.3457 -0.4363
vn -0.2054 -0.2685 -0.9411
vt 0.000000 0.000000
vt 0.000000 1.000000
vt 0.000000 0.000000
vt 0.000000 0.000000
vt 0.000000 1.000000
vt 0.000000 0.000000
vt 0.000000 0.500000
vt 0.000000 0.500000
vt 0.000000 1.000000
vt 0.000000 1.000000
vt 0.000000 0.000000
vt 0.500000 1.000000
vt 0.372991 0.000000
vt 0.500000 1.000000
vt 0.372991 0.000000
vt 0.436496 0.500000
vt 0.436496 0.500000
vt 0.500000 1.000000
vt 0.250000 1.000000
vt 0.250000 1.000000
vt 0.218248 0.500000
vt 0.186496 0.000000
vt 0.250000 0.000000
vt 0.186496 0.000000
vt 0.218248 0.500000
vt 0.250000 1.000000
vt 0.000000 0.000000
vt 0.000000 1.000000
vt 0.000000 0.000000
vt 0.000000 0.000000
vt 0.000000 1.000000
vt 0.000000 0.000000
vt 0.000000 0.500000
vt 0.000000 0.500000
vt 0.000000 1.000000
vt 0.000000 0.000000
vt 0.000000 0.000000
vt 0.000000 1.000000
vt 0.000000 0.000000
vt 0.000000 0.000000
vt 0.000000 1.000000
vt 0.000000 0.000000
vt 0.000000 0.500000
vt 0.000000 0.500000
vt 0.000000 1.000000
vt 0.000000 0.000000
vt 0.000000 1.000000
vt 0.000000 0.000000
vt 0.000000 0.000000
vt 0.000000 0.000000
vt 0.000000 1.000000
vt 0.000000 0.000000
vt 0.000000 0.500000
vt 0.000000 0.500000
vt 0.000000 1.000000
vt 0.000000 0.000000
vt 0.000000 0.000000
vt 0.000000 1.000000
vt 0.000000 0.000000
vt 0.000000 0.000000
vt 0.000000 1.000000
vt 0.000000 0.000000
vt 0.000000 0.500000
vt 0.000000 0.500000
vt 0.000000 1.000000
vt 0.000000 0.000000
vt 0.000000 0.000000
vt 0.000000 0.000000
vt 0.000000 1.000000
vt 0.000000 0.000000
vt 0.000000 0.500000
vt 0.000000 0.500000
vt 0.000000 1.000000
vt 0.000000 0.000000
vt 0.000000 1.000000
vt 0.000000 0.000000
vt 0.000000 0.000000
vt 0.000000 1.000000
vt 0.000000 0.000000
vt 0.000000 0.000000
vt 0.000000 1.000000
vt 0.000000 0.000000
vt 0.000000 0.500000
vt 0.000000 0.500000
vt 0.000000 1.000000
vt 0.000000 0.000000
vt 0.000000 0.000000
vt 0.000000 0.000000
vt 0.000000 1.000000
vt 0.000000 0.000000
vt 0.000000 0.500000
vt 0.000000 0.500000
vt 0.000000 1.000000
vt 0.000000 0.000000
vt 0.000000 0.500000
vt 0.000000 0.000000
vt 0.000000 1.000000
vt 0.000000 0.000000
vt 0.000000 0.000000
vt 0.000000 0.000000
vt 0.000000 1.000000
vt 0.000000 0.000000
vt 0.000000 0.500000
vt 0.000000 0.500000
vt 0.000000 1.000000
vt 0.000000 0.000000
vt 0.000000 0.000000
vt 0.000000 0.500000
vt 0.000000 0.500000
vt 0.000000 0.000000
vt 0.000000 1.000000
vt 0.000000 0.250000
vt 0.000000 0.000000
vt 0.000000 1.000000
vt 0.000000 0.000000
vt 0.000000 0.000000
vt 0.000000 0.500000
vt 0.000000 0.500000
vt 0.000000 0.000000
vt 0.000000 1.000000
vt 0.000000 0.000000
vt 0.000000 1.000000
vt 0.000000 0.000000
vt 0.000000 0.000000
vt 0.000000 0.500000
vt 0.000000 0.500000
vt 0.000000 0.000000
vt 0.000000 1.000000
vt 0.000000 0.000000
vt 0.000000 1.000000
vt 0.000000 0.000000
vt 0.000000 1.000000
vt 0.000000 0.000000
vt 0.000000 0.000000
vt 0.000000 1.000000
vt 0.000000 0.500000
vt 0.000000 0.000000
vt 0.000000 1.000000
vt 0.000000 1.000000
vt 0.000000 0.000000
vt 0.000000 0.000000
s 1
usemtl Material.002
f 24/24/1 23/23/1 6/6/1 4/4/1
f 26/26/2 20/20/3 5/5/4 9/9/4
f 7/7/5 33/33/5 27/27/5 1/1/5
f 6/6/6 32/32/6 30/30/6 4/4/6
f 8/8/7 34/34/7 31/31/7 5/5/7
f 4/4/8 30/30/8 34/34/8 8/8/8
f 1/1/9 27/27/9 29/29/9 3/3/9
f 19/19/10 26/26/10 9/9/10 2/2/10
f 22/22/11 13/13/11 17/17/11 25/25/11
f 24/24/12 21/21/12 16/16/12 15/15/12
f 21/21/13 20/20/13 14/14/13 16/16/13
f 25/25/14 17/17/14 12/12/14 19/19/14
f 7/7/15 25/25/15 19/19/15 2/2/15
f 8/8/16 5/5/16 20/20/16 21/21/16
f 4/4/17 8/8/17 21/21/17 24/24/17
f 1/1/18 22/22/18 25/25/18 7/7/18
f 12/12/19 18/18/19 26/26/19 19/19/19
f 18/18/20 14/14/20 20/20/3 26/26/2
f 30/30/21 40/40/21 44/44/21 34/34/21
f 36/36/22 46/46/22 42/42/22 32/32/22
f 34/34/23 44/44/23 41/41/23 31/31/23
f 27/27/24 11/11/24 39/39/24 29/29/24
f 29/29/25 39/39/25 46/46/25 36/36/25
f 31/31/26 41/41/26 45/45/26 35/35/26
f 9/9/27 35/35/27 28/28/27 2/2/27
f 5/5/28 31/31/28 35/35/28 9/9/28
f 2/2/29 28/28/29 33/33/29 7/7/29
f 45/45/30 55/55/30 38/38/30 10/10/30
f 42/42/31 52/52/31 50/50/31 40/40/31
f 40/40/32 50/50/32 54/54/32 44/44/32
f 46/46/33 56/56/33 52/52/33 42/42/33
f 44/44/34 54/54/34 51/51/34 41/41/34
f 11/11/35 37/37/35 49/49/35 39/39/35
f 32/32/36 42/42/36 40/40/36 30/30/36
f 35/35/37 45/45/37 10/10/37 28/28/37
f 33/33/38 43/43/39 11/11/40 27/27/38
f 28/28/41 10/10/41 43/43/41 33/33/41
f 38/38/42 47/47/42 63/63/42 53/53/42
f 53/53/43 63/63/43 48/48/43 37/37/43
f 55/55/44 65/65/44 47/47/44 38/38/44
f 52/52/45 62/62/45 60/60/45 50/50/45
f 50/50/46 60/60/46 64/64/46 54/54/46
f 56/56/47 66/66/47 62/62/47 52/52/47
f 43/43/39 53/53/48 37/37/48 11/11/40
f 10/10/49 38/38/49 53/53/49 43/43/49
f 41/41/50 51/51/50 55/55/50 45/45/50
f 39/39/51 49/49/51 56/56/51 46/46/51
f 61/61/52 69/69/52 73/73/52 65/65/52
f 47/47/53 58/58/53 71/71/53 63/63/53
f 63/63/54 71/71/54 57/57/54 48/48/54
f 65/65/55 73/73/55 58/58/55 47/47/55
f 62/62/56 70/70/56 68/68/56 60/60/56
f 60/60/57 68/68/58 72/72/59 64/64/57
f 51/51/60 61/61/60 65/65/60 55/55/60
f 49/49/61 59/59/61 66/66/61 56/56/61
f 37/37/62 48/48/62 59/59/62 49/49/62
f 54/54/63 64/64/63 61/61/63 51/51/63
f 57/57/64 77/77/65 79/79/66 67/67/66
f 67/67/67 79/79/67 86/86/67 74/74/67
f 69/69/68 81/81/68 85/85/68 73/73/68
f 58/58/69 78/78/69 83/83/69 71/71/69
f 71/71/70 83/83/70 77/77/65 57/57/64
f 73/73/71 85/85/71 78/78/71 58/58/71
f 59/59/72 67/67/72 74/74/72 66/66/72
f 48/48/73 57/57/73 67/67/73 59/59/73
f 64/64/74 72/72/74 69/69/74 61/61/74
f 66/66/75 74/74/75 70/70/75 62/62/75
f 86/86/76 94/94/76 90/90/76 82/82/76
f 84/84/77 92/92/77 89/89/77 81/81/77
f 77/77/78 76/76/78 87/87/78 79/79/78
f 79/79/79 87/87/79 94/94/79 86/86/79
f 81/81/80 89/89/80 93/93/80 85/85/80
f 78/78/81 75/75/81 91/91/81 83/83/81
f 72/72/82 84/84/82 81/81/82 69/69/82
f 74/74/83 86/86/83 82/82/83 70/70/83
f 68/68/58 80/80/84 84/84/84 72/72/59
f 70/70/85 82/82/85 80/80/85 68/68/85
f 131/131/86 99/99/86 106/106/86 141/141/86
f 138/138/87 101/101/87 105/105/87 139/139/87
f 110/110/88 119/119/88 121/121/88 113/113/88
f 111/111/89 120/120/89 118/118/89 109/109/89
f 139/139/90 105/105/90 97/97/90 130/130/90
f 140/140/91 102/102/91 100/100/91 96/96/91
f 80/80/92 88/88/92 92/92/92 84/84/92
f 82/82/93 90/90/93 88/88/93 80/80/93
f 85/85/94 93/93/94 75/75/94 78/78/94
f 83/83/95 91/91/95 76/76/95 77/77/95
f 66/66/96 62/62/96 59/59/96
f 107/107/97 100/100/97 102/102/97 106/106/97
f 108/108/97 104/104/97 112/112/97 100/100/97 107/107/97
f 105/105/97 101/101/97 104/104/97 108/108/97
f 97/97/97 105/105/97 108/108/97 103/103/97
f 103/103/97 108/108/97 107/107/97 98/98/97
f 98/98/97 107/107/97 106/106/97 99/99/97
f 99/99/97 116/116/97 115/115/97 98/98/97
f 95/95/98 104/104/98 101/101/98 138/138/98
f 141/141/99 106/106/99 102/102/99 140/140/99
f 96/96/100 100/100/100 112/112/100 104/104/100 95/95/100
f 88/88/101 96/96/101 95/95/101 92/92/101
f 76/76/102 110/110/102 113/113/102 87/87/102
f 91/91/103 109/109/103 110/110/103 76/76/103
f 75/75/104 111/111/104 109/109/104 91/91/104
f 118/118/105 126/126/105 127/127/105 119/119/105
f 132/132/106 135/135/106 128/128/106 120/120/106
f 116/116/97 124/124/97 123/123/97 115/115/97
f 130/130/107 132/132/107 120/120/107 111/111/107
f 98/98/97 115/115/97 117/117/97 103/103/97
f 109/109/108 118/118/108 119/119/108 110/110/108
f 103/103/97 117/117/97 114/114/97 97/97/97
f 131/131/109 133/133/109 116/116/109 99/99/109
f 135/135/110 122/122/110 125/125/110 136/136/110
f 136/136/111 125/125/111 123/123/111 134/134/111
f 134/134/112 123/123/112 124/124/112 137/137/112
f 133/133/113 137/137/113 124/124/113 116/116/113
f 117/117/97 125/125/97 122/122/97 114/114/97
f 115/115/97 123/123/97 125/125/97 117/117/97
f 120/120/114 128/128/114 126/126/114 118/118/114
f 119/119/115 127/127/115 129/129/115 121/121/115
f 121/121/116 129/129/116 137/137/116 133/133/116
f 127/127/117 134/134/117 137/137/117 129/129/117
f 126/126/118 136/136/118 134/134/118 127/127/118
f 128/128/119 135/135/119 136/136/119 126/126/119
f 113/113/120 121/121/120 133/133/120 131/131/120
f 97/97/121 114/114/121 132/132/121 130/130/121
f 114/114/122 122/122/122 135/135/122 132/132/122
f 89/89/123 138/138/123 139/139/123 93/93/123
f 93/93/124 139/139/124 130/130/124 111/111/124 75/75/124
f 92/92/125 95/95/125 138/138/125 89/89/125
f 94/94/126 141/141/126 140/140/126 90/90/126
f 90/90/127 140/140/127 96/96/127 88/88/127
f 87/87/128 113/113/128 131/131/128 141/141/128 94/94/128
