# Blender 3.5.1
# www.blender.org
mtllib air.mtl
o Object002
v 4.575488 0.548644 -0.529768
v 4.399635 0.548644 -1.527085
v 3.893284 0.548644 -2.404110
v 3.117510 0.548644 -3.055061
v 2.165882 0.548644 -3.401426
v 0.201552 0.548644 -3.055061
v -0.574222 0.548644 -2.404110
v -1.080573 0.548644 -1.527085
v -1.256428 0.548644 -0.529769
v -1.080573 0.548644 0.467548
v -0.574222 0.548644 1.344572
v 0.201552 0.548644 1.995525
v 1.153179 0.548644 2.341889
v 2.165880 0.548644 2.341890
v 3.117508 0.548644 1.995525
v 3.893283 0.548644 1.344575
v 4.399634 0.548644 0.467550
v 4.575488 0.548644 -0.529768
v 4.399635 0.548644 -1.527085
v 3.893284 0.548644 -2.404110
v 3.117510 0.548644 -3.055061
v 2.165882 0.548644 -3.401426
v 0.201552 0.548644 -3.055061
v -0.574222 0.548644 -2.404110
v -1.080573 0.548644 -1.527085
v -1.256428 0.548644 -0.529769
v -1.080573 0.548644 0.467548
v -0.574222 0.548644 1.344572
v 0.201552 0.548644 1.995525
v 1.153179 0.548644 2.341889
v 2.165880 0.548644 2.341890
v 3.117508 0.548644 1.995525
v 3.893283 0.548644 1.344575
v 4.399634 0.548644 0.467550
v 1.219177 1.209097 -1.306777
v 1.219177 0.388597 -1.306776
v 0.773031 0.451790 -1.052851
v 0.773030 1.272290 -1.052851
v 0.535787 0.451790 -0.599505
v 0.535786 1.272290 -0.599505
v 0.535786 0.451790 -0.172845
v 0.535785 1.272290 -0.172845
v 1.032561 0.451790 0.196098
v 1.032560 1.272290 0.196098
v 1.375239 1.811439 -1.306777
v 0.929092 1.874631 -1.052851
v 0.691848 1.874632 -0.599505
v 0.691846 1.874632 -0.172845
v 1.188622 1.874631 0.196098
v 1.544363 2.238934 -1.306777
v 1.098216 2.302126 -1.052851
v 0.860972 2.302125 -0.599505
v 0.860971 2.302125 -0.172845
v 1.357746 2.302126 0.196098
v 1.352071 2.407042 -1.052851
v 1.114827 2.407042 -0.599505
v 1.114826 2.407042 -0.172845
v 1.574649 2.407042 0.129978
v 2.449095 0.520367 -0.526733
v 2.390075 0.520367 -0.823445
v 2.222001 0.520367 -1.074986
v 1.970460 0.520367 -1.243059
v 1.673748 0.520367 -1.302080
v 1.377036 0.520367 -1.243059
v 1.125495 0.520367 -1.074986
v 0.957421 0.520367 -0.823445
v 0.898401 0.520367 -0.526733
v 0.957421 0.520367 -0.230020
v 1.125495 0.520367 0.021520
v 1.377036 0.520367 0.189594
v 1.673748 0.520367 0.248614
v 1.970460 0.520367 0.189594
v 2.222001 0.520367 0.021520
v 2.390075 0.520367 -0.230021
v 2.215045 1.209097 0.242279
v 2.215046 0.388598 0.242279
v 2.661192 0.451790 -0.011647
v 2.661192 1.272290 -0.011647
v 2.898436 0.451790 -0.464993
v 2.898437 1.272290 -0.464993
v 2.898437 0.451790 -0.891653
v 2.898438 1.272290 -0.891653
v 2.401662 0.451790 -1.260595
v 2.401662 1.272290 -1.260595
v 2.058983 1.811439 0.242279
v 2.505131 1.874632 -0.011647
v 2.742375 1.874632 -0.464992
v 2.742376 1.874632 -0.891653
v 2.245601 1.874632 -1.260595
v 1.889859 2.238934 0.242279
v 2.336006 2.302126 -0.011647
v 2.573251 2.302125 -0.464992
v 2.573252 2.302125 -0.891653
v 2.076476 2.302126 -1.260596
v 1.715973 2.325694 0.119582
v 2.082151 2.388887 -0.011647
v 2.319396 2.388886 -0.891653
v 1.859573 2.388887 -1.194476
v 2.341154 2.361896 -0.613161
v 1.952532 2.361896 -0.935639
v 1.785586 2.361896 -0.980373
v 1.526087 2.361895 -1.049903
v 1.357526 2.316036 -0.857544
v 2.341154 2.659428 -0.613161
v 1.952531 2.659427 -0.935639
v 1.785585 2.659428 -0.980373
v 1.526085 2.659428 -1.049905
v 1.357525 2.613569 -0.857544
v 2.341154 2.956961 -0.613161
v 1.952531 2.956960 -0.935639
v 1.785585 2.956960 -0.980373
v 1.526086 2.956960 -1.049903
v 1.357526 2.911101 -0.857544
v 2.259747 3.410603 -0.533124
v 1.955706 3.410603 -0.933836
v 1.777498 3.410603 -1.022128
v 1.536865 3.410604 -1.083725
v 1.325339 3.381228 -0.947714
v 1.918303 3.361177 -0.432211
v 1.841422 3.361177 -0.613611
v 1.715799 3.361177 -0.708528
v 1.574056 3.361176 -0.686217
v 2.092178 3.502406 -0.453672
v 1.926299 3.534208 -0.839660
v 1.763285 3.534208 -0.883341
v 1.511250 3.534208 -0.907251
v 1.339803 3.498309 -0.776097
v 2.029370 3.516489 -0.450733
v 1.914062 3.532506 -0.737115
v 1.756439 3.532506 -0.788182
v 1.520305 3.532506 -0.805428
v 1.342665 3.142717 -0.899174
v 1.531063 3.180965 -1.065519
v 1.781851 3.180965 -0.999651
v 1.953997 3.180965 -0.934807
v 2.303570 3.180966 -0.576210
v 2.200778 2.659429 -0.097298
v 2.200778 2.361897 -0.097298
v 1.702982 2.361897 -0.012335
v 1.702982 2.659428 -0.012335
v 1.536036 2.361897 -0.057067
v 1.536035 2.659429 -0.057068
v 1.276538 2.361896 -0.126602
v 1.276535 2.659429 -0.126601
v 2.200778 2.956961 -0.097298
v 1.702982 2.956960 -0.012335
v 1.536035 2.956960 -0.057068
v 1.276537 2.956960 -0.126603
v 1.226740 2.911102 -0.377470
v 2.170295 3.410604 -0.207316
v 2.186704 3.180966 -0.148091
v 1.704667 3.180966 -0.012323
v 1.706632 3.410604 -0.012309
v 1.523162 3.180965 -0.042240
v 1.508154 3.410604 -0.024951
v 1.273039 3.180966 -0.110591
v 1.268961 3.410604 -0.091922
v 1.193055 3.142717 -0.348848
v 1.153780 3.381228 -0.315474
v 1.925053 3.361177 -0.465430
v 2.011979 3.516489 -0.393857
v 1.768928 3.532506 -0.203496
v 1.767772 3.361177 -0.346774
v 1.606889 3.532506 -0.238083
v 1.611521 3.361177 -0.327386
v 1.393768 3.532506 -0.341214
v 1.499923 3.361177 -0.417579
v 2.064902 3.502406 -0.359908
v 1.728253 3.534208 -0.108571
v 1.565238 3.534208 -0.152250
v 1.335015 3.534208 -0.257560
v 1.252114 3.498309 -0.456867
v 0.201552 0.548644 -3.055061
v 2.165882 0.548644 -3.401426
v 0.201552 0.548644 -3.055061
v 0.201552 0.548644 -3.055061
vn -0.0000 1.0000 -0.0000
vn -0.7238 0.0949 -0.6834
vn -0.4871 0.0615 -0.8712
vn -0.7118 -0.0000 -0.7024
vn -0.4946 -0.0000 -0.8691
vn -0.9649 0.1209 -0.2330
vn -0.9711 -0.0000 -0.2387
vn -0.8934 -0.0000 0.4493
vn -0.8940 0.1115 0.4340
vn -0.5943 0.0812 0.8002
vn -0.5962 -0.0000 0.8028
vn -0.6962 0.2284 -0.6805
vn -0.4716 0.1570 -0.8677
vn -0.9267 0.2994 -0.2272
vn -0.8582 0.2764 0.4324
vn -0.5845 0.1972 0.7870
vn -0.5523 0.6040 -0.5746
vn -0.3207 0.5437 -0.7756
vn -0.7235 0.6663 -0.1806
vn -0.6882 0.6272 0.3646
vn -0.4418 0.6568 0.6111
vn 0.0588 0.9873 -0.1475
vn 0.0776 0.9970 0.0001
vn -0.0289 0.9959 0.0855
vn 0.1130 0.9581 -0.2633
vn 0.7238 0.0949 0.6834
vn 0.4871 0.0615 0.8712
vn 0.7118 -0.0000 0.7024
vn 0.4946 -0.0000 0.8691
vn 0.9711 -0.0000 0.2387
vn 0.9649 0.1209 0.2330
vn 0.8940 0.1115 -0.4340
vn 0.8934 -0.0000 -0.4493
vn 0.5943 0.0812 -0.8002
vn 0.5962 -0.0000 -0.8028
vn 0.6962 0.2284 0.6805
vn 0.4716 0.1570 0.8677
vn 0.9267 0.2994 0.2272
vn 0.8582 0.2764 -0.4324
vn 0.5845 0.1972 -0.7870
vn 0.5364 0.6286 0.5632
vn 0.3049 0.5816 0.7542
vn 0.7051 0.6867 0.1769
vn 0.6729 0.6464 -0.3596
vn 0.4202 0.6977 -0.5802
vn -0.0742 0.9889 0.1285
vn -0.0692 0.9905 -0.1192
vn 0.0069 0.9978 -0.0657
vn -0.1187 0.9574 0.2633
vn 0.4593 -0.0000 -0.8883
vn 0.6386 -0.0000 -0.7696
vn 0.2588 -0.0000 -0.9659
vn -0.2905 -0.0000 -0.9569
vn -0.3221 -0.0000 -0.9467
vn -0.7521 -0.0000 -0.6590
vn -0.7521 -0.0000 -0.6591
vn 0.4812 0.0199 -0.8764
vn 0.6572 0.0576 -0.7515
vn 0.2707 -0.0281 -0.9623
vn -0.2743 -0.0566 -0.9600
vn -0.7282 -0.0448 -0.6839
vn 0.7137 0.1236 -0.6895
vn 0.5432 0.4092 -0.7331
vn 0.7144 0.4647 -0.5231
vn 0.5488 0.0433 -0.8348
vn 0.2795 0.3699 -0.8860
vn 0.3049 -0.0601 -0.9505
vn -0.1745 0.3650 -0.9145
vn -0.2131 -0.1120 -0.9706
vn -0.5915 0.3496 -0.7265
vn -0.6476 -0.1153 -0.7532
vn -0.2796 0.9449 0.1705
vn -0.6157 0.5874 0.5252
vn -0.7545 0.5676 0.3294
vn -0.1694 0.9521 0.2547
vn -0.1102 0.8913 0.4398
vn -0.1767 0.5420 0.8216
vn 0.1976 0.5462 0.8140
vn 0.0190 0.9220 0.3867
vn 0.3021 0.9016 -0.3095
vn 0.4074 0.8953 -0.1802
vn 0.1037 0.9293 -0.3544
vn -0.1834 0.9193 -0.3482
vn -0.3082 0.9351 -0.1751
vn -0.0464 -0.0000 0.9989
vn 0.1682 -0.0000 0.9857
vn -0.2588 -0.0000 0.9659
vn -0.7300 -0.0000 0.6834
vn -0.7523 -0.0000 0.6588
vn -0.0215 0.0199 0.9996
vn 0.1935 0.0576 0.9794
vn -0.2468 -0.0281 0.9686
vn -0.7173 -0.0558 0.6945
vn -0.9726 -0.0448 0.2282
vn 0.3572 0.4647 0.8102
vn 0.1039 0.4092 0.9065
vn 0.0578 0.0434 0.9974
vn 0.2733 0.1236 0.9540
vn -0.2010 0.3699 0.9071
vn -0.2112 -0.0601 0.9756
vn -0.6084 0.3650 0.7047
vn -0.6698 -0.1120 0.7340
vn -0.8756 0.3496 0.3334
vn -0.9375 -0.1153 0.3285
vn -0.0193 0.9521 -0.3052
vn -0.1569 0.9449 -0.2874
vn -0.4885 0.5678 -0.6626
vn -0.2706 0.5874 -0.7627
vn 0.2577 0.5420 -0.7999
vn 0.1245 0.8913 -0.4360
vn 0.5781 0.5462 -0.6062
vn 0.2098 0.9220 -0.3254
vn 0.1069 0.9016 0.4191
vn 0.2627 0.8953 0.3598
vn -0.0874 0.9293 0.3588
vn -0.3333 0.9193 0.2094
vn -0.3545 0.9351 -0.0024
vt 0.999500 0.492412
vt 0.969377 0.663251
vt 0.882639 0.813484
vt 0.749750 0.924991
vt 0.586737 0.984323
vt 0.250250 0.924991
vt 0.117361 0.813484
vt 0.030624 0.663251
vt 0.000500 0.492412
vt 0.030624 0.321573
vt 0.117361 0.171339
vt 0.250250 0.059832
vt 0.413263 0.000500
vt 0.586737 0.000500
vt 0.749750 0.059832
vt 0.882639 0.171339
vt 0.969377 0.321572
vt 0.665670 0.182228
vt 0.665670 0.115869
vt 0.725588 0.115869
vt 0.725588 0.182228
vt 0.785505 0.115869
vt 0.785505 0.182228
vt 0.845423 0.115869
vt 0.845423 0.182228
vt 0.905340 0.115869
vt 0.905340 0.182228
vt 0.665670 0.248586
vt 0.725588 0.248586
vt 0.785505 0.248586
vt 0.845423 0.248586
vt 0.905340 0.248586
vt 0.665670 0.314945
vt 0.725588 0.314945
vt 0.785505 0.314945
vt 0.845423 0.314945
vt 0.905340 0.314945
vt 0.725588 0.347233
vt 0.785505 0.347233
vt 0.845423 0.347233
vt 0.905340 0.347233
vt 0.665670 0.182228
vt 0.665670 0.115869
vt 0.725588 0.115869
vt 0.725588 0.182228
vt 0.785505 0.115869
vt 0.785505 0.182228
vt 0.845423 0.115869
vt 0.845423 0.182228
vt 0.905340 0.115869
vt 0.905340 0.182228
vt 0.665670 0.248586
vt 0.725588 0.248586
vt 0.785505 0.248586
vt 0.845423 0.248586
vt 0.905340 0.248586
vt 0.665670 0.314945
vt 0.725588 0.314945
vt 0.785505 0.314945
vt 0.845423 0.314945
vt 0.905340 0.314945
vt 0.665670 0.347233
vt 0.725588 0.347233
vt 0.845423 0.347233
vt 0.905340 0.347233
vt 0.623721 0.574820
vt 0.690370 0.574820
vt 0.757018 0.574820
vt 0.823666 0.574820
vt 0.890315 0.574820
vt 0.623721 0.648633
vt 0.690370 0.648633
vt 0.757018 0.648633
vt 0.823666 0.648633
vt 0.890315 0.648633
vt 0.623721 0.722446
vt 0.690370 0.722446
vt 0.757018 0.722446
vt 0.823666 0.722446
vt 0.890315 0.722446
vt 0.623721 0.796259
vt 0.690370 0.796259
vt 0.757018 0.796259
vt 0.823666 0.796259
vt 0.890315 0.796259
vt 0.623721 0.870072
vt 0.690370 0.870072
vt 0.757018 0.870072
vt 0.823666 0.870072
vt 0.623721 0.834904
vt 0.690370 0.834904
vt 0.757018 0.834904
vt 0.823666 0.834904
vt 0.890315 0.834904
vt 0.623721 0.839974
vt 0.690370 0.839974
vt 0.757018 0.839974
vt 0.823666 0.839974
vt 0.890315 0.756525
vt 0.823666 0.756525
vt 0.757018 0.756525
vt 0.690370 0.756525
vt 0.623721 0.756525
vt 0.623721 0.648633
vt 0.623721 0.574820
vt 0.690370 0.574820
vt 0.690370 0.648633
vt 0.757018 0.574820
vt 0.757018 0.648633
vt 0.823666 0.574820
vt 0.823666 0.648633
vt 0.623721 0.722446
vt 0.690370 0.722446
vt 0.757018 0.722446
vt 0.823666 0.722446
vt 0.890315 0.722446
vt 0.623721 0.796259
vt 0.623721 0.756525
vt 0.690370 0.756525
vt 0.690370 0.796259
vt 0.757018 0.756525
vt 0.757018 0.796259
vt 0.823666 0.756525
vt 0.823666 0.796259
vt 0.890315 0.756525
vt 0.890315 0.796259
vt 0.623721 0.870072
vt 0.623721 0.839974
vt 0.690370 0.839974
vt 0.690370 0.870072
vt 0.757018 0.839974
vt 0.757018 0.870072
vt 0.823666 0.839974
vt 0.823666 0.870072
vt 0.623721 0.834904
vt 0.690370 0.834904
vt 0.757018 0.834904
vt 0.823666 0.834904
vt 0.890315 0.834904
vt 0.586737 0.984323
vt 0.250250 0.924991
s 1
usemtl Material_#3
f 32/15/1 29/12/1 30/13/1
f 18/1/1 23/6/1 24/7/1
f 24/7/1 27/10/1 28/11/1
f 20/3/1 18/1/1 19/2/1
f 32/15/1 28/11/1 29/12/1
f 18/1/1 28/11/1 32/15/1
f 21/4/1 18/1/1 20/3/1
f 22/5/1 18/1/1 21/4/1
f 23/6/1 18/1/1 22/5/1
f 27/10/1 24/7/1 25/8/1
f 27/10/1 25/8/1 26/9/1
f 28/11/1 18/1/1 24/7/1
f 32/15/1 30/13/1 31/14/1
f 33/16/1 18/1/1 32/15/1
f 18/1/1 33/16/1 34/17/1
f 23/6/1 22/5/1 174/140/1 175/141/1
usemtl Material_#23
f 38/21/2 35/18/3 37/20/4
f 35/18/3 36/19/5 37/20/4
f 40/23/6 37/20/4 39/22/7
f 37/20/4 40/23/6 38/21/2
f 41/24/8 42/25/9 40/23/6
f 40/23/6 39/22/7 41/24/8
f 44/27/10 41/24/8 43/26/11
f 41/24/8 44/27/10 42/25/9
f 35/18/3 46/29/12 45/28/13
f 46/29/12 35/18/3 38/21/2
f 47/30/14 38/21/2 40/23/6
f 38/21/2 47/30/14 46/29/12
f 48/31/15 40/23/6 42/25/9
f 40/23/6 48/31/15 47/30/14
f 44/27/10 49/32/16 48/31/15
f 48/31/15 42/25/9 44/27/10
f 45/28/13 51/34/17 50/33/18
f 51/34/17 45/28/13 46/29/12
f 52/35/19 46/29/12 47/30/14
f 46/29/12 52/35/19 51/34/17
f 53/36/20 52/35/19 48/31/15
f 52/35/19 47/30/14 48/31/15
f 54/37/21 53/36/20 49/32/16
f 53/36/20 48/31/15 49/32/16
f 55/38/22 50/33/18 51/34/17
f 51/34/17 56/39/23 55/38/22
f 56/39/23 51/34/17 52/35/19
f 52/35/19 57/40/24 56/39/23
f 57/40/24 52/35/19 53/36/20
f 58/41/25 57/40/24 54/37/21
f 53/36/20 54/37/21 57/40/24
f 78/45/26 75/42/27 77/44/28
f 75/42/27 76/43/29 77/44/28
f 79/46/30 80/47/31 78/45/26
f 78/45/26 77/44/28 79/46/30
f 82/49/32 79/46/30 81/48/33
f 79/46/30 82/49/32 80/47/31
f 84/51/34 81/48/33 83/50/35
f 81/48/33 84/51/34 82/49/32
f 75/42/27 86/53/36 85/52/37
f 86/53/36 75/42/27 78/45/26
f 87/54/38 78/45/26 80/47/31
f 78/45/26 87/54/38 86/53/36
f 88/55/39 80/47/31 82/49/32
f 80/47/31 88/55/39 87/54/38
f 84/51/34 89/56/40 88/55/39
f 88/55/39 82/49/32 84/51/34
f 85/52/37 91/58/41 90/57/42
f 91/58/41 85/52/37 86/53/36
f 92/59/43 86/53/36 87/54/38
f 86/53/36 92/59/43 91/58/41
f 93/60/44 92/59/43 88/55/39
f 92/59/43 87/54/38 88/55/39
f 94/61/45 93/60/44 89/56/40
f 93/60/44 88/55/39 89/56/40
f 90/57/42 96/63/46 95/62/47
f 96/63/46 90/57/42 91/58/41
f 97/64/48 92/59/43 93/60/44
f 93/60/44 94/61/45 97/64/48
f 98/65/49 97/64/48 94/61/45
f 105/72/50 99/66/51 100/67/50
f 99/66/51 105/72/50 104/71/51
f 101/68/52 106/73/52 105/72/50
f 105/72/50 100/67/50 101/68/52
f 107/74/53 106/73/52 102/69/54
f 106/73/52 101/68/52 102/69/54
f 108/75/55 102/69/54 103/70/56
f 102/69/54 108/75/55 107/74/53
f 110/77/57 104/71/51 105/72/50
f 104/71/51 110/77/57 109/76/58
f 106/73/52 111/78/59 110/77/57
f 110/77/57 105/72/50 106/73/52
f 112/79/60 106/73/52 107/74/53
f 106/73/52 112/79/60 111/78/59
f 113/80/61 107/74/53 108/75/55
f 107/74/53 113/80/61 112/79/60
f 136/103/62 115/82/63 114/81/64
f 115/82/63 136/103/62 135/102/65
f 116/83/66 115/82/63 134/101/67
f 115/82/63 135/102/65 134/101/67
f 117/84/68 134/101/67 133/100/69
f 134/101/67 117/84/68 116/83/66
f 118/85/70 133/100/69 132/99/71
f 133/100/69 118/85/70 117/84/68
f 128/95/72 120/87/73 119/86/74
f 120/87/73 128/95/72 129/96/75
f 130/97/76 120/87/73 129/96/75
f 120/87/73 130/97/76 121/88/77
f 130/97/76 122/89/78 121/88/77
f 122/89/78 130/97/76 131/98/79
f 114/81/64 124/91/80 123/90/81
f 124/91/80 114/81/64 115/82/63
f 115/82/63 125/92/82 124/91/80
f 125/92/82 115/82/63 116/83/66
f 116/83/66 126/93/83 125/92/82
f 126/93/83 116/83/66 117/84/68
f 118/85/70 126/93/83 117/84/68
f 118/85/70 127/94/84 126/93/83
f 123/90/81 129/96/75 128/95/72
f 129/96/75 123/90/81 124/91/80
f 124/91/80 130/97/76 129/96/75
f 130/97/76 124/91/80 125/92/82
f 125/92/82 131/98/79 130/97/76
f 131/98/79 125/92/82 126/93/83
f 131/98/79 126/93/83 127/94/84
f 135/102/65 136/103/62 110/77/57
f 136/103/62 109/76/58 110/77/57
f 134/101/67 135/102/65 111/78/59
f 135/102/65 110/77/57 111/78/59
f 133/100/69 111/78/59 112/79/60
f 111/78/59 133/100/69 134/101/67
f 132/99/71 112/79/60 113/80/61
f 112/79/60 132/99/71 133/100/69
f 140/107/85 138/105/86 137/104/86
f 138/105/86 140/107/85 139/106/85
f 142/109/87 141/108/87 140/107/85
f 140/107/85 141/108/87 139/106/85
f 144/111/88 143/110/89 142/109/87
f 142/109/87 143/110/89 141/108/87
f 146/113/90 137/104/86 145/112/91
f 137/104/86 146/113/90 140/107/85
f 147/114/92 142/109/87 146/113/90
f 146/113/90 142/109/87 140/107/85
f 148/115/93 142/109/87 147/114/92
f 142/109/87 148/115/93 144/111/88
f 149/116/94 144/111/88 148/115/93
f 150/117/95 153/120/96 152/119/97
f 150/117/95 152/119/97 151/118/98
f 155/122/99 154/121/100 153/120/96
f 153/120/96 154/121/100 152/119/97
f 157/124/101 156/123/102 155/122/99
f 155/122/99 156/123/102 154/121/100
f 159/126/103 156/123/102 157/124/101
f 156/123/102 159/126/103 158/125/104
f 162/129/105 161/128/106 160/127/107
f 162/129/105 160/127/107 163/130/108
f 162/129/105 165/132/109 164/131/110
f 165/132/109 162/129/105 163/130/108
f 164/131/110 167/134/111 166/133/112
f 167/134/111 164/131/110 165/132/109
f 150/117/95 169/136/113 153/120/96
f 169/136/113 150/117/95 168/135/114
f 170/137/115 153/120/96 169/136/113
f 153/120/96 170/137/115 155/122/99
f 171/138/116 155/122/99 170/137/115
f 155/122/99 171/138/116 157/124/101
f 159/126/103 157/124/101 171/138/116
f 171/138/116 172/139/117 159/126/103
f 168/135/114 162/129/105 169/136/113
f 162/129/105 168/135/114 161/128/106
f 164/131/110 169/136/113 162/129/105
f 169/136/113 164/131/110 170/137/115
f 170/137/115 166/133/112 171/138/116
f 166/133/112 170/137/115 164/131/110
f 172/139/117 171/138/116 166/133/112
f 151/118/98 152/119/97 146/113/90
f 151/118/98 146/113/90 145/112/91
f 147/114/92 152/119/97 154/121/100
f 152/119/97 147/114/92 146/113/90
f 156/123/102 148/115/93 154/121/100
f 154/121/100 148/115/93 147/114/92
f 158/125/104 148/115/93 156/123/102
f 148/115/93 158/125/104 149/116/94
l 2 1
l 3 2
l 4 3
l 5 4
l 7 6
l 8 7
l 9 8
l 10 9
l 11 10
l 12 11
l 13 12
l 14 13
l 15 14
l 16 15
l 17 16
l 1 17
l 59 60
l 60 61
l 61 62
l 62 63
l 63 64
l 64 65
l 65 66
l 66 67
l 67 68
l 68 69
l 69 70
l 70 71
l 71 72
l 72 73
l 73 74
l 74 59
l 6 173
l 173 176
